<svg width="633" height="496" viewBox="0 0 633 496" fill="none" xmlns="http://www.w3.org/2000/svg">
<g clip-path="url(#clip0)">
<path opacity="0.18" d="M349.389 489.794C354.747 492.004 360.67 492.328 366.451 492.602C415.252 494.956 464.08 496.086 512.935 495.992C517.82 495.992 522.812 495.942 527.389 494.247C531.967 492.552 536.112 488.83 536.918 484.011C506.323 481.635 475.513 481.868 445.026 480.738C429.044 480.148 412.447 482.15 396.547 483.671C388.49 484.446 380.446 485.355 372.416 486.396C367.382 487.052 353.883 491.647 349.389 489.794Z" fill="#1D2741"/>
<path d="M444.943 474.765L448.707 484.011L433.505 491.206L419.466 492.228C419.466 492.228 417.065 482.981 423.62 482.159C427.45 481.718 431.105 480.306 434.236 478.055L444.943 474.765Z" fill="#444CF7"/>
<path d="M457.013 478.943C455.108 479.73 453.452 481.019 452.22 482.672C450.988 484.325 450.228 486.281 450.019 488.332L449.612 492.228H466.874V478.935L457.013 478.943Z" fill="#444CF7"/>
<path opacity="0.22" d="M566.665 55.2154V286.08C566.666 289.438 566.006 292.764 564.722 295.867C563.438 298.97 561.555 301.789 559.182 304.165C556.808 306.54 553.99 308.425 550.888 309.711C547.787 310.997 544.462 311.659 541.104 311.661H65.6663C58.8843 311.656 52.3812 308.96 47.5855 304.163C42.7899 299.367 40.0938 292.863 40.0894 286.08V286.08V55.2154C40.096 48.4331 42.7928 41.9304 47.588 37.1345C52.3832 32.3387 58.8849 29.6415 65.6663 29.6349H541.104C547.883 29.6459 554.38 32.345 559.172 37.1404C563.964 41.9358 566.658 48.4359 566.665 55.2154Z" fill="url(#paint0_linear)"/>
<path d="M567.911 54.3597V285.216C567.919 288.567 567.268 291.886 565.994 294.985C564.72 298.084 562.849 300.901 560.486 303.277C558.123 305.652 555.316 307.539 552.224 308.829C549.132 310.119 545.817 310.788 542.467 310.797H66.9041C63.5464 310.799 60.2211 310.139 57.1182 308.856C54.0152 307.573 51.1953 305.691 48.8195 303.318C46.4437 300.945 44.5585 298.127 43.2715 295.026C41.9845 291.924 41.321 288.599 41.3188 285.241V54.3597C41.3276 47.5758 44.026 41.0723 48.8223 36.2754C53.6186 31.4784 60.1212 28.7796 66.9041 28.7708H542.342C548.554 28.772 554.553 31.0349 559.219 35.137C563.885 39.2391 566.898 44.8998 567.695 51.0614C567.841 52.1547 567.914 53.2566 567.911 54.3597Z" fill="#444CF7"/>
<path d="M567.911 54.3597V285.216C567.919 288.567 567.268 291.886 565.994 294.985C564.72 298.084 562.849 300.901 560.486 303.277C558.123 305.652 555.316 307.539 552.224 308.829C549.132 310.119 545.817 310.788 542.467 310.797H66.9041C63.5464 310.799 60.2211 310.139 57.1182 308.856C54.0152 307.573 51.1953 305.691 48.8195 303.318C46.4437 300.945 44.5585 298.127 43.2715 295.026C41.9845 291.924 41.321 288.599 41.3188 285.241V54.3597C41.3276 47.5758 44.026 41.0723 48.8223 36.2754C53.6186 31.4784 60.1212 28.7796 66.9041 28.7708H542.342C548.554 28.772 554.553 31.0349 559.219 35.137C563.885 39.2391 566.898 44.8998 567.695 51.0614C567.841 52.1547 567.914 53.2566 567.911 54.3597Z" fill="url(#paint1_linear)"/>
<path d="M566.465 51.9254H40.3052C41.1043 45.7631 44.1188 40.1024 48.7858 36.0004C53.4528 31.8984 59.4531 29.6357 65.6662 29.6349H541.104C547.318 29.634 553.319 31.8961 557.986 35.9983C562.654 40.1006 565.668 45.7624 566.465 51.9254Z" fill="url(#paint2_linear)"/>
<path d="M383.746 231.803H205.762C202.129 231.803 199.183 234.749 199.183 238.383V249.209C199.183 252.843 202.129 255.789 205.762 255.789H383.746C387.38 255.789 390.325 252.843 390.325 249.209V238.383C390.325 234.749 387.38 231.803 383.746 231.803Z" fill="white" stroke="#A0A0A0" stroke-width="0.451048" stroke-miterlimit="10"/>
<path d="M214.767 249.342C217.653 249.342 219.992 247.002 219.992 244.116C219.992 241.23 217.653 238.89 214.767 238.89C211.882 238.89 209.542 241.23 209.542 244.116C209.542 247.002 211.882 249.342 214.767 249.342Z" fill="#444CF7"/>
<path d="M231.024 249.342C233.909 249.342 236.249 247.002 236.249 244.116C236.249 241.23 233.909 238.89 231.024 238.89C228.138 238.89 225.799 241.23 225.799 244.116C225.799 247.002 228.138 249.342 231.024 249.342Z" fill="#444CF7"/>
<path d="M247.289 249.342C250.174 249.342 252.514 247.002 252.514 244.116C252.514 241.23 250.174 238.89 247.289 238.89C244.403 238.89 242.064 241.23 242.064 244.116C242.064 247.002 244.403 249.342 247.289 249.342Z" fill="#444CF7"/>
<path d="M263.545 249.342C266.431 249.342 268.77 247.002 268.77 244.116C268.77 241.23 266.431 238.89 263.545 238.89C260.66 238.89 258.32 241.23 258.32 244.116C258.32 247.002 260.66 249.342 263.545 249.342Z" fill="#444CF7"/>
<path d="M403.226 242.687V239.929H405.402V238.151H403.226V236.821H405.402V235.044H401.041V242.687C399.716 242.958 398.539 243.711 397.738 244.8C396.936 245.89 396.568 247.238 396.704 248.584C396.84 249.93 397.471 251.177 398.474 252.084C399.477 252.991 400.781 253.493 402.134 253.493C403.486 253.493 404.79 252.991 405.794 252.084C406.797 251.177 407.428 249.93 407.564 248.584C407.7 247.238 407.331 245.89 406.53 244.8C405.728 243.711 404.551 242.958 403.226 242.687ZM402.138 251.826C401.387 251.827 400.653 251.606 400.027 251.191C399.402 250.775 398.914 250.183 398.625 249.49C398.337 248.797 398.26 248.033 398.405 247.297C398.549 246.56 398.91 245.882 399.439 245.35C399.969 244.818 400.645 244.455 401.381 244.307C402.117 244.159 402.88 244.232 403.575 244.518C404.269 244.804 404.863 245.289 405.281 245.913C405.7 246.536 405.924 247.27 405.926 248.021C405.926 249.027 405.527 249.992 404.817 250.706C404.107 251.419 403.144 251.821 402.138 251.826Z" fill="#444CF7"/>
<path d="M327.21 104.54H272.7C267.304 104.54 262.931 108.915 262.931 114.311V168.828C262.931 174.224 267.304 178.599 272.7 178.599H327.21C332.605 178.599 336.978 174.224 336.978 168.828V114.311C336.978 108.915 332.605 104.54 327.21 104.54Z" fill="url(#paint3_linear)"/>
<path d="M327.508 104.54H276.928C271.702 104.54 267.466 108.777 267.466 114.003V169.136C267.466 174.362 271.702 178.599 276.928 178.599H327.508C332.734 178.599 336.97 174.362 336.97 169.136V114.003C336.97 108.777 332.734 104.54 327.508 104.54Z" fill="#444CF7"/>
<path d="M339.836 141.81L336.015 145.441L334.353 147.003C333.045 145.439 331.383 144.208 329.506 143.412C327.628 142.616 325.588 142.278 323.554 142.425C322.665 142.532 321.764 142.385 320.954 142.001C318.205 140.44 322.516 135.114 322.516 135.114C323.465 135.098 324.414 135.139 325.357 135.239H325.606L326.362 135.33C330.001 135.845 335.815 137.565 339.836 141.81Z" fill="white"/>
<path opacity="0.26" d="M335.865 145.1L336.015 145.441L334.353 147.003C333.045 145.439 331.383 144.208 329.506 143.412C327.628 142.616 325.588 142.278 323.554 142.425C322.665 142.532 321.764 142.385 320.954 142.001L322.516 135.114C322.516 135.114 324.053 135.114 325.357 135.239H325.606C325.86 135.252 326.112 135.283 326.362 135.33C326.362 135.33 327.268 139.202 326.595 140.83C326.595 140.855 332.966 141.918 335.865 145.1Z" fill="url(#paint4_linear)"/>
<path d="M301.242 120.151H298.667C296.598 120.151 294.92 121.829 294.92 123.898V159.241C294.92 161.31 296.598 162.988 298.667 162.988H301.242C303.311 162.988 304.988 161.31 304.988 159.241V123.898C304.988 121.829 303.311 120.151 301.242 120.151Z" fill="url(#paint5_linear)"/>
<path d="M323.538 140.988C323.496 145.472 321.687 149.759 318.503 152.917C315.319 156.075 311.018 157.849 306.533 157.853H302.87C302.203 157.851 301.557 157.624 301.035 157.209C300.513 156.794 300.146 156.215 299.994 155.566C299.841 154.917 299.912 154.236 300.194 153.632C300.476 153.028 300.954 152.536 301.549 152.237C301.961 152.037 302.412 151.932 302.87 151.93H304.249C305.705 151.93 307.147 151.643 308.493 151.085C309.838 150.528 311.061 149.711 312.091 148.681C313.12 147.651 313.937 146.428 314.495 145.083C315.052 143.737 315.339 142.295 315.339 140.838V140.597C315.239 137.67 314.001 134.897 311.888 132.869C309.775 130.841 306.953 129.718 304.025 129.739H302.363C301.72 129.739 301.103 129.483 300.648 129.028C300.193 128.573 299.938 127.956 299.938 127.313V126.283C299.938 125.639 300.193 125.022 300.648 124.567C301.103 124.112 301.72 123.857 302.363 123.857H306.259C315.654 123.848 323.604 131.558 323.538 140.988Z" fill="white"/>
<path opacity="0.26" d="M319.002 141.669C318.969 145.565 317.402 149.29 314.64 152.037C311.878 154.784 308.144 156.33 304.249 156.341H301.059C300.777 156.343 300.496 156.298 300.229 156.208C300.056 155.861 299.954 155.484 299.927 155.097C299.901 154.711 299.95 154.323 300.074 153.956C300.197 153.588 300.392 153.249 300.646 152.957C300.901 152.665 301.211 152.426 301.558 152.254C301.969 152.053 302.421 151.948 302.878 151.946H304.249C305.705 151.946 307.147 151.659 308.493 151.102C309.838 150.545 311.061 149.728 312.091 148.698C313.12 147.668 313.937 146.445 314.495 145.099C315.052 143.754 315.339 142.312 315.339 140.855V140.614C315.239 137.687 314.001 134.914 311.888 132.885C309.775 130.857 306.953 129.734 304.025 129.755H302.363C301.72 129.755 301.103 129.5 300.648 129.045C300.193 128.59 299.938 127.973 299.938 127.329V126.873C300.153 126.804 300.377 126.767 300.602 126.765H303.983C307.946 126.764 311.749 128.331 314.562 131.123C317.376 133.915 318.971 137.706 319.002 141.669Z" fill="url(#paint6_linear)"/>
<path d="M314.791 137.474C314.791 137.474 315.904 140.456 314.516 145.009C314.516 145.009 309.258 150.418 313.744 159.016L317.449 162.979L313.138 167.225C310.453 165.152 308.369 162.402 307.099 159.257C305.829 156.112 305.419 152.685 305.91 149.329C306.891 142.002 314.791 137.474 314.791 137.474Z" fill="white"/>
<path d="M309.458 170.648L343.599 138.246L372.241 162.979L336.97 196.818L309.458 170.648Z" fill="#444CF7"/>
<path d="M309.458 170.648L311.725 183.492L336.97 207.718V196.818L309.458 170.648Z" fill="#444CF7"/>
<path d="M372.241 162.979V174.769L336.97 207.718V196.818L372.241 162.979Z" fill="#444CF7"/>
<path d="M309.458 170.648L311.725 183.492L336.97 207.718V196.818L309.458 170.648Z" fill="url(#paint7_linear)"/>
<path d="M372.241 162.979V174.769L336.97 207.718V196.818L372.241 162.979Z" fill="url(#paint8_linear)"/>
<path d="M315.754 176.638L350.22 143.962L353.401 146.712L319.002 179.728L315.754 176.638Z" fill="url(#paint9_linear)"/>
<path d="M325.93 186.101L361.218 153.425L364.4 156.167L329.178 189.183L325.93 186.101Z" fill="url(#paint10_linear)"/>
<path opacity="0.21" d="M424.367 218.27C424.02 223.402 424.299 228.558 425.198 233.623C425.763 236.755 426.519 240.203 424.907 242.961C424.076 244.457 422.581 245.503 421.244 246.608C412.754 253.587 407.845 263.947 400.593 272.206C400.111 272.884 399.414 273.378 398.616 273.61C397.793 273.663 396.978 273.431 396.306 272.953C391.89 270.404 388.179 266.795 385.507 262.452C384.203 260.325 383.015 257.899 380.773 256.811C376.619 254.767 371.585 259.112 371.128 263.74C370.671 268.367 373.155 272.721 375.556 276.7L386.662 295.128C390.043 300.744 393.607 306.551 399.123 310.082C402.941 312.407 407.228 313.854 411.674 314.319C417.971 315.15 424.359 314.735 430.697 314.244C442.282 313.347 453.843 312.195 465.378 310.788C469.333 310.306 473.827 309.442 475.829 306.011C477.174 303.701 476.992 300.852 476.759 298.193C475.945 288.561 475.114 278.932 474.267 269.306C473.81 263.848 473.129 257.916 469.283 254.028C466.982 251.718 463.759 250.405 461.715 247.855C460.254 245.81 459.313 243.441 458.974 240.951C457.005 230.566 458.891 219.408 454.82 209.629C453.99 207.652 452.877 205.691 451.041 204.586C449.355 203.714 447.459 203.331 445.566 203.481C436.47 203.739 425.032 208.076 424.367 218.27Z" fill="url(#paint11_linear)"/>
<path opacity="0.18" d="M547.949 364.907C543.023 421.676 386.862 403.49 274.56 380.476C162.259 357.463 69.6039 403.49 48.2385 364.907C38.777 347.826 45.0736 326.507 55.0917 308.013C58.8994 310.139 63.1912 311.247 67.5521 311.229H538.753C545.241 326.507 549.702 344.785 547.949 364.907Z" fill="#444CF7"/>
<path d="M425.273 341.32L415.047 415.81C414.617 418.947 414.945 422.14 416.002 425.124L434.277 478.943L444.96 475.62L436.902 422.05C436.728 420.94 436.802 419.805 437.118 418.727L450.983 370.839L457.013 478.844H466.874L475.372 372.285C478.246 354.472 472.979 341.32 472.979 341.32H425.273Z" fill="#3F3D56"/>
<path d="M477.681 321.597L467.563 256.412L466.151 248.469C466.151 248.469 485.041 259.27 490.457 278.162C497.543 302.962 477.681 321.597 477.681 321.597Z" fill="#444CF7"/>
<path d="M477.681 321.597L467.563 256.412L466.151 248.469C466.151 248.469 485.041 259.27 490.457 278.162C497.543 302.962 477.681 321.597 477.681 321.597Z" fill="url(#paint12_linear)"/>
<path d="M488.064 306.426C495.732 291.264 480.588 264.886 480.588 264.886L467.546 256.42L469.017 247.007C469.017 247.007 490.05 249.159 492.102 278.86C492.816 288.423 492.068 300.237 488.064 306.426Z" fill="#444CF7"/>
<path d="M379.701 255.531C378.995 253.139 377.765 250.289 375.273 250.073C375.943 252.255 375.843 254.602 374.991 256.719C369.558 254.709 368.296 246.75 362.871 244.689C362.04 245.57 362.506 247.007 363.021 248.104C363.968 250.148 364.92 252.191 365.878 254.235C364.607 252.233 363.253 250.289 361.816 248.42C361.392 247.846 360.662 247.223 360.063 247.589C359.465 247.954 359.681 248.727 359.897 249.325C360.844 251.984 361.924 254.601 363.112 257.16C361.779 254.921 360.253 252.802 358.552 250.829C357.438 251.103 357.671 252.748 358.153 253.787L361.716 261.38L358.859 257.226C357.937 257.317 358.078 258.73 358.527 259.544C362.356 266.389 368.344 271.773 375.556 274.856C377.018 275.479 378.712 275.994 380.15 275.321C386.33 272.505 380.897 259.635 379.701 255.531Z" fill="url(#paint13_linear)"/>
<path d="M477.681 275.695V326.806C477.681 333.07 476.659 338.163 470.387 338.163H426.593C420.347 338.163 420.106 333.12 420.064 326.881L419.715 292.145C419.715 292.145 410.262 308.985 402.719 307.349C395.177 305.712 372.814 274.881 372.814 274.881L383.996 265.526L402.753 284.335C402.753 284.335 405.768 277.481 410.154 262.136C414.54 246.791 428.77 246.75 428.77 246.75H466.849C480.597 246.75 477.681 275.695 477.681 275.695Z" fill="#444CF7"/>
<path d="M477.681 281.452C477.681 281.452 484.26 290.699 477.681 299.946V281.452Z" fill="#3F3D56"/>
<path d="M472.963 337.839H425.273V341.32H472.963V337.839Z" fill="#444CF7"/>
<path d="M472.963 337.839H425.273V341.32H472.963V337.839Z" fill="url(#paint14_linear)"/>
<path d="M455.277 211.989H441.513V246.991H455.277V211.989Z" fill="url(#paint15_linear)"/>
<path d="M455.286 208.15V246.999H448.025V244.631C448.021 243.242 447.467 241.911 446.485 240.929C445.503 239.947 444.172 239.393 442.784 239.389H442.36C438.901 239.389 435.584 238.014 433.138 235.568C430.692 233.122 429.318 229.804 429.318 226.345V208.15H455.286Z" fill="url(#paint16_linear)"/>
<path d="M429.318 211.989C429.318 211.989 417.273 205.417 421.584 198.222C425.896 191.027 432.923 195.555 432.923 195.555H456.183C456.183 195.555 458.849 195.14 459.879 199.66C460.909 204.179 455.36 232.235 455.36 232.235H443.805L442.327 224.941C442.327 224.941 444.628 222.449 444.42 219.798C444.439 219.302 444.287 218.815 443.989 218.418C443.691 218.021 443.265 217.738 442.784 217.618C442.302 217.499 441.794 217.548 441.344 217.759C440.895 217.97 440.532 218.329 440.316 218.776C439.278 220.621 439.693 212.811 435.997 211.989C433.799 211.482 431.515 211.482 429.318 211.989Z" fill="#3F3D56"/>
<path d="M452.204 246.924C452.204 246.924 446.862 253.92 439.461 253.92C432.059 253.92 410.494 275.08 409.049 281.452C407.604 287.825 402.744 284.335 402.744 284.335C402.744 284.335 405.76 277.481 410.146 262.136C414.532 246.791 428.77 246.75 428.77 246.75H448.125L452.204 246.924Z" fill="url(#paint17_linear)"/>
<path d="M444.943 474.765L448.707 484.011L433.505 491.206L419.466 492.228C419.466 492.228 417.065 482.981 423.62 482.159C427.45 481.718 431.105 480.306 434.236 478.055L444.943 474.765Z" fill="url(#paint18_linear)"/>
<path d="M457.013 478.943C455.108 479.73 453.452 481.019 452.22 482.672C450.988 484.325 450.228 486.281 450.019 488.332L449.612 492.228H466.874V478.935L457.013 478.943Z" fill="url(#paint19_linear)"/>
<path opacity="0.18" d="M139.88 30.0669C139.88 30.0669 246.508 -37.5857 383.057 30.0669H139.88Z" fill="#444CF7"/>
</g>
<defs>
<linearGradient id="paint0_linear" x1="40.0894" y1="170.648" x2="566.665" y2="170.648" gradientUnits="userSpaceOnUse">
<stop stop-color="#68E1FD"/>
<stop offset="1" stop-color="#69B9EB"/>
</linearGradient>
<linearGradient id="paint1_linear" x1="-34.9968" y1="100.461" x2="766.297" y2="263.987" gradientUnits="userSpaceOnUse">
<stop stop-color="white" stop-opacity="0"/>
<stop offset="1" stop-color="white"/>
</linearGradient>
<linearGradient id="paint2_linear" x1="-4.88443" y1="47.2729" x2="936.156" y2="28.2444" gradientUnits="userSpaceOnUse">
<stop stop-opacity="0"/>
<stop offset="0.91" stop-opacity="0.8"/>
<stop offset="1"/>
</linearGradient>
<linearGradient id="paint3_linear" x1="23506.5" y1="25143.1" x2="8945.27" y2="30636.8" gradientUnits="userSpaceOnUse">
<stop stop-opacity="0"/>
<stop offset="0.91" stop-opacity="0.8"/>
<stop offset="1"/>
</linearGradient>
<linearGradient id="paint4_linear" x1="5642.25" y1="1566.53" x2="5355.39" y2="4672.02" gradientUnits="userSpaceOnUse">
<stop stop-opacity="0"/>
<stop offset="0.91" stop-opacity="0.8"/>
<stop offset="1"/>
</linearGradient>
<linearGradient id="paint5_linear" x1="3314.72" y1="14558.7" x2="4347.41" y2="14559.5" gradientUnits="userSpaceOnUse">
<stop stop-opacity="0"/>
<stop offset="0.91" stop-opacity="0.8"/>
<stop offset="1"/>
</linearGradient>
<linearGradient id="paint6_linear" x1="6587.25" y1="3605.29" x2="5219.07" y2="11148.8" gradientUnits="userSpaceOnUse">
<stop stop-opacity="0"/>
<stop offset="0.91" stop-opacity="0.8"/>
<stop offset="1"/>
</linearGradient>
<linearGradient id="paint7_linear" x1="9470.58" y1="15551.2" x2="10993.2" y2="12528.3" gradientUnits="userSpaceOnUse">
<stop stop-opacity="0"/>
<stop offset="0.91" stop-opacity="0.8"/>
<stop offset="1"/>
</linearGradient>
<linearGradient id="paint8_linear" x1="13867.7" y1="18387.5" x2="12486.8" y2="14591.7" gradientUnits="userSpaceOnUse">
<stop stop-opacity="0"/>
<stop offset="0.91" stop-opacity="0.8"/>
<stop offset="1"/>
</linearGradient>
<linearGradient id="paint9_linear" x1="14306.5" y1="12171.5" x2="9842.76" y2="18862.6" gradientUnits="userSpaceOnUse">
<stop stop-opacity="0"/>
<stop offset="0.91" stop-opacity="0.8"/>
<stop offset="1"/>
</linearGradient>
<linearGradient id="paint10_linear" x1="15156.6" y1="12526.8" x2="10732.1" y2="19305.9" gradientUnits="userSpaceOnUse">
<stop stop-opacity="0"/>
<stop offset="0.91" stop-opacity="0.8"/>
<stop offset="1"/>
</linearGradient>
<linearGradient id="paint11_linear" x1="393.274" y1="227.55" x2="601.514" y2="423.583" gradientUnits="userSpaceOnUse">
<stop stop-opacity="0"/>
<stop offset="0.02" stop-color="#030304" stop-opacity="0.04"/>
<stop offset="0.18" stop-color="#181821" stop-opacity="0.39"/>
<stop offset="0.35" stop-color="#292839" stop-opacity="0.66"/>
<stop offset="0.53" stop-color="#363449" stop-opacity="0.85"/>
<stop offset="0.73" stop-color="#3D3B53" stop-opacity="0.96"/>
<stop offset="0.99" stop-color="#3F3D56"/>
</linearGradient>
<linearGradient id="paint12_linear" x1="17086.5" y1="37155.2" x2="11148.3" y2="37774.7" gradientUnits="userSpaceOnUse">
<stop stop-opacity="0"/>
<stop offset="0.91" stop-opacity="0.8"/>
<stop offset="1"/>
</linearGradient>
<linearGradient id="paint13_linear" x1="357.754" y1="260.167" x2="383.049" y2="260.167" gradientUnits="userSpaceOnUse">
<stop stop-color="#ECC4D7"/>
<stop offset="0.42" stop-color="#EFD4D1"/>
<stop offset="1" stop-color="#F2EAC9"/>
</linearGradient>
<linearGradient id="paint14_linear" x1="23902.1" y1="1771.32" x2="23902.2" y2="1725.94" gradientUnits="userSpaceOnUse">
<stop stop-opacity="0"/>
<stop offset="0.91" stop-opacity="0.8"/>
<stop offset="1"/>
</linearGradient>
<linearGradient id="paint15_linear" x1="7136.72" y1="15692.8" x2="7511.35" y2="15690.2" gradientUnits="userSpaceOnUse">
<stop stop-color="#ECC4D7"/>
<stop offset="0.42" stop-color="#EFD4D1"/>
<stop offset="1" stop-color="#F2EAC9"/>
</linearGradient>
<linearGradient id="paint16_linear" x1="15570.9" y1="17375.7" x2="15405.3" y2="17434.1" gradientUnits="userSpaceOnUse">
<stop stop-color="#ECC4D7"/>
<stop offset="0.42" stop-color="#EFD4D1"/>
<stop offset="1" stop-color="#F2EAC9"/>
</linearGradient>
<linearGradient id="paint17_linear" x1="29868.2" y1="19641.6" x2="26646" y2="18022.6" gradientUnits="userSpaceOnUse">
<stop stop-color="white" stop-opacity="0"/>
<stop offset="1" stop-color="white"/>
</linearGradient>
<linearGradient id="paint18_linear" x1="14386" y1="-433.917" x2="14429.9" y2="-105.402" gradientUnits="userSpaceOnUse">
<stop stop-opacity="0"/>
<stop offset="0.91" stop-opacity="0.8"/>
<stop offset="1"/>
</linearGradient>
<linearGradient id="paint19_linear" x1="9116.66" y1="-263.394" x2="9149.79" y2="-8.61745" gradientUnits="userSpaceOnUse">
<stop stop-opacity="0"/>
<stop offset="0.91" stop-opacity="0.8"/>
<stop offset="1"/>
</linearGradient>
<clipPath id="clip0">
<rect width="658" height="496" fill="white" transform="translate(-25)"/>
</clipPath>
</defs>
</svg>
