<svg xmlns="http://www.w3.org/2000/svg" width="203.233" height="155.053" viewBox="0 0 203.233 155.053">
  <g id="Group_17" data-name="Group 17" transform="translate(0 0)">
    <circle id="Ellipse_15" data-name="Ellipse 15" cx="12.878" cy="12.878" r="12.878" transform="translate(16.152 65.799)" fill="#ff6584"/>
    <path id="Path_221" data-name="Path 221" d="M363.5,405.048h-.013a1.712,1.712,0,0,1-1.71-1.71V302.928a1.712,1.712,0,0,1,1.71-1.71h84.513a1.712,1.712,0,0,1,1.71,1.71V381a1.712,1.712,0,0,1-1.7,1.71Z" transform="translate(-308.092 -253.63)" fill="#f2f2f2"/>
    <path id="Path_222" data-name="Path 222" d="M525.01,133.267H485.772V110.529a1.813,1.813,0,0,1,1.811-1.811H523.2a1.813,1.813,0,0,1,1.811,1.811Zm-38.836-.4h38.433V110.529a1.41,1.41,0,0,0-1.409-1.409H487.583a1.41,1.41,0,0,0-1.409,1.409Z" transform="translate(-407.141 -99.865)" fill="#3f3d56"/>
    <path id="Path_223" data-name="Path 223" d="M439.882,87h16.9a1.61,1.61,0,0,1,1.61,1.61v24.146H438.272V88.61A1.61,1.61,0,0,1,439.882,87Z" transform="translate(-350.083 -69.494)" fill="#e6e6e6"/>
    <path id="Path_224" data-name="Path 224" d="M525.022,73.974h-8.25v-8.25a1.007,1.007,0,0,1,1.006-1.006h6.238a1.007,1.007,0,0,1,1.006,1.006Zm-7.848-.4h7.445V65.724a.6.6,0,0,0-.6-.6h-6.238a.6.6,0,0,0-.6.6Z" transform="translate(-431.903 -64.718)" fill="#3f3d56"/>
    <path id="Path_225" data-name="Path 225" d="M838.44,482.04c-.08,0-.158,0-.239,0a20.428,20.428,0,0,1-13.461-5.261q-.205-.187-.407-.378l-.062-.059V437.774l.019-.041c.133-.282.268-.561.4-.839,4.185-8.5,9.067-13.177,13.745-13.177,6.747,0,11.979,9.255,14.5,14.771,3.5,7.671,5.948,17.177,5.948,23.116a20.439,20.439,0,0,1-20.212,20.432C838.6,482.04,838.518,482.04,838.44,482.04Zm-13.766-5.873c.111.105.224.209.337.312a20.027,20.027,0,0,0,13.2,5.157c.082,0,.159,0,.237,0s.148,0,.221,0a20.1,20.1,0,0,0,19.817-20.03c0-5.888-2.431-15.325-5.912-22.949-2.479-5.429-7.61-14.536-14.132-14.536-4.517,0-9.27,4.6-13.384,12.951-.128.263-.255.526-.382.793Z" transform="translate(-677.527 -351.48)" fill="#3f3d56"/>
    <path id="Path_226" data-name="Path 226" d="M893.758,645.36a.232.232,0,0,1-.232-.232v-47.26a.232.232,0,1,1,.463,0v47.26A.232.232,0,0,1,893.758,645.36Z" transform="translate(-732.847 -490.403)" fill="#ccc"/>
    <path id="Path_227" data-name="Path 227" d="M296.758,645.36a.232.232,0,0,1-.232-.232v-47.26a.232.232,0,1,1,.463,0v47.26a.232.232,0,0,1-.232.231Z" transform="translate(-255.975 -490.403)" fill="#ccc"/>
    <path id="Path_228" data-name="Path 228" d="M847.538,587.528a.231.231,0,0,1-.175-.08l-11.643-13.427a.232.232,0,0,1,.35-.3l11.643,13.427a.232.232,0,0,1-.175.383Z" transform="translate(-686.626 -471.233)" fill="#ccc"/>
    <path id="Path_229" data-name="Path 229" d="M893.758,653.078a.231.231,0,0,1-.164-.4l6.616-6.616a.231.231,0,1,1,.327.327l-6.616,6.616A.231.231,0,0,1,893.758,653.078Z" transform="translate(-732.847 -529.034)" fill="#ccc"/>
    <path id="Path_230" data-name="Path 230" d="M932.424,800.134H915.119v-.2a8.653,8.653,0,0,1,17.306,0Zm-16.9-.4h16.5a8.251,8.251,0,0,0-16.5,0Z" transform="translate(-750.094 -645.081)" fill="#3f3d56"/>
    <path id="Path_231" data-name="Path 231" d="M946.333,809.875a.229.229,0,0,0-.228.229v2.427l-2.364-2.029a.228.228,0,0,0-.3.347l2.661,2.284v1.426a.228.228,0,1,0,.457,0V810.1a.228.228,0,0,0-.228-.228Z" transform="translate(-772.655 -659.934)" fill="#3f3d56"/>
    <path id="Path_232" data-name="Path 232" d="M211.425,800.134H194.119v-.2a8.653,8.653,0,1,1,17.306,0Zm-16.9-.4h16.5a8.251,8.251,0,0,0-16.5,0Z" transform="translate(-174.174 -645.081)" fill="#3f3d56"/>
    <path id="Path_233" data-name="Path 233" d="M225.333,809.875a.228.228,0,0,0-.228.229v2.427l-2.364-2.029a.228.228,0,0,0-.3.347l2.662,2.284v1.426a.228.228,0,1,0,.457,0V810.1a.228.228,0,0,0-.228-.228Z" transform="translate(-196.735 -659.934)" fill="#3f3d56"/>
    <path id="Path_234" data-name="Path 234" d="M217.51,482.04c-.08,0-.158,0-.238,0a20.44,20.44,0,0,1-20.21-20.432c0-5.939,2.446-15.445,5.948-23.116,2.519-5.517,7.752-14.771,14.5-14.771,2.78,0,5.578,1.584,8.319,4.709.136.154.272.313.406.475l.046.056v51.107l-.113.055c-.135.066-.273.127-.41.187a20.245,20.245,0,0,1-8.014,1.731C217.668,482.04,217.588,482.04,217.51,482.04Zm0-57.919c-6.523,0-11.655,9.107-14.134,14.536-3.481,7.624-5.912,17.061-5.912,22.949a20.105,20.105,0,0,0,19.814,20.029c.081,0,.157,0,.236,0s.148,0,.221,0a19.85,19.85,0,0,0,7.86-1.7c.095-.041.189-.083.283-.126V429.1c-.117-.14-.234-.277-.352-.41C222.866,425.659,220.169,424.121,217.51,424.121Z" transform="translate(-176.525 -351.48)" fill="#3f3d56"/>
    <path id="Path_235" data-name="Path 235" d="M251.538,587.528a.231.231,0,0,1-.175-.08l-11.643-13.427a.232.232,0,0,1,.35-.3l11.643,13.427a.232.232,0,0,1-.175.383Z" transform="translate(-210.554 -471.233)" fill="#ccc"/>
    <path id="Path_236" data-name="Path 236" d="M297.758,653.078a.231.231,0,0,1-.164-.4l6.616-6.616a.231.231,0,0,1,.327.327l-6.616,6.616A.23.23,0,0,1,297.758,653.078Z" transform="translate(-256.774 -529.034)" fill="#ccc"/>
    <path id="Path_237" data-name="Path 237" d="M350.083,230.73l.149.294a.89.89,0,0,1,.1.41v7.948h7.043v-7.948a.889.889,0,0,1,.1-.41l.149-.294Zm6.89.7v7.546h-6.238v-7.546a1.262,1.262,0,0,0-.036-.3h6.31a1.262,1.262,0,0,0-.036.3Zm1.964-.7.149.294a.89.89,0,0,1,.1.41v7.948h7.043v-7.948a.89.89,0,0,1,.1-.41l.149-.294Zm6.89.7v7.546h-6.238v-7.546a1.265,1.265,0,0,0-.036-.3h6.31a1.264,1.264,0,0,0-.036.3Zm1.964-.7.149.294a.89.89,0,0,1,.1.41v7.948h7.043v-7.948a.89.89,0,0,1,.1-.41l.149-.294Zm6.89.7v7.546h-6.238v-7.546a1.265,1.265,0,0,0-.036-.3h6.31a1.262,1.262,0,0,0-.036.3Zm1.964-.7.149.294a.89.89,0,0,1,.1.41v7.948h7.043v-7.948a.89.89,0,0,1,.1-.41l.149-.294Zm6.89.7v7.546H377.3v-7.546a1.26,1.26,0,0,0-.036-.3h6.31a1.262,1.262,0,0,0-.036.3Zm1.964-.7.149.294a.89.89,0,0,1,.1.41v7.948h7.043v-7.948a.89.89,0,0,1,.1-.41l.149-.294Zm6.89.7v7.546H386.15v-7.546a1.264,1.264,0,0,0-.036-.3h6.31a1.265,1.265,0,0,0-.036.3Zm1.964-.7.149.294a.889.889,0,0,1,.1.41v7.948h7.043v-7.948a.89.89,0,0,1,.1-.41l.149-.294Zm6.89.7v7.546H395v-7.546a1.262,1.262,0,0,0-.036-.3h6.31a1.264,1.264,0,0,0-.036.3Zm1.964-.7.149.294a.89.89,0,0,1,.1.41v7.948H410.5v-7.948a.89.89,0,0,1,.1-.41l.149-.294Zm6.89.7v7.546h-6.238v-7.546a1.265,1.265,0,0,0-.036-.3h6.31a1.264,1.264,0,0,0-.036.3Zm1.964-.7.149.294a.89.89,0,0,1,.1.41v7.948h7.043v-7.948a.89.89,0,0,1,.1-.41l.149-.294Zm6.89.7v7.546h-6.238v-7.546a1.264,1.264,0,0,0-.036-.3h6.31a1.264,1.264,0,0,0-.036.3Zm1.964-.7.149.294a.891.891,0,0,1,.1.41v7.948h7.043v-7.948a.891.891,0,0,1,.1-.41l.149-.294Zm6.89.7v7.546h-6.238v-7.546a1.264,1.264,0,0,0-.036-.3h6.31a1.264,1.264,0,0,0-.036.3Zm-6.89-.7.149.294a.891.891,0,0,1,.1.41v7.948h7.043v-7.948a.891.891,0,0,1,.1-.41l.149-.294Zm6.89.7v7.546h-6.238v-7.546a1.264,1.264,0,0,0-.036-.3h6.31a1.264,1.264,0,0,0-.036.3Zm-15.744-.7.149.294a.89.89,0,0,1,.1.41v7.948h7.043v-7.948a.89.89,0,0,1,.1-.41l.149-.294Zm6.89.7v7.546h-6.238v-7.546a1.262,1.262,0,0,0-.036-.3h6.31a1.265,1.265,0,0,0-.036.3Zm-15.743-.7.149.294a.89.89,0,0,1,.1.41v7.948H410.5v-7.948a.89.89,0,0,1,.1-.41l.149-.294Zm6.89.7v7.546h-6.238v-7.546a1.264,1.264,0,0,0-.036-.3h6.31a1.26,1.26,0,0,0-.036.3Zm-15.744-.7.149.294a.89.89,0,0,1,.1.41v7.948h7.043v-7.948a.89.89,0,0,1,.1-.41l.149-.294Zm6.89.7v7.546H395v-7.546a1.265,1.265,0,0,0-.036-.3h6.31a1.262,1.262,0,0,0-.036.3Zm-15.744-.7.149.294a.89.89,0,0,1,.1.41v7.948h7.043v-7.948a.89.89,0,0,1,.1-.41l.149-.294Zm6.89.7v7.546H386.15v-7.546a1.262,1.262,0,0,0-.036-.3h6.31a1.262,1.262,0,0,0-.036.3Zm-15.743-.7.149.294a.89.89,0,0,1,.1.41v7.948h7.043v-7.948a.891.891,0,0,1,.1-.41l.149-.294Zm6.89.7v7.546H377.3v-7.546a1.262,1.262,0,0,0-.036-.3h6.31a1.264,1.264,0,0,0-.036.3Zm-15.744-.7.149.294a.89.89,0,0,1,.1.41v7.948h7.043v-7.948a.89.89,0,0,1,.1-.41l.149-.294Zm6.89.7v7.546h-6.238v-7.546a1.262,1.262,0,0,0-.036-.3h6.31a1.265,1.265,0,0,0-.036.3Zm-15.744-.7.149.294a.89.89,0,0,1,.1.41v7.948h7.043v-7.948a.89.89,0,0,1,.1-.41l.149-.294Zm6.89.7v7.546h-6.238v-7.546a1.264,1.264,0,0,0-.036-.3h6.31a1.262,1.262,0,0,0-.036.3Zm-15.743-.7.149.294a.89.89,0,0,1,.1.41v7.948h7.043v-7.948a.89.89,0,0,1,.1-.41l.149-.294Zm6.89.7v7.546h-6.238v-7.546a1.264,1.264,0,0,0-.036-.3h6.31a1.264,1.264,0,0,0-.036.3Zm63.94-.7.149.294a.89.89,0,0,1,.1.41v7.948h7.043v-7.948a.891.891,0,0,1,.1-.41l.149-.294Zm6.89.7v7.546h-6.238v-7.546a1.265,1.265,0,0,0-.036-.3h6.31a1.264,1.264,0,0,0-.036.3Zm-15.743-.7.149.294a.891.891,0,0,1,.1.41v7.948h7.043v-7.948a.89.89,0,0,1,.1-.41l.149-.294Zm6.89.7v7.546h-6.238v-7.546a1.26,1.26,0,0,0-.036-.3h6.31a1.264,1.264,0,0,0-.036.3Zm-15.744-.7.149.294a.89.89,0,0,1,.1.41v7.948H410.5v-7.948a.89.89,0,0,1,.1-.41l.149-.294Zm6.89.7v7.546h-6.238v-7.546a1.264,1.264,0,0,0-.036-.3h6.31a1.262,1.262,0,0,0-.036.3Zm-15.744-.7.149.294a.889.889,0,0,1,.1.41v7.948h7.043v-7.948a.89.89,0,0,1,.1-.41l.149-.294Zm6.89.7v7.546H395v-7.546a1.262,1.262,0,0,0-.036-.3h6.31a1.264,1.264,0,0,0-.036.3Zm-15.743-.7.149.294a.89.89,0,0,1,.1.41v7.948h7.043v-7.948a.89.89,0,0,1,.1-.41l.149-.294Zm6.89.7v7.546H386.15v-7.546a1.262,1.262,0,0,0-.036-.3h6.31a1.265,1.265,0,0,0-.036.3Zm-15.744-.7.149.294a.889.889,0,0,1,.1.41v7.948h7.043v-7.948a.891.891,0,0,1,.1-.41l.149-.294Zm6.89.7v7.546H377.3v-7.546a1.264,1.264,0,0,0-.036-.3h6.31a1.262,1.262,0,0,0-.036.3Zm-15.744-.7.149.294a.89.89,0,0,1,.1.41v7.948h7.043v-7.948a.89.89,0,0,1,.1-.41l.149-.294Zm6.89.7v7.546h-6.238v-7.546a1.26,1.26,0,0,0-.036-.3h6.31a1.264,1.264,0,0,0-.036.3Zm-15.744-.7.149.294a.89.89,0,0,1,.1.41v7.948h7.043v-7.948a.89.89,0,0,1,.1-.41l.149-.294Zm6.89.7v7.546h-6.238v-7.546a1.265,1.265,0,0,0-.036-.3h6.31a1.264,1.264,0,0,0-.036.3Zm-15.744-.7.149.294a.89.89,0,0,1,.1.41v7.948h7.043v-7.948a.89.89,0,0,1,.1-.41l.149-.294Zm6.89.7v7.546h-6.238v-7.546a1.264,1.264,0,0,0-.036-.3h6.31a1.262,1.262,0,0,0-.036.3Zm63.94-.7.149.294a.89.89,0,0,1,.1.41v7.948h7.043v-7.948a.89.89,0,0,1,.1-.41l.149-.294Zm6.89.7v7.546h-6.238v-7.546a1.265,1.265,0,0,0-.036-.3h6.31a1.263,1.263,0,0,0-.036.3Zm-15.744-.7.149.294a.89.89,0,0,1,.1.41v7.948h7.043v-7.948a.89.89,0,0,1,.1-.41l.149-.294Zm6.89.7v7.546h-6.238v-7.546a1.262,1.262,0,0,0-.036-.3h6.31a1.264,1.264,0,0,0-.036.3Zm-15.743-.7.149.294a.89.89,0,0,1,.1.41v7.948H410.5v-7.948a.891.891,0,0,1,.1-.41l.149-.294Zm6.89.7v7.546h-6.238v-7.546a1.264,1.264,0,0,0-.036-.3h6.31a1.262,1.262,0,0,0-.036.3Zm-15.744-.7.149.294a.89.89,0,0,1,.1.41v7.948h7.043v-7.948a.89.89,0,0,1,.1-.41l.149-.294Zm6.89.7v7.546H395v-7.546a1.262,1.262,0,0,0-.036-.3h6.31a1.264,1.264,0,0,0-.036.3Zm-15.743-.7.149.294a.89.89,0,0,1,.1.41v7.948h7.043v-7.948a.89.89,0,0,1,.1-.41l.149-.294Zm6.89.7v7.546H386.15v-7.546a1.262,1.262,0,0,0-.036-.3h6.31a1.264,1.264,0,0,0-.036.3Zm-15.744-.7.149.294a.89.89,0,0,1,.1.41v7.948h7.043v-7.948a.89.89,0,0,1,.1-.41l.149-.294Zm6.89.7v7.546H377.3v-7.546a1.264,1.264,0,0,0-.036-.3h6.31a1.264,1.264,0,0,0-.036.3Zm-15.744-.7.149.294a.89.89,0,0,1,.1.41v7.948h7.043v-7.948a.89.89,0,0,1,.1-.41l.149-.294Zm6.89.7v7.546h-6.238v-7.546a1.264,1.264,0,0,0-.036-.3h6.31a1.262,1.262,0,0,0-.036.3Zm-15.744-.7.149.294a.89.89,0,0,1,.1.41v7.948h7.043v-7.948a.89.89,0,0,1,.1-.41l.149-.294Zm6.89.7v7.546h-6.238v-7.546a1.265,1.265,0,0,0-.036-.3h6.31a1.264,1.264,0,0,0-.036.3Zm-15.744-.7.149.294a.89.89,0,0,1,.1.41v7.948h7.043v-7.948a.889.889,0,0,1,.1-.41l.149-.294Zm6.89.7v7.546h-6.238v-7.546a1.262,1.262,0,0,0-.036-.3h6.31a1.262,1.262,0,0,0-.036.3Zm63.94-.7.149.294a.89.89,0,0,1,.1.41v7.948h7.043v-7.948a.89.89,0,0,1,.1-.41l.149-.294Zm6.89.7v7.546h-6.238v-7.546a1.264,1.264,0,0,0-.036-.3h6.31a1.265,1.265,0,0,0-.036.3Zm-15.743-.7.149.294a.89.89,0,0,1,.1.41v7.948h7.043v-7.948a.89.89,0,0,1,.1-.41l.149-.294Zm6.89.7v7.546h-6.238v-7.546a1.261,1.261,0,0,0-.036-.3h6.31a1.264,1.264,0,0,0-.036.3Zm-15.744-.7.149.294a.89.89,0,0,1,.1.41v7.948H410.5v-7.948a.891.891,0,0,1,.1-.41l.149-.294Zm6.89.7v7.546h-6.238v-7.546a1.265,1.265,0,0,0-.036-.3h6.31a1.262,1.262,0,0,0-.036.3Zm-15.744-.7.149.294a.89.89,0,0,1,.1.41v7.948h7.043v-7.948a.89.89,0,0,1,.1-.41l.149-.294Zm6.89.7v7.546H395v-7.546a1.26,1.26,0,0,0-.036-.3h6.31a1.264,1.264,0,0,0-.036.3Zm-15.744-.7.149.294a.891.891,0,0,1,.1.41v7.948h7.043v-7.948a.89.89,0,0,1,.1-.41l.149-.294Zm6.89.7v7.546H386.15v-7.546a1.262,1.262,0,0,0-.036-.3h6.31a1.264,1.264,0,0,0-.036.3Zm-15.744-.7.149.294a.89.89,0,0,1,.1.41v7.948h7.043v-7.948a.89.89,0,0,1,.1-.41l.149-.294Zm6.89.7v7.546H377.3v-7.546a1.264,1.264,0,0,0-.036-.3h6.31a1.262,1.262,0,0,0-.036.3Zm-15.743-.7.149.294a.889.889,0,0,1,.1.41v7.948h7.043v-7.948a.891.891,0,0,1,.1-.41l.149-.294Zm6.89.7v7.546h-6.238v-7.546a1.26,1.26,0,0,0-.036-.3h6.31a1.264,1.264,0,0,0-.036.3Zm-15.744-.7.149.294a.89.89,0,0,1,.1.41v7.948h7.043v-7.948a.891.891,0,0,1,.1-.41l.149-.294Zm6.89.7v7.546h-6.238v-7.546a1.262,1.262,0,0,0-.036-.3h6.31a1.264,1.264,0,0,0-.036.3Zm-15.744-.7.149.294a.89.89,0,0,1,.1.41v7.948h7.043v-7.948a.89.89,0,0,1,.1-.41l.149-.294Zm6.89.7v7.546h-6.238v-7.546a1.264,1.264,0,0,0-.036-.3h6.31a1.265,1.265,0,0,0-.036.3Zm63.94-.7.149.294a.89.89,0,0,1,.1.41v7.948h7.043v-7.948a.89.89,0,0,1,.1-.41l.149-.294Zm6.89.7v7.546h-6.238v-7.546a1.264,1.264,0,0,0-.036-.3h6.31a1.263,1.263,0,0,0-.036.3Zm-15.595-.41a.89.89,0,0,1,.1.41v7.948h7.043v-7.948a.89.89,0,0,1,.1-.41l.149-.294h-7.542Zm6.777.109a1.263,1.263,0,0,0-.036.3v7.546h-6.238v-7.546a1.264,1.264,0,0,0-.036-.3Zm-15.631-.109a.89.89,0,0,1,.1.41v7.948H410.5v-7.948a.89.89,0,0,1,.1-.41l.149-.294h-7.542Zm6.777.109a1.263,1.263,0,0,0-.036.3v7.546h-6.238v-7.546a1.265,1.265,0,0,0-.036-.3Zm-15.631-.109a.89.89,0,0,1,.1.41v7.948h7.043v-7.948a.89.89,0,0,1,.1-.41l.149-.294h-7.542Zm6.777.109a1.263,1.263,0,0,0-.036.3v7.546H395v-7.546a1.262,1.262,0,0,0-.036-.3Zm-15.631-.109a.89.89,0,0,1,.1.41v7.948h7.043v-7.948a.89.89,0,0,1,.1-.41l.149-.294H385.5Zm6.777.109a1.263,1.263,0,0,0-.036.3v7.546H386.15v-7.546a1.265,1.265,0,0,0-.036-.3Zm-15.631-.109a.89.89,0,0,1,.1.41v7.948h7.043v-7.948a.89.89,0,0,1,.1-.41l.149-.294h-7.542Zm6.777.109a1.263,1.263,0,0,0-.036.3v7.546H377.3v-7.546a1.264,1.264,0,0,0-.036-.3Zm-15.631-.109a.89.89,0,0,1,.1.41v7.948h7.043v-7.948a.89.89,0,0,1,.1-.41l.149-.294h-7.542Zm6.777.109a1.262,1.262,0,0,0-.036.3v7.546h-6.238v-7.546a1.262,1.262,0,0,0-.036-.3Zm-15.631-.109a.89.89,0,0,1,.1.41v7.948h7.043v-7.948a.89.89,0,0,1,.1-.41l.149-.294h-7.542Zm6.777.109a1.263,1.263,0,0,0-.036.3v7.546h-6.238v-7.546a1.264,1.264,0,0,0-.036-.3Zm-15.631-.109a.89.89,0,0,1,.1.41v7.948h7.043v-7.948a.89.89,0,0,1,.1-.41l.149-.294h-7.542Zm6.777.109a1.265,1.265,0,0,0-.036.3v7.546h-6.238v-7.546a1.26,1.26,0,0,0-.036-.3Zm64.053-.109a.89.89,0,0,1,.1.41v7.948h7.043v-7.948a.89.89,0,0,1,.1-.41l.149-.294h-7.542Zm6.777.109a1.262,1.262,0,0,0-.036.3v7.546h-6.238v-7.546a1.262,1.262,0,0,0-.036-.3Zm-15.631-.109a.891.891,0,0,1,.1.41v7.948h7.043v-7.948a.89.89,0,0,1,.1-.41l.149-.294h-7.542Zm6.777.109a1.265,1.265,0,0,0-.036.3v7.546h-6.238v-7.546a1.264,1.264,0,0,0-.036-.3Zm-15.631-.109a.89.89,0,0,1,.1.41v7.948H410.5v-7.948a.89.89,0,0,1,.1-.41l.149-.294h-7.542Zm6.777.109a1.262,1.262,0,0,0-.036.3v7.546h-6.238v-7.546a1.264,1.264,0,0,0-.036-.3Zm-15.631-.109a.89.89,0,0,1,.1.41v7.948h7.043v-7.948a.89.89,0,0,1,.1-.41l.149-.294h-7.542Zm6.777.109a1.263,1.263,0,0,0-.036.3v7.546H395v-7.546a1.262,1.262,0,0,0-.036-.3Zm-15.631-.109a.89.89,0,0,1,.1.41v7.948h7.043v-7.948a.89.89,0,0,1,.1-.41l.149-.294H385.5Zm6.777.109a1.262,1.262,0,0,0-.036.3v7.546H386.15v-7.546a1.267,1.267,0,0,0-.036-.3Zm-15.631-.109a.89.89,0,0,1,.1.41v7.948h7.043v-7.948a.89.89,0,0,1,.1-.41l.149-.294h-7.542Zm6.777.109a1.263,1.263,0,0,0-.036.3v7.546H377.3v-7.546a1.262,1.262,0,0,0-.036-.3Zm-15.631-.109a.89.89,0,0,1,.1.41v7.948h7.043v-7.948a.89.89,0,0,1,.1-.41l.149-.294h-7.542Zm6.777.109a1.265,1.265,0,0,0-.036.3v7.546h-6.238v-7.546a1.264,1.264,0,0,0-.036-.3Zm-15.631-.109a.89.89,0,0,1,.1.41v7.948h7.043v-7.948a.89.89,0,0,1,.1-.41l.149-.294h-7.542Zm6.777.109a1.263,1.263,0,0,0-.036.3v7.546h-6.238v-7.546a1.264,1.264,0,0,0-.036-.3Zm-15.631-.109a.89.89,0,0,1,.1.41v7.948h7.043v-7.948a.89.89,0,0,1,.1-.41l.149-.294h-7.542Zm6.777.109a1.263,1.263,0,0,0-.036.3v7.546h-6.238v-7.546a1.262,1.262,0,0,0-.036-.3Zm79.245,9.457h-2.4a2.22,2.22,0,0,0-2.129-1.61h-1.308v-7.546a1.258,1.258,0,0,0-.091-.473,1.205,1.205,0,0,0-.614-2.244H348.824a1.205,1.205,0,0,0-.614,2.244,1.258,1.258,0,0,0-.091.473v7.546h-1.308a2.22,2.22,0,0,0-2.129,1.61h-2.6a1.814,1.814,0,0,0-1.811,1.811V348.645a1.815,1.815,0,0,0,1.811,1.811h94.171a1.814,1.814,0,0,0,1.811-1.811V242.4A1.814,1.814,0,0,0,436.254,240.59Zm1.409,108.055a1.409,1.409,0,0,1-.919,1.32,1.351,1.351,0,0,1-.489.089H342.083a1.352,1.352,0,0,1-.489-.089,1.41,1.41,0,0,1-.92-1.32V242.4a1.41,1.41,0,0,1,1.409-1.409H345l.032-.161a1.817,1.817,0,0,1,1.775-1.449h1.71v-7.948a.9.9,0,0,1,.129-.465l.125-.207-.227-.085a.8.8,0,0,1,.276-1.557h80.891a.8.8,0,0,1,.276,1.557l-.227.085.125.207a.9.9,0,0,1,.129.465v7.948h1.71a1.817,1.817,0,0,1,1.775,1.449l.032.161h2.72a1.41,1.41,0,0,1,1.409,1.409ZM350.083,230.73l.149.294a.89.89,0,0,1,.1.41v7.948h7.043v-7.948a.89.89,0,0,1,.1-.41l.149-.294Zm6.89.7v7.546h-6.238v-7.546a1.262,1.262,0,0,0-.036-.3h6.31A1.265,1.265,0,0,0,356.973,231.434Zm1.964-.7.149.294a.89.89,0,0,1,.1.41v7.948h7.043v-7.948a.89.89,0,0,1,.1-.41l.149-.294Zm6.89.7v7.546h-6.238v-7.546a1.264,1.264,0,0,0-.036-.3h6.31a1.263,1.263,0,0,0-.036.3Zm1.964-.7.149.294a.89.89,0,0,1,.1.41v7.948h7.043v-7.948a.89.89,0,0,1,.1-.41l.149-.294Zm6.89.7v7.546h-6.238v-7.546a1.264,1.264,0,0,0-.036-.3h6.31A1.263,1.263,0,0,0,374.681,231.434Zm1.964-.7.149.294a.89.89,0,0,1,.1.41v7.948h7.043v-7.948a.89.89,0,0,1,.1-.41l.149-.294Zm6.89.7v7.546H377.3v-7.546a1.264,1.264,0,0,0-.036-.3h6.31A1.262,1.262,0,0,0,383.534,231.434Zm1.964-.7.149.294a.89.89,0,0,1,.1.41v7.948h7.043v-7.948a.89.89,0,0,1,.1-.41l.149-.294Zm6.89.7v7.546H386.15v-7.546a1.264,1.264,0,0,0-.036-.3h6.31A1.26,1.26,0,0,0,392.388,231.434Zm1.964-.7.149.294a.89.89,0,0,1,.1.41v7.948h7.043v-7.948a.89.89,0,0,1,.1-.41l.149-.294Zm6.89.7v7.546H395v-7.546a1.264,1.264,0,0,0-.036-.3h6.31a1.264,1.264,0,0,0-.036.3Zm1.964-.7.149.294a.89.89,0,0,1,.1.41v7.948H410.5v-7.948a.89.89,0,0,1,.1-.41l.149-.294Zm6.89.7v7.546h-6.238v-7.546a1.26,1.26,0,0,0-.036-.3h6.31a1.262,1.262,0,0,0-.036.3Zm1.964-.7.149.294a.89.89,0,0,1,.1.41v7.948h7.043v-7.948a.89.89,0,0,1,.1-.41l.149-.294Zm6.89.7v7.546h-6.238v-7.546a1.26,1.26,0,0,0-.036-.3h6.31a1.263,1.263,0,0,0-.036.3Zm1.964-.7.149.294a.89.89,0,0,1,.1.41v7.948h7.043v-7.948a.89.89,0,0,1,.1-.41l.149-.294Zm6.89.7v7.546h-6.238v-7.546a1.262,1.262,0,0,0-.036-.3h6.31a1.265,1.265,0,0,0-.036.3Zm-77.719-.7.149.294a.89.89,0,0,1,.1.41v7.948h7.043v-7.948a.89.89,0,0,1,.1-.41l.149-.294Zm6.89.7v7.546h-6.238v-7.546a1.262,1.262,0,0,0-.036-.3h6.31a1.265,1.265,0,0,0-.036.3Zm1.964-.7.149.294a.891.891,0,0,1,.1.41v7.948h7.043v-7.948a.89.89,0,0,1,.1-.41l.149-.294Zm6.89.7v7.546h-6.238v-7.546a1.262,1.262,0,0,0-.036-.3h6.31a1.263,1.263,0,0,0-.036.3Zm1.964-.7.149.294a.89.89,0,0,1,.1.41v7.948h7.043v-7.948a.891.891,0,0,1,.1-.41l.149-.294Zm6.89.7v7.546h-6.238v-7.546a1.264,1.264,0,0,0-.036-.3h6.31a1.263,1.263,0,0,0-.036.3Zm1.964-.7.149.294a.89.89,0,0,1,.1.41v7.948h7.043v-7.948a.89.89,0,0,1,.1-.41l.149-.294Zm6.89.7v7.546H377.3v-7.546a1.264,1.264,0,0,0-.036-.3h6.31a1.264,1.264,0,0,0-.036.3Zm1.964-.7.149.294a.889.889,0,0,1,.1.41v7.948h7.043v-7.948a.89.89,0,0,1,.1-.41l.149-.294Zm6.89.7v7.546H386.15v-7.546a1.262,1.262,0,0,0-.036-.3h6.31a1.262,1.262,0,0,0-.036.3Zm1.964-.7.149.294a.89.89,0,0,1,.1.41v7.948h7.043v-7.948a.89.89,0,0,1,.1-.41l.149-.294Zm6.89.7v7.546H395v-7.546a1.262,1.262,0,0,0-.036-.3h6.31a1.262,1.262,0,0,0-.036.3Zm1.964-.7.149.294a.89.89,0,0,1,.1.41v7.948H410.5v-7.948a.89.89,0,0,1,.1-.41l.149-.294Zm6.89.7v7.546h-6.238v-7.546a1.262,1.262,0,0,0-.036-.3h6.31a1.263,1.263,0,0,0-.036.3Zm1.964-.7.149.294a.89.89,0,0,1,.1.41v7.948h7.043v-7.948a.89.89,0,0,1,.1-.41l.149-.294Zm6.89.7v7.546h-6.238v-7.546a1.264,1.264,0,0,0-.036-.3h6.31a1.262,1.262,0,0,0-.036.3Zm1.964-.7.149.294a.89.89,0,0,1,.1.41v7.948h7.043v-7.948a.89.89,0,0,1,.1-.41l.149-.294Zm6.89.7v7.546h-6.238v-7.546a1.264,1.264,0,0,0-.036-.3h6.31a1.263,1.263,0,0,0-.036.3Zm-77.719-.7.149.294a.89.89,0,0,1,.1.41v7.948h7.043v-7.948a.89.89,0,0,1,.1-.41l.149-.294Zm6.89.7v7.546h-6.238v-7.546a1.262,1.262,0,0,0-.036-.3h6.31a1.262,1.262,0,0,0-.036.3Zm1.964-.7.149.294a.89.89,0,0,1,.1.41v7.948h7.043v-7.948a.89.89,0,0,1,.1-.41l.149-.294Zm6.89.7v7.546h-6.238v-7.546a1.264,1.264,0,0,0-.036-.3h6.31a1.265,1.265,0,0,0-.036.3Zm1.964-.7.149.294a.891.891,0,0,1,.1.41v7.948h7.043v-7.948a.89.89,0,0,1,.1-.41l.149-.294Zm6.89.7v7.546h-6.238v-7.546a1.264,1.264,0,0,0-.036-.3h6.31a1.262,1.262,0,0,0-.036.3Zm1.964-.7.149.294a.89.89,0,0,1,.1.41v7.948h7.043v-7.948a.89.89,0,0,1,.1-.41l.149-.294Zm6.89.7v7.546H377.3v-7.546a1.262,1.262,0,0,0-.036-.3h6.31a1.263,1.263,0,0,0-.036.3Zm1.964-.7.149.294a.89.89,0,0,1,.1.41v7.948h7.043v-7.948a.89.89,0,0,1,.1-.41l.149-.294Zm6.89.7v7.546H386.15v-7.546a1.262,1.262,0,0,0-.036-.3h6.31a1.263,1.263,0,0,0-.036.3Zm1.964-.7.149.294a.89.89,0,0,1,.1.41v7.948h7.043v-7.948a.89.89,0,0,1,.1-.41l.149-.294Zm6.89.7v7.546H395v-7.546a1.262,1.262,0,0,0-.036-.3h6.31a1.262,1.262,0,0,0-.036.3Zm1.964-.7.149.294a.89.89,0,0,1,.1.41v7.948H410.5v-7.948a.89.89,0,0,1,.1-.41l.149-.294Zm6.89.7v7.546h-6.238v-7.546a1.26,1.26,0,0,0-.036-.3h6.31a1.265,1.265,0,0,0-.036.3Zm1.964-.7.149.294a.89.89,0,0,1,.1.41v7.948h7.043v-7.948a.89.89,0,0,1,.1-.41l.149-.294Zm6.89.7v7.546h-6.238v-7.546a1.262,1.262,0,0,0-.036-.3h6.31a1.264,1.264,0,0,0-.036.3Zm1.964-.7.149.294a.89.89,0,0,1,.1.41v7.948h7.043v-7.948a.89.89,0,0,1,.1-.41l.149-.294Zm6.89.7v7.546h-6.238v-7.546a1.264,1.264,0,0,0-.036-.3h6.31a1.265,1.265,0,0,0-.036.3Zm-77.719-.7.149.294a.89.89,0,0,1,.1.41v7.948h7.043v-7.948a.89.89,0,0,1,.1-.41l.149-.294Zm6.89.7v7.546h-6.238v-7.546a1.26,1.26,0,0,0-.036-.3h6.31a1.263,1.263,0,0,0-.036.3Zm1.964-.7.149.294a.89.89,0,0,1,.1.41v7.948h7.043v-7.948a.89.89,0,0,1,.1-.41l.149-.294Zm6.89.7v7.546h-6.238v-7.546a1.264,1.264,0,0,0-.036-.3h6.31a1.263,1.263,0,0,0-.036.3Zm1.964-.7.149.294a.89.89,0,0,1,.1.41v7.948h7.043v-7.948a.89.89,0,0,1,.1-.41l.149-.294Zm6.89.7v7.546h-6.238v-7.546a1.262,1.262,0,0,0-.036-.3h6.31a1.262,1.262,0,0,0-.036.3Zm1.964-.7.149.294a.89.89,0,0,1,.1.41v7.948h7.043v-7.948a.89.89,0,0,1,.1-.41l.149-.294Zm6.89.7v7.546H377.3v-7.546a1.262,1.262,0,0,0-.036-.3h6.31a1.262,1.262,0,0,0-.036.3Zm1.964-.7.149.294a.891.891,0,0,1,.1.41v7.948h7.043v-7.948a.89.89,0,0,1,.1-.41l.149-.294Zm6.89.7v7.546H386.15v-7.546a1.26,1.26,0,0,0-.036-.3h6.31a1.26,1.26,0,0,0-.036.3Zm1.964-.7.149.294a.89.89,0,0,1,.1.41v7.948h7.043v-7.948a.89.89,0,0,1,.1-.41l.149-.294Zm6.89.7v7.546H395v-7.546a1.26,1.26,0,0,0-.036-.3h6.31a1.264,1.264,0,0,0-.036.3Zm1.964-.7.149.294a.89.89,0,0,1,.1.41v7.948H410.5v-7.948a.89.89,0,0,1,.1-.41l.149-.294Zm6.89.7v7.546h-6.238v-7.546a1.264,1.264,0,0,0-.036-.3h6.31a1.262,1.262,0,0,0-.036.3Zm1.964-.7.149.294a.89.89,0,0,1,.1.41v7.948h7.043v-7.948a.891.891,0,0,1,.1-.41l.149-.294Zm6.89.7v7.546h-6.238v-7.546a1.264,1.264,0,0,0-.036-.3h6.31a1.265,1.265,0,0,0-.036.3Zm1.964-.7.149.294a.89.89,0,0,1,.1.41v7.948h7.043v-7.948a.89.89,0,0,1,.1-.41l.149-.294Zm6.89.7v7.546h-6.238v-7.546a1.265,1.265,0,0,0-.036-.3h6.31a1.263,1.263,0,0,0-.036.3Z" transform="translate(-290.918 -195.718)" fill="#3f3d56"/>
    <path id="Path_238" data-name="Path 238" d="M444.34,372.98H429.5a1.18,1.18,0,0,1-1.179-1.179v-7.9a1.18,1.18,0,0,1,1.179-1.179H444.34a1.18,1.18,0,0,1,1.179,1.179v7.9A1.18,1.18,0,0,1,444.34,372.98Z" transform="translate(-361.251 -302.754)" fill="#6c63ff"/>
    <path id="Path_239" data-name="Path 239" d="M556.559,372.98H541.721a1.18,1.18,0,0,1-1.179-1.179v-7.9a1.18,1.18,0,0,1,1.179-1.179h14.839a1.18,1.18,0,0,1,1.179,1.179v7.9A1.18,1.18,0,0,1,556.559,372.98Z" transform="translate(-450.89 -302.755)" fill="#6c63ff"/>
    <path id="Path_240" data-name="Path 240" d="M668.779,372.98H653.941a1.18,1.18,0,0,1-1.179-1.179v-7.9a1.18,1.18,0,0,1,1.179-1.179h14.839a1.18,1.18,0,0,1,1.179,1.179v7.9a1.18,1.18,0,0,1-1.179,1.179Z" transform="translate(-540.529 -302.754)" fill="#6c63ff"/>
    <path id="Path_241" data-name="Path 241" d="M444.34,503.98H429.5a1.18,1.18,0,0,1-1.179-1.179v-7.9a1.18,1.18,0,0,1,1.179-1.179H444.34a1.18,1.18,0,0,1,1.179,1.179v7.9A1.18,1.18,0,0,1,444.34,503.98Z" transform="translate(-361.251 -407.395)" fill="#6c63ff"/>
    <path id="Path_242" data-name="Path 242" d="M556.559,503.98H541.721a1.18,1.18,0,0,1-1.179-1.179v-7.9a1.18,1.18,0,0,1,1.179-1.179h14.839a1.18,1.18,0,0,1,1.179,1.179v7.9A1.18,1.18,0,0,1,556.559,503.98Z" transform="translate(-450.89 -407.395)" fill="#6c63ff"/>
    <path id="Path_243" data-name="Path 243" d="M668.779,503.98H653.941a1.18,1.18,0,0,1-1.179-1.179v-7.9a1.18,1.18,0,0,1,1.179-1.179h14.839a1.18,1.18,0,0,1,1.179,1.179v7.9a1.18,1.18,0,0,1-1.179,1.179Z" transform="translate(-540.529 -407.395)" fill="#6c63ff"/>
    <path id="Path_244" data-name="Path 244" d="M444.34,634.98H429.5a1.18,1.18,0,0,1-1.179-1.179v-7.9a1.18,1.18,0,0,1,1.179-1.179H444.34a1.18,1.18,0,0,1,1.179,1.179v7.9A1.18,1.18,0,0,1,444.34,634.98Z" transform="translate(-361.251 -512.035)" fill="#6c63ff"/>
    <path id="Path_245" data-name="Path 245" d="M556.559,634.98H541.721a1.18,1.18,0,0,1-1.179-1.179v-7.9a1.18,1.18,0,0,1,1.179-1.179h14.839a1.18,1.18,0,0,1,1.179,1.179v7.9A1.18,1.18,0,0,1,556.559,634.98Z" transform="translate(-450.89 -512.035)" fill="#6c63ff"/>
    <path id="Path_246" data-name="Path 246" d="M668.779,634.98H653.941a1.18,1.18,0,0,1-1.179-1.179v-7.9a1.18,1.18,0,0,1,1.179-1.179h14.839a1.18,1.18,0,0,1,1.179,1.179v7.9a1.18,1.18,0,0,1-1.179,1.179Z" transform="translate(-540.529 -512.035)" fill="#6c63ff"/>
    <path id="Path_247" data-name="Path 247" d="M421.528,369.968h-17.19a1.569,1.569,0,0,1-1.567-1.567v-9.157a1.569,1.569,0,0,1,1.567-1.567h17.19a1.569,1.569,0,0,1,1.567,1.567V368.4A1.569,1.569,0,0,1,421.528,369.968Zm-17.19-11.888a1.166,1.166,0,0,0-1.164,1.164V368.4a1.166,1.166,0,0,0,1.164,1.164h17.19a1.166,1.166,0,0,0,1.164-1.164v-9.157a1.166,1.166,0,0,0-1.164-1.164Z" transform="translate(-340.842 -298.728)" fill="#3f3d56"/>
    <path id="Path_248" data-name="Path 248" d="M551.528,369.968h-17.19a1.569,1.569,0,0,1-1.567-1.567v-9.157a1.569,1.569,0,0,1,1.567-1.567h17.19a1.569,1.569,0,0,1,1.567,1.567V368.4A1.569,1.569,0,0,1,551.528,369.968Zm-17.19-11.888a1.166,1.166,0,0,0-1.164,1.164V368.4a1.166,1.166,0,0,0,1.164,1.164h17.19a1.166,1.166,0,0,0,1.164-1.164v-9.157a1.166,1.166,0,0,0-1.164-1.164Z" transform="translate(-444.683 -298.728)" fill="#3f3d56"/>
    <path id="Path_249" data-name="Path 249" d="M681.528,369.968h-17.19a1.569,1.569,0,0,1-1.567-1.567v-9.157a1.569,1.569,0,0,1,1.567-1.567h17.19a1.568,1.568,0,0,1,1.567,1.567V368.4A1.568,1.568,0,0,1,681.528,369.968Zm-17.19-11.888a1.166,1.166,0,0,0-1.164,1.164V368.4a1.166,1.166,0,0,0,1.164,1.164h17.19a1.166,1.166,0,0,0,1.164-1.164v-9.157a1.166,1.166,0,0,0-1.164-1.164Z" transform="translate(-548.524 -298.728)" fill="#3f3d56"/>
    <path id="Path_250" data-name="Path 250" d="M421.528,500.968h-17.19a1.569,1.569,0,0,1-1.567-1.567v-9.157a1.569,1.569,0,0,1,1.567-1.567h17.19a1.569,1.569,0,0,1,1.567,1.567V499.4A1.569,1.569,0,0,1,421.528,500.968Zm-17.19-11.888a1.166,1.166,0,0,0-1.164,1.164V499.4a1.166,1.166,0,0,0,1.164,1.164h17.19a1.166,1.166,0,0,0,1.164-1.164v-9.157a1.166,1.166,0,0,0-1.164-1.164Z" transform="translate(-340.842 -403.368)" fill="#3f3d56"/>
    <path id="Path_251" data-name="Path 251" d="M551.528,500.968h-17.19a1.569,1.569,0,0,1-1.567-1.567v-9.157a1.569,1.569,0,0,1,1.567-1.567h17.19a1.569,1.569,0,0,1,1.567,1.567V499.4A1.569,1.569,0,0,1,551.528,500.968Zm-17.19-11.888a1.166,1.166,0,0,0-1.164,1.164V499.4a1.166,1.166,0,0,0,1.164,1.164h17.19a1.166,1.166,0,0,0,1.164-1.164v-9.157a1.166,1.166,0,0,0-1.164-1.164Z" transform="translate(-444.683 -403.368)" fill="#3f3d56"/>
    <path id="Path_252" data-name="Path 252" d="M681.528,500.968h-17.19a1.569,1.569,0,0,1-1.567-1.567v-9.157a1.569,1.569,0,0,1,1.567-1.567h17.19a1.568,1.568,0,0,1,1.567,1.567V499.4A1.569,1.569,0,0,1,681.528,500.968Zm-17.19-11.888a1.166,1.166,0,0,0-1.164,1.164V499.4a1.166,1.166,0,0,0,1.164,1.164h17.19a1.166,1.166,0,0,0,1.164-1.164v-9.157a1.166,1.166,0,0,0-1.164-1.164Z" transform="translate(-548.524 -403.368)" fill="#3f3d56"/>
    <path id="Path_253" data-name="Path 253" d="M421.528,631.968h-17.19a1.569,1.569,0,0,1-1.567-1.567v-9.157a1.569,1.569,0,0,1,1.567-1.567h17.19a1.569,1.569,0,0,1,1.567,1.567V630.4A1.569,1.569,0,0,1,421.528,631.968Zm-17.19-11.888a1.166,1.166,0,0,0-1.164,1.164V630.4a1.166,1.166,0,0,0,1.164,1.164h17.19a1.166,1.166,0,0,0,1.164-1.164v-9.157a1.166,1.166,0,0,0-1.164-1.164Z" transform="translate(-340.842 -508.008)" fill="#3f3d56"/>
    <path id="Path_254" data-name="Path 254" d="M551.528,631.968h-17.19a1.569,1.569,0,0,1-1.567-1.567v-9.157a1.569,1.569,0,0,1,1.567-1.567h17.19a1.569,1.569,0,0,1,1.567,1.567V630.4A1.569,1.569,0,0,1,551.528,631.968Zm-17.19-11.888a1.166,1.166,0,0,0-1.164,1.164V630.4a1.166,1.166,0,0,0,1.164,1.164h17.19a1.166,1.166,0,0,0,1.164-1.164v-9.157a1.166,1.166,0,0,0-1.164-1.164Z" transform="translate(-444.683 -508.008)" fill="#3f3d56"/>
    <path id="Path_255" data-name="Path 255" d="M681.528,631.968h-17.19a1.569,1.569,0,0,1-1.567-1.567v-9.157a1.569,1.569,0,0,1,1.567-1.567h17.19a1.568,1.568,0,0,1,1.567,1.567V630.4A1.569,1.569,0,0,1,681.528,631.968Zm-17.19-11.888a1.166,1.166,0,0,0-1.164,1.164V630.4a1.166,1.166,0,0,0,1.164,1.164h17.19a1.166,1.166,0,0,0,1.164-1.164v-9.157a1.166,1.166,0,0,0-1.164-1.164Z" transform="translate(-548.524 -508.008)" fill="#3f3d56"/>
    <path id="Path_256" data-name="Path 256" d="M298.031,833.62H95.2a.2.2,0,1,1,0-.4h202.83a.2.2,0,1,1,0,.4Z" transform="translate(-95 -678.58)" fill="#3f3d56"/>
    <path id="Path_257" data-name="Path 257" d="M593.434,731.471a1.732,1.732,0,0,0-1.71-1.753h-8.451v20.826h10.162Z" transform="translate(-485.022 -595.907)" fill="#3f3d56"/>
    <path id="Path_258" data-name="Path 258" d="M542.336,749.944H531.772V731.13a1.914,1.914,0,0,1,1.912-1.912h8.653Zm-10.162-.4h9.759V729.62h-8.25a1.511,1.511,0,0,0-1.509,1.509Z" transform="translate(-443.885 -595.507)" fill="#3f3d56"/>
    <circle id="Ellipse_16" data-name="Ellipse 16" cx="0.604" cy="0.604" r="0.604" transform="translate(88.592 144.275)" fill="#3f3d56"/>
  </g>
</svg>
