<svg width="500" height="380" viewBox="0 0 612 458" fill="none" xmlns="http://www.w3.org/2000/svg">
<path opacity="0.3" d="M206.55 79.7836C160.849 94.0579 83.5074 117.553 70.8696 178.467C61.4142 224.069 65.79 343.164 151.96 372.262C267.872 411.437 467.782 392.353 511.02 304.494C538.789 248.099 546.21 134.347 461.188 100.317C403.583 77.2646 304.699 49.2197 206.55 79.7836Z" fill="#787EFF" fill-opacity="0.28"/>
<path d="M297.799 144.621H289.568V212.314H297.799V144.621Z" fill="#787EFF" fill-opacity="0.28"/>
<path d="M438.321 132.966L411.411 186.962L418.782 190.619L445.691 136.624L438.321 132.966Z" fill="#787EFF" fill-opacity="0.28"/>
<path d="M322.569 268.465L317.344 274.812L385.597 330.753L390.822 324.406L322.569 268.465Z" fill="#787EFF" fill-opacity="0.28"/>
<path d="M394.526 329.455C394.887 328.906 395.093 328.271 395.123 327.615C395.152 326.96 395.004 326.308 394.694 325.73L387.335 329.394C385.438 325.607 388.865 322.997 397.004 316.676C401.763 313.012 408.464 308.066 416.894 301.99C431.261 291.654 445.964 281.487 446.102 281.38L450.799 288.128C429.134 303.15 397.341 325.897 394.526 329.455Z" fill="#787EFF" fill-opacity="0.28"/>
<path d="M327.42 241.335L324.528 233.641L411.463 200.97L512.458 195.902L512.887 204.115L413.161 209.123L327.42 241.335Z" fill="#787EFF" fill-opacity="0.28"/>
<path d="M252.588 277.075L188.116 317.477L192.494 324.433L256.966 284.03L252.588 277.075Z" fill="#787EFF" fill-opacity="0.28"/>
<path d="M217.207 188.952L211.041 194.393L251.686 240.251L257.852 234.81L217.207 188.952Z" fill="#787EFF" fill-opacity="0.28"/>
<path d="M106.519 252.037L102.525 244.847L180.525 201.718L96.4207 138.118L101.393 131.568L195.58 202.787L106.519 252.037Z" fill="#787EFF" fill-opacity="0.28"/>
<path d="M343.592 251.152C343.597 242.256 341.416 233.495 337.24 225.636C333.064 217.777 327.02 211.059 319.639 206.071C312.257 201.083 303.762 197.977 294.898 197.025C286.035 196.073 277.072 197.304 268.796 200.61C260.519 203.917 253.182 209.197 247.425 215.99C241.669 222.783 237.669 230.88 235.776 239.573C233.884 248.265 234.156 257.289 236.57 265.852C238.983 274.416 243.464 282.258 249.619 288.693C257.351 296.919 261.619 307.796 261.538 319.073V320.936H315.501V319.562C315.606 308.123 320.166 297.173 328.216 289.029C338.101 278.891 343.619 265.296 343.592 251.152Z" fill="#FFD200"/>
<path d="M274.421 321.073C273.98 321.074 273.553 320.923 273.213 320.644C272.872 320.366 272.639 319.978 272.554 319.547L261.156 250.709C261.115 250.464 261.122 250.212 261.178 249.97C261.234 249.727 261.338 249.498 261.483 249.295C261.628 249.092 261.811 248.92 262.023 248.788C262.235 248.656 262.47 248.567 262.716 248.526C262.962 248.485 263.214 248.493 263.457 248.549C263.701 248.605 263.93 248.708 264.133 248.852C264.337 248.997 264.509 249.18 264.642 249.391C264.774 249.603 264.863 249.838 264.904 250.083L276.303 318.921C276.383 319.412 276.268 319.915 275.983 320.323C275.697 320.73 275.263 321.011 274.773 321.104L274.421 321.073Z" fill="white"/>
<path d="M302.94 321.073H302.619C302.129 320.98 301.695 320.7 301.409 320.292C301.123 319.884 301.008 319.381 301.089 318.89L312.487 250.053C312.57 249.557 312.848 249.114 313.258 248.822C313.668 248.53 314.178 248.412 314.675 248.495C315.172 248.579 315.616 248.855 315.908 249.265C316.201 249.674 316.319 250.183 316.236 250.679L304.837 319.516C304.757 319.958 304.523 320.357 304.175 320.642C303.828 320.928 303.39 321.08 302.94 321.073Z" fill="white"/>
<path d="M319.938 312.585H258.172V361.24H319.938V312.585Z" fill="#24285B"/>
<path d="M294.663 264.617C292.261 264.617 289.935 263.182 287.732 260.327C286.844 259.167 285.972 258.633 285.161 258.694C283.325 258.862 281.245 261.823 280.571 263.274C280.342 263.721 279.944 264.059 279.465 264.214C278.986 264.369 278.465 264.327 278.016 264.098C277.568 263.869 277.229 263.472 277.074 262.994C276.919 262.516 276.961 261.996 277.19 261.549C277.511 260.923 280.464 255.35 284.84 254.953C286.012 254.89 287.18 255.14 288.223 255.677C289.267 256.213 290.148 257.018 290.777 258.007C291.832 259.365 293.408 260.968 294.923 260.8C296.682 260.617 298.228 258.205 298.625 257.381C298.852 256.947 299.239 256.617 299.704 256.462C300.168 256.306 300.676 256.336 301.119 256.545C301.562 256.754 301.907 257.127 302.081 257.584C302.255 258.042 302.245 258.549 302.053 258.999C301.808 259.518 299.513 264.129 295.336 264.571L294.663 264.617Z" fill="white"/>
<path opacity="0.21" d="M323.692 227.998C326.599 221.307 321.999 212.873 313.417 209.16C304.835 205.447 295.521 207.861 292.613 214.553C289.706 221.244 294.306 229.679 302.888 233.392C311.47 237.104 320.784 234.69 323.692 227.998Z" fill="white"/>
<path d="M268.331 361.24H309.81C309.81 363.732 309.318 366.2 308.362 368.502C307.406 370.804 306.005 372.896 304.239 374.658C302.474 376.42 300.377 377.818 298.07 378.772C295.762 379.726 293.289 380.216 290.792 380.216H287.349C282.305 380.216 277.468 378.217 273.902 374.658C270.335 371.099 268.331 366.273 268.331 361.24Z" fill="#24285B"/>
<path d="M212.441 159.17H163.679C157.173 159.17 151.898 164.433 151.898 170.926V219.58C151.898 226.073 157.173 231.336 163.679 231.336H212.441C218.947 231.336 224.222 226.073 224.222 219.58V170.926C224.222 164.433 218.947 159.17 212.441 159.17Z" fill="#787EFF"/>
<path d="M436.693 172.635H387.932C381.425 172.635 376.151 177.899 376.151 184.391V233.046C376.151 239.538 381.425 244.801 387.932 244.801H436.693C443.199 244.801 448.474 239.538 448.474 233.046V184.391C448.474 177.899 443.199 172.635 436.693 172.635Z" fill="#787EFF"/>
<path opacity="0.09" d="M436.693 172.635H387.932C381.425 172.635 376.151 177.899 376.151 184.391V233.046C376.151 239.538 381.425 244.801 387.932 244.801H436.693C443.199 244.801 448.474 239.538 448.474 233.046V184.391C448.474 177.899 443.199 172.635 436.693 172.635Z" fill="#787EFF" fill-opacity="0.28"/>
<path d="M202.343 280.571H153.581C147.075 280.571 141.8 285.834 141.8 292.326V340.981C141.8 347.473 147.075 352.736 153.581 352.736H202.343C208.849 352.736 214.124 347.473 214.124 340.981V292.326C214.124 285.834 208.849 280.571 202.343 280.571Z" fill="#787EFF"/>
<path opacity="0.6" d="M202.343 280.571H153.581C147.075 280.571 141.8 285.834 141.8 292.326V340.981C141.8 347.473 147.075 352.736 153.581 352.736H202.343C208.849 352.736 214.124 347.473 214.124 340.981V292.326C214.124 285.834 208.849 280.571 202.343 280.571Z" fill="white"/>
<path d="M408.923 301.059H373.106C368.332 301.059 364.461 304.92 364.461 309.684V345.424C364.461 350.187 368.332 354.049 373.106 354.049H408.923C413.697 354.049 417.568 350.187 417.568 345.424V309.684C417.568 304.92 413.697 301.059 408.923 301.059Z" fill="#787EFF"/>
<path d="M317.567 99.5081H269.816C263.453 99.5081 258.295 104.655 258.295 111.004V158.651C258.295 165 263.453 170.147 269.816 170.147H317.567C323.93 170.147 329.088 165 329.088 158.651V111.004C329.088 104.655 323.93 99.5081 317.567 99.5081Z" fill="#787EFF"/>
<path opacity="0.46" d="M317.567 99.5081H269.816C263.453 99.5081 258.295 104.655 258.295 111.004V158.651C258.295 165 263.453 170.147 269.816 170.147H317.567C323.93 170.147 329.088 165 329.088 158.651V111.004C329.088 104.655 323.93 99.5081 317.567 99.5081Z" fill="white"/>
<path d="M113.235 110.912H83.3544C79.3744 110.912 76.1481 114.132 76.1481 118.103V147.919C76.1481 151.89 79.3744 155.109 83.3544 155.109H113.235C117.215 155.109 120.442 151.89 120.442 147.919V118.103C120.442 114.132 117.215 110.912 113.235 110.912Z" fill="#787EFF"/>
<path opacity="0.46" d="M113.235 110.912H83.3544C79.3744 110.912 76.1481 114.132 76.1481 118.103V147.919C76.1481 151.89 79.3744 155.109 83.3544 155.109H113.235C117.215 155.109 120.442 151.89 120.442 147.919V118.103C120.442 114.132 117.215 110.912 113.235 110.912Z" fill="white"/>
<path d="M114.582 233.534H94.4469C91.7599 233.534 89.5815 235.708 89.5815 238.389V258.48C89.5815 261.161 91.7599 263.335 94.4469 263.335H114.582C117.269 263.335 119.447 261.161 119.447 258.48V238.389C119.447 235.708 117.269 233.534 114.582 233.534Z" fill="#787EFF"/>
<path opacity="0.09" d="M114.582 233.534H94.4469C91.7599 233.534 89.5815 235.708 89.5815 238.389V258.48C89.5815 261.161 91.7599 263.335 94.4469 263.335H114.582C117.269 263.335 119.447 261.161 119.447 258.48V238.389C119.447 235.708 117.269 233.534 114.582 233.534Z" fill="#787EFF" fill-opacity="0.28"/>
<path d="M455.236 265.671H435.101C432.414 265.671 430.236 267.844 430.236 270.525V290.616C430.236 293.297 432.414 295.471 435.101 295.471H455.236C457.923 295.471 460.102 293.297 460.102 290.616V270.525C460.102 267.844 457.923 265.671 455.236 265.671Z" fill="#787EFF"/>
<path opacity="0.6" d="M455.236 265.671H435.101C432.414 265.671 430.236 267.844 430.236 270.525V290.616C430.236 293.297 432.414 295.471 435.101 295.471H455.236C457.923 295.471 460.102 293.297 460.102 290.616V270.525C460.102 267.844 457.923 265.671 455.236 265.671Z" fill="white"/>
<path d="M446.974 119.935H426.839C424.152 119.935 421.974 122.109 421.974 124.79V144.881C421.974 147.562 424.152 149.735 426.839 149.735H446.974C449.661 149.735 451.84 147.562 451.84 144.881V124.79C451.84 122.109 449.661 119.935 446.974 119.935Z" fill="#787EFF"/>
<path opacity="0.6" d="M446.974 119.935H426.839C424.152 119.935 421.974 122.109 421.974 124.79V144.881C421.974 147.562 424.152 149.735 426.839 149.735H446.974C449.661 149.735 451.84 147.562 451.84 144.881V124.79C451.84 122.109 449.661 119.935 446.974 119.935Z" fill="white"/>
<path d="M527.544 171.307H493.165C488.577 171.307 484.857 175.019 484.857 179.597V213.901C484.857 218.48 488.577 222.191 493.165 222.191H527.544C532.132 222.191 535.852 218.48 535.852 213.901V179.597C535.852 175.019 532.132 171.307 527.544 171.307Z" fill="#787EFF"/>
<path d="M230.097 100.394H195.58V134.835H230.097V100.394Z" fill="#787EFF" fill-opacity="0.28"/>
<path d="M390.823 126.561H365.135V145.598H390.823V126.561Z" fill="#787EFF" fill-opacity="0.28"/>
</svg>
