<svg xmlns="http://www.w3.org/2000/svg" xmlns:xlink="http://www.w3.org/1999/xlink" width="542.318" height="383.973" viewBox="0 0 542.318 383.973">
  <defs>
    <linearGradient id="linear-gradient" x1="0.5" y1="1" x2="0.5" gradientUnits="objectBoundingBox">
      <stop offset="0" stop-color="gray" stop-opacity="0.251"/>
      <stop offset="0.54" stop-color="gray" stop-opacity="0.122"/>
      <stop offset="1" stop-color="gray" stop-opacity="0.102"/>
    </linearGradient>
    <linearGradient id="linear-gradient-2" x1="0.5" y1="1" x2="0.5" y2="0" xlink:href="#linear-gradient"/>
  </defs>
  <g id="Group_5" data-name="Group 5" transform="translate(0.005 0.006)">
    <ellipse id="Ellipse_4" data-name="Ellipse 4" cx="47.799" cy="7.677" rx="47.799" ry="7.677" transform="translate(132.663 368.397)" fill="#6c63ff" opacity="0.1"/>
    <ellipse id="Ellipse_5" data-name="Ellipse 5" cx="59.645" cy="7.677" rx="59.645" ry="7.677" transform="translate(380.643 368.613)" fill="#6c63ff" opacity="0.1"/>
    <path id="Path_92" data-name="Path 92" d="M60.02,396.83h49.786v67.857H63.665c-.123.7-.24,1.4-.368,2.1h46.509v54.725c-.083-.025-.157-.054-.235-.083-1.315-.52-2.62-1.069-3.924-1.658l-.834-.378q-1.962-.927-3.924-1.962c-.456-.24-.912-.491-1.364-.746A81.637,81.637,0,0,1,79.961,501.4c-.167-.162-.324-.334-.491-.491-.795-.863-1.575-1.737-2.33-2.629l-.834-.981c-.893-1.094-1.756-2.217-2.595-3.355-.123-.167-.24-.334-.368-.491A73.032,73.032,0,0,1,64.906,478.2c-.069-.162-.128-.338-.191-.491q-1.011-2.6-1.79-5.249c-.226-.741-.441-1.472-.628-2.242-.069-.226-.128-.446-.182-.667C59.329,458.673,59,447.376,59,436.157v-3.924c0-4.538.054-9.1.132-13.667,0-1.182.049-2.36.074-3.547q.1-4.518.294-9.036c.029-.839.069-1.673.113-2.507a14.2,14.2,0,0,1,.074-1.442C59.8,400.288,59.9,398.557,60.02,396.83Z" transform="translate(-52.987 -230.931)" fill="#6c63ff" opacity="0.1"/>
    <path id="Path_93" data-name="Path 93" d="M134.209,206.965H106.9a207.015,207.015,0,0,1,14.525-19.995c4.057-4.984,8.339-9.84,12.784-14.52Z" transform="translate(-77.389 -116.619)" fill="#6c63ff" opacity="0.1"/>
    <path id="Path_94" data-name="Path 94" d="M111.029,247.09v71.355H61.4c0-.206.034-.417.049-.623.044-.564.088-1.128.137-1.687.054-.657.113-1.32.177-1.962s.132-1.427.206-2.139.142-1.432.226-2.144.157-1.423.245-2.129.167-1.423.26-2.129c.074-.589.152-1.172.231-1.761.113-.829.231-1.663.358-2.487a2.293,2.293,0,0,1,.054-.368A169.677,169.677,0,0,1,67,283.1a132.486,132.486,0,0,1,6.156-18.15,136.252,136.252,0,0,1,9.262-17.836Z" transform="translate(-54.209 -154.645)" fill="#6c63ff" opacity="0.1"/>
    <path id="Path_95" data-name="Path 95" d="M186.8,224.525v67.862H293.136V224.525Zm0,69.957v58.277c.608.128,1.212.25,1.81.353.814.157,1.624.3,2.453.422.157.025.319.049.491.064.324.054.657.1.981.142.819.113,1.634.206,2.453.28.388.039.78.074,1.172.1l.947.074h0c.515.039,1.025.069,1.53.083.314,0,.628.029.952.039h3.5c.422,0,.844,0,1.261-.039h.029a6.607,6.607,0,0,0,.878-.039,2.055,2.055,0,0,0,.245,0,5.072,5.072,0,0,0,.726-.034h.172l1.643-.128c.54-.049,1.084-.113,1.634-.172l1.118-.132a97.844,97.844,0,0,0,13.465-2.865c9.919-2.767,19.622-6.637,29.536-9.472,12.818-3.655,26.98-5.45,39.366-.981V294.481ZM293.136,148.976V58.632a136.7,136.7,0,0,0-34.549,4.052C231.66,69.448,207.5,84.12,186.8,102.859v46.111h5.337v2.095H186.8V222.43H293.136V151.07H214.05v-2.095Zm136.583-30.517a44.044,44.044,0,0,1-19.273-5.6c-11.454-6.23-20.6-15.85-30.826-23.968a141.531,141.531,0,0,0-74.607-29.644v89.731h151.8l.378-.4Zm13.828-2.453,14.662,16.09V111.787c-4.91.608-9.212,2.055-14.643,4.2Zm14.662,251.223V294.481H426.966c-.083-.309-.167-.623-.265-.937.093.314.172.628.26.937H305.031v52.611c1.158.858,2.3,1.761,3.434,2.678h0c1.221.981,2.428,2.016,3.64,3.032l1.221,1.011c.584.491,1.172.981,1.766,1.442q1.766,1.432,3.566,2.826c.594.491,1.2.932,1.805,1.393A245.868,245.868,0,0,0,350.7,379.248q3.547,1.962,7.157,3.831c1.6.819,3.218,1.634,4.837,2.423q3.65,1.781,7.358,3.434h0a270.213,270.213,0,0,0,71.62,20.863q8.236,1.217,16.536,1.913V367.224h.491ZM305.031,151.07v71.36h153.2V151.07Zm0,73.454v67.862h153.2V224.525ZM470.12,111.7v22.653l18.714-20.534q-9.3-1.5-18.714-2.144Zm0,112.85v67.838h149V224.525ZM618.579,372.616l.525-78.134H470.12V412.492a267.2,267.2,0,0,0,28.8-.343h.167q6.868-.432,13.672-1.256h.1A251.768,251.768,0,0,0,583.1,392.149M647.854,235.7c-.559-1.32-1.143-2.629-1.737-3.924-1.109-2.453-2.281-4.837-3.488-7.221H631v67.833H660.4c-.015-19.21-4.876-38.832-12.529-56.712ZM631,294.506v67.2a96.272,96.272,0,0,0,20.314-27.4,94.184,94.184,0,0,0,9.055-39.818Zm0-89.731v17.66h10.537a191.3,191.3,0,0,0-10.522-17.684ZM529.952,125.012c-.775-.294-1.55-.594-2.33-.883a212.709,212.709,0,0,0-25.17-7.564l-28.638,31.429h0l-.549.584.368.4H575.558a218,218,0,0,0-45.591-23.993Zm48.594,26.082H472.209l-2.09,1.913V222.43H619.143V188.8A212.308,212.308,0,0,0,578.56,151.07Z" transform="translate(-118.095 -58.63)" fill="#6c63ff" opacity="0.1"/>
    <path id="Path_96" data-name="Path 96" d="M111.029,320.46v35.363H61.4c0-.206.034-.417.049-.623.044-.564.088-1.128.137-1.687.054-.657.113-1.32.177-1.962s.132-1.427.206-2.139.142-1.432.226-2.144.157-1.423.245-2.129.167-1.423.26-2.129c.074-.589.152-1.172.231-1.761.113-.829.231-1.663.358-2.487a2.293,2.293,0,0,1,.054-.368A169.677,169.677,0,0,1,67,320.48Z" transform="translate(-54.209 -192.024)" fill="#6c63ff" opacity="0.1"/>
    <path id="Path_97" data-name="Path 97" d="M60.02,396.83h49.786v67.857H63.665c-.123.7-.24,1.4-.368,2.1h46.509v54.725c-.083-.025-.157-.054-.235-.083-1.315-.52-2.62-1.069-3.924-1.658l-.834-.378q-1.962-.927-3.924-1.962c-.456-.24-.912-.491-1.364-.746A81.637,81.637,0,0,1,79.961,501.4c-.167-.162-.324-.334-.491-.491-.795-.863-1.575-1.737-2.33-2.629l-.834-.981c-.893-1.094-1.756-2.217-2.595-3.355-.123-.167-.24-.334-.368-.491A73.032,73.032,0,0,1,64.906,478.2c-.069-.162-.128-.338-.191-.491q-1.011-2.6-1.79-5.249c-.226-.741-.441-1.472-.628-2.242-.069-.226-.128-.446-.182-.667C59.329,458.673,59,447.376,59,436.157v-3.924c0-4.538.054-9.1.132-13.667,0-1.182.049-2.36.074-3.547q.1-4.518.294-9.036c.029-.839.069-1.673.113-2.507a14.2,14.2,0,0,1,.074-1.442C59.8,400.288,59.9,398.557,60.02,396.83Z" transform="translate(-52.987 -230.931)" fill="#6c63ff" opacity="0.1"/>
    <path id="Path_98" data-name="Path 98" d="M176.994,187.781v61.142H139.56V187.781H144.9v-20.7H166.8v20.7Z" transform="translate(-70.855 -85.123)" fill="#6c63ff" opacity="0.1"/>
    <rect id="Rectangle_2" data-name="Rectangle 2" width="37.429" height="67.857" transform="translate(68.71 165.895)" fill="#6c63ff" opacity="0.1"/>
    <path id="Path_99" data-name="Path 99" d="M186.8,539.44h37.434v56.413a97.668,97.668,0,0,1-13.465,2.86l-1.118.137c-.549.064-1.094.118-1.634.172s-1.1.093-1.643.128H206.2c-.235,0-.491.029-.721.034h-.25c-.294,0-.589.029-.883.039h0c-.417.024-.834.029-1.261.034h-3.473l-.947-.034c-.491,0-1.02-.054-1.53-.088h0l-.942-.069-1.172-.108c-.824-.074-1.643-.167-2.453-.28l-.981-.137-.491-.069c-.819-.128-1.629-.265-2.453-.422-.6-.1-1.2-.23-1.81-.353Z" transform="translate(-118.095 -303.584)" fill="#6c63ff" opacity="0.1"/>
    <rect id="Rectangle_3" data-name="Rectangle 3" width="30.865" height="68.358" transform="translate(309.269 95.437)" fill="#6c63ff" opacity="0.1"/>
    <path id="Path_100" data-name="Path 100" d="M533.782,338.19v67.862H380.58V376.781h81.6v17.267h40.73V338.19Z" transform="translate(-193.643 -172.295)" fill="#6c63ff" opacity="0.1"/>
    <path id="Path_101" data-name="Path 101" d="M581.508,611.225h-.491v44.517q-8.29-.7-16.531-1.908a270.227,270.227,0,0,1-71.649-20.907q-9.875-4.444-19.347-9.7a246.873,246.873,0,0,1-30.237-19.774q-3.61-2.767-7.128-5.661c-1.624-1.339-3.238-2.713-4.871-4.047-1.133-.917-2.276-1.82-3.434-2.683V538.467H549.745c-.083-.314-.167-.628-.255-.937.093.309.182.623.265.937h31.262V611.2C581.184,611.2,581.346,611.215,581.508,611.225Z" transform="translate(-240.883 -302.611)" fill="#6c63ff" opacity="0.1"/>
    <path id="Path_102" data-name="Path 102" d="M883.332,216.986H863.22v-6.25h9.016V192.12q1.172.427,2.335.878v17.738h8.761Z" transform="translate(-462.7 -126.64)" fill="#6c63ff" opacity="0.1"/>
    <path id="Path_103" data-name="Path 103" d="M881.424,318.445H782.687l.034.025-.044-.025H764.36V250.087h5.19v50.526h23.718V270.69H812.86v-23.6h20.112v23.62h19.592v29.923h28.859Z" transform="translate(-412.335 -154.645)" fill="#6c63ff" opacity="0.1"/>
    <path id="Path_104" data-name="Path 104" d="M764.36,396.82v67.862H881.424V396.82ZM913.2,544.563l.162-53.715H881.424V466.811H764.36V584.787a267.2,267.2,0,0,0,28.8-.343h.167q6.868-.432,13.672-1.256h.1a251.768,251.768,0,0,0,70.246-18.744" transform="translate(-412.335 -230.925)" fill="#6c63ff" opacity="0.1"/>
    <path id="Path_105" data-name="Path 105" d="M1094.43,539.44h27.309a94.481,94.481,0,0,1-9.06,39.813,96.3,96.3,0,0,1-20.309,27.4V563.482h2.06Z" transform="translate(-579.441 -303.584)" fill="#6c63ff" opacity="0.1"/>
    <path id="Path_106" data-name="Path 106" d="M1123.893,476.262H1096.57V419.55h14.785C1119.008,437.43,1123.869,457.052,1123.893,476.262Z" transform="translate(-581.581 -242.505)" fill="#6c63ff" opacity="0.1"/>
    <rect id="Rectangle_4" data-name="Rectangle 4" width="16.536" height="21.432" transform="translate(323.603 114.441)" fill="#6c63ff" opacity="0.1"/>
    <rect id="Rectangle_5" data-name="Rectangle 5" width="16.536" height="4.935" transform="translate(323.603 158.865)" fill="#6c63ff" opacity="0.1"/>
    <rect id="Rectangle_6" data-name="Rectangle 6" width="16.536" height="14.398" transform="translate(323.603 165.895)" fill="#6c63ff" opacity="0.1"/>
    <rect id="Rectangle_7" data-name="Rectangle 7" width="16.536" height="21.432" transform="translate(323.603 203.289)" fill="#6c63ff" opacity="0.1"/>
    <rect id="Rectangle_8" data-name="Rectangle 8" width="16.536" height="21.432" transform="translate(323.603 247.713)" fill="#6c63ff" opacity="0.1"/>
    <path id="Path_107" data-name="Path 107" d="M722.951,670.618a2.714,2.714,0,0,1,.491.029h-.491v4.979H706.42V654.17h16.531Z" transform="translate(-382.817 -362.033)" fill="#6c63ff" opacity="0.1"/>
    <path id="Path_108" data-name="Path 108" d="M722.951,744.71v16.556q-8.29-.7-16.531-1.908V744.71Z" transform="translate(-382.817 -408.159)" fill="#6c63ff" opacity="0.1"/>
    <rect id="Rectangle_9" data-name="Rectangle 9" width="70.869" height="1.575" transform="translate(186.937 232.182)" fill="#6c63ff" opacity="0.1"/>
    <rect id="Rectangle_10" data-name="Rectangle 10" width="70.869" height="6.034" transform="translate(186.937 235.851)" fill="#6c63ff" opacity="0.1"/>
    <rect id="Rectangle_11" data-name="Rectangle 11" width="70.869" height="9.703" transform="translate(186.937 261.664)" fill="#6c63ff" opacity="0.1"/>
    <path id="Path_109" data-name="Path 109" d="M502.245,652.15v9.7H446.814q-3.61-2.757-7.133-5.661c-1.624-1.339-3.233-2.713-4.871-4.042Z" transform="translate(-244.445 -361.004)" fill="#6c63ff" opacity="0.1"/>
    <path id="Path_110" data-name="Path 110" d="M546.114,712.225v9.693h-5.852q-9.865-4.449-19.342-9.708Z" transform="translate(-288.314 -391.602)" fill="#6c63ff" opacity="0.1"/>
    <rect id="Rectangle_12" data-name="Rectangle 12" width="13.951" height="13.951" transform="translate(380.825 172.473)" fill="#6c63ff" opacity="0.1"/>
    <rect id="Rectangle_13" data-name="Rectangle 13" width="13.951" height="13.951" transform="translate(78.756 107.47)" fill="#6c63ff" opacity="0.1"/>
    <rect id="Rectangle_14" data-name="Rectangle 14" width="13.951" height="13.951" transform="translate(78.756 139.876)" fill="#6c63ff" opacity="0.1"/>
    <rect id="Rectangle_15" data-name="Rectangle 15" width="13.951" height="13.951" transform="translate(78.756 172.281)" fill="#6c63ff" opacity="0.1"/>
    <rect id="Rectangle_16" data-name="Rectangle 16" width="13.951" height="13.951" transform="translate(78.756 204.682)" fill="#6c63ff" opacity="0.1"/>
    <rect id="Rectangle_17" data-name="Rectangle 17" width="13.951" height="13.951" transform="translate(78.756 237.087)" fill="#6c63ff" opacity="0.1"/>
    <rect id="Rectangle_18" data-name="Rectangle 18" width="13.951" height="13.951" transform="translate(78.756 269.493)" fill="#6c63ff" opacity="0.1"/>
    <rect id="Rectangle_19" data-name="Rectangle 19" width="13.951" height="13.951" transform="translate(434.083 172.473)" fill="#6c63ff" opacity="0.1"/>
    <rect id="Rectangle_20" data-name="Rectangle 20" width="13.951" height="13.951" transform="translate(380.825 206.885)" fill="#6c63ff" opacity="0.1"/>
    <rect id="Rectangle_21" data-name="Rectangle 21" width="13.951" height="13.951" transform="translate(434.083 206.885)" fill="#6c63ff" opacity="0.1"/>
    <rect id="Rectangle_22" data-name="Rectangle 22" width="13.951" height="13.951" transform="translate(380.825 241.291)" fill="#6c63ff" opacity="0.1"/>
    <rect id="Rectangle_23" data-name="Rectangle 23" width="13.951" height="13.951" transform="translate(434.083 241.291)" fill="#6c63ff" opacity="0.1"/>
    <rect id="Rectangle_24" data-name="Rectangle 24" width="13.951" height="13.951" transform="translate(380.825 275.703)" fill="#6c63ff" opacity="0.1"/>
    <rect id="Rectangle_25" data-name="Rectangle 25" width="13.951" height="13.951" transform="translate(434.083 275.703)" fill="#6c63ff" opacity="0.1"/>
    <rect id="Rectangle_26" data-name="Rectangle 26" width="13.951" height="13.951" transform="translate(380.825 310.115)" fill="#6c63ff" opacity="0.1"/>
    <rect id="Rectangle_27" data-name="Rectangle 27" width="13.951" height="13.951" transform="translate(434.083 310.115)" fill="#6c63ff" opacity="0.1"/>
    <path id="Path_111" data-name="Path 111" d="M775.83,711.327v-9h13.946v7.716Z" transform="translate(-395.005 -357.808)" fill="#6c63ff" opacity="0.1"/>
    <path id="Path_112" data-name="Path 112" d="M65.24,357v7.981h47.745V357ZM70,364.481H66.1v-6.99h3.924Zm4.753,0H70.827v-6.99h3.924Zm4.744,0H75.571v-6.99H79.5Zm4.753,0H80.329v-6.99h3.924Zm4.748,0H85.073v-6.99H89Zm4.753,0H89.826v-6.99h3.924Zm4.753,0H94.58v-6.99H98.5Zm4.748,0H99.328v-6.99h3.924Zm4.748,0h-3.924v-6.99H108Zm4.748,0h-3.924v-6.99h3.924Z" transform="translate(-56.166 -210.639)" fill="#6c63ff" opacity="0.1"/>
    <path id="Path_113" data-name="Path 113" d="M65.24,404.34v7.981h47.745V404.34ZM70,411.816H66.1v-6.971h3.924Zm4.753,0H70.827v-6.971h3.924Zm4.744,0H75.571v-6.971H79.5Zm4.753,0H80.329v-6.971h3.924Zm4.748,0H85.073v-6.971H89Zm4.753,0H89.826v-6.971h3.924Zm4.753,0H94.58v-6.971H98.5Zm4.748,0H99.328v-6.971h3.924Zm4.748,0h-3.924v-6.971H108Zm4.748,0h-3.924v-6.971h3.924Z" transform="translate(-56.166 -234.757)" fill="#6c63ff" opacity="0.1"/>
    <path id="Path_114" data-name="Path 114" d="M65.24,451.7v8h47.745v-8ZM70,459.176H66.1V452.2h3.924Zm4.753,0H70.827V452.2h3.924Zm4.744,0H75.571V452.2H79.5Zm4.753,0H80.329V452.2h3.924Zm4.748,0H85.073V452.2H89Zm4.753,0H89.826V452.2h3.924Zm4.753,0H94.58V452.2H98.5Zm4.748,0H99.328V452.2h3.924Zm4.748,0h-3.924V452.2H108Zm4.748,0h-3.924V452.2h3.924Z" transform="translate(-56.166 -258.884)" fill="#6c63ff" opacity="0.1"/>
    <path id="Path_115" data-name="Path 115" d="M65.24,499.06v7.971h47.745V499.06ZM70,506.536H66.1v-6.98h3.924Zm4.753,0H70.827v-6.98h3.924Zm4.744,0H75.571v-6.98H79.5Zm4.753,0H80.329v-6.98h3.924Zm4.748,0H85.073v-6.98H89Zm4.753,0H89.826v-6.98h3.924Zm4.753,0H94.58v-6.98H98.5Zm4.748,0H99.328v-6.98h3.924Zm4.748,0h-3.924v-6.98H108Zm4.748,0h-3.924v-6.98h3.924Z" transform="translate(-56.166 -283.012)" fill="#6c63ff" opacity="0.1"/>
    <path id="Path_116" data-name="Path 116" d="M65.66,546.41c.191.751.407,1.5.633,2.242V546.91h3.924v6.976h-2.1c.064.162.128.339.191.491H113.2V546.41Zm9.32,7.476H71.056V546.91H74.98Zm4.744,0H75.8V546.91h3.924Zm4.753,0H80.543V546.91h3.924Zm4.748,0H85.3V546.91h3.924Zm4.753,0H90.055V546.91h3.924Zm4.753,0H94.808V546.91h3.924Zm4.748,0H99.557V546.91h3.924Zm4.748,0h-3.924V546.91h3.924Zm4.748,0h-3.924V546.91h3.924Z" transform="translate(-56.38 -307.135)" fill="#6c63ff" opacity="0.1"/>
    <path id="Path_117" data-name="Path 117" d="M88.26,593.77c.123.157.24.334.368.491h2.595v3.35c.28.334.554.667.839.981v-4.351h3.924v7H94.4c.157.162.309.334.491.491h29.84V593.77Zm12.465,7.471H96.8V594.27h3.924Zm4.753,0h-3.924V594.27h3.924Zm4.753,0h-3.924V594.27h3.924Zm4.748,0h-3.924V594.27h3.924Zm4.748,0H115.8V594.27h3.924Zm4.748,0h-3.924V594.27h3.924Z" transform="translate(-67.893 -331.262)" fill="#6c63ff" opacity="0.1"/>
    <path id="Path_118" data-name="Path 118" d="M141.65,641.12c.446.255.9.491,1.364.746v-.245h3.924v2.207l.834.388V641.62H151.7v4.243a1.232,1.232,0,0,0,.235.088V641.12Z" transform="translate(-95.093 -355.385)" fill="#6c63ff" opacity="0.1"/>
    <path id="Path_119" data-name="Path 119" d="M494.01,316.249Zm-30.218,144.78Zm-31.527-73.665c.093.314.172.628.26.937h0C432.446,387.991,432.363,387.677,432.265,387.364Zm61.745-71.129ZM197.72,242.78v2.095h21.913V242.78ZM463.792,461.029Zm-31.527-73.665c.093.314.172.628.26.937h0C432.446,387.991,432.363,387.677,432.265,387.364Zm61.745-71.129Zm-30.218,144.78Zm-31.527-73.651c.093.314.172.628.26.937h0C432.446,387.991,432.363,387.677,432.265,387.364Z" transform="translate(-123.658 -152.449)" fill="#6c63ff" opacity="0.1"/>
    <path id="Path_120" data-name="Path 120" d="M400.214,326.148s-1.933-.27-1.933-3.086a44.111,44.111,0,0,0-1.383-8.074h0c0-.025-1.2-9.159-2.85-10.611s-3.777-9.978-3.777-9.978-.363-4.626-1.1-5.622a47.76,47.76,0,0,1-3.218-6.912c-1.477-3.478-7.633-5.887-7.633-5.887s-11.13-6.456-14.285-8.56h0a4.837,4.837,0,0,1-.8-.6c-.549-.721-2.943-.736-2.943-.736a48.229,48.229,0,0,1-.569-5.038,3.834,3.834,0,0,0-.025-.53,16.973,16.973,0,0,0,7.461-9.232c.059-.186.108-.383.162-.569a1.594,1.594,0,0,0,.957-.863,18,18,0,0,1,.643-1.962,7.39,7.39,0,0,1,1.815-1.594c1.56-1.324,1.962-3.556,1.889-5.587-.049-1.643-.314-3.3-.211-4.935l.029-.412c.029-.245.064-.491.108-.726.24-1.217.765-2.364,1.06-3.571a4.594,4.594,0,0,0-.363-3.606c-1.006-1.526-3.1-1.83-4.94-1.987-2.085-.177-3.949.054-5.283-1.678a18.835,18.835,0,0,0-2.1-2.536c-.275-.255-2.943-1.884-2.943-1.992a11.925,11.925,0,0,0-8.315-.638c-1.383.4-2.688,1.06-4.091,1.388-3.027.716-6.51-.059-9.08,1.673a10.672,10.672,0,0,0-3.1,4.062q-.981,1.879-1.992,3.753a24.309,24.309,0,0,0-2.644,6.421,10.19,10.19,0,0,0-.177,1.5h0v.8a2.637,2.637,0,0,0,.029.491c.029.152.025.2.039.3s.039.334.069.491.088.432.147.648c.025.093.059.181.088.27.049.167.108.329.172.491.034.083.069.172.108.255a4.582,4.582,0,0,0,.25.491c.039.069.069.132.108.2a6.509,6.509,0,0,0,.451.657c1.05,1.31,2.595,2.144,3.738,3.37v.549a16.791,16.791,0,0,0,7.643,13.711c0,.186.025.378.034.564a28.068,28.068,0,0,1-.054,4.371,2.06,2.06,0,0,0-1.629-.726,2.35,2.35,0,0,0-.628.054l-.044-.034h0v.044c-1.079.265-2.409,1.388-3.679,4.582,0,0-3.865,4.356-6.809,4.175s-10.395,4.533-10.395,4.533-7.27,4.719-8.83,9.526a67.141,67.141,0,0,1-3.13,7.986l-8.987,18.518h0l-1.658,14.692s.917,6.534.736,7.53,3.772,9.978,3.772,9.978,13.063,22.953,18.4,24.13l.383-.27a3.129,3.129,0,0,0,.721.27l1.1-.775a11.973,11.973,0,0,1-.083,2.59c-.736,2.266.275,17.056,1.56,19.955s.829,40.912.829,40.912l-.181,3.355a1.423,1.423,0,0,0,.044.294l-.044.795.132.069a9.448,9.448,0,0,1-.132,3.193,35.51,35.51,0,0,0-.648,5.631s-3.674,23.487-1.933,28.206,3.223,9.889,3.223,9.889,1.84,5.887.088,6.892-6.73,2.693-5.705,5.146c.932,2.266,4.469,8.339,4.994,9.227l-.044.466-.721,7.814a9.813,9.813,0,0,0,.829,2.983,5.139,5.139,0,0,0,5.244,3.277c.491-.034,1.06-.093,1.609-.167a69.53,69.53,0,0,0,11.92-3.1,4.86,4.86,0,0,1-.932-.77h0a2.693,2.693,0,0,1-.819-1.962c.079-1.423-2.585-8.2-3.247-9.87-.1-.24-.157-.378-.157-.378s6.073-6.348,5.062-11.974c0,0-6.72-3.924-4.508-6.078s6.166-8.339,6.166-8.339.181-23.129,0-26.583a28.6,28.6,0,0,1,.338-7.177c.074-.358.162-.706.255-1.05a64.032,64.032,0,0,0,9.242.7c1.128,0,2.276,0,3.434-.069q0,.491.044,1.06c.255,5.73.731,15.776,1.118,19.509.549,5.352,3.586,19.774,3.586,19.774s-5.793,3.718,1.01,12.882c0,0,0,3.321-.451,3.8h0a41.587,41.587,0,0,0-1.163,4.788c-.285,1.727-.4,3.473.059,4.381,1.1,2.168,7.726,1.992,7.726,1.992h0l.162-.029a9.492,9.492,0,0,1,7.01,2.114c2.517,2.021,12.067,1.133,17.238.491,2.026-.255,3.38-.491,3.38-.491a1.962,1.962,0,0,0,.069-.706h0c-.054-1.271-1.05-4.057-7.8-6.544,0,0-6.348-4.268-6.259-7.986h-.868a6.915,6.915,0,0,1,.878,0s-2.487-9.075-1.472-9.811-2.026-10.792-2.026-10.792-1.741-16.875-1.835-18.057a10.3,10.3,0,0,1,.456-2.992l-.456-9.252s-.088-3.076,0-4.076a20.361,20.361,0,0,0-.211-2.6c-.044-.343-.088-.7-.137-1.055,2.379-.6,3.924-1.163,3.924-1.163l-.275-32.2c2.021-3.924,2.394-12.533,2.384-18.641,0-3.924-.177-6.828-.177-6.828l2.762-4.508s.638-5.4-.373-6.578a1.132,1.132,0,0,1,.123-1.545,5.139,5.139,0,0,1,.6-.412s-.029-.044-.064-.108a4.875,4.875,0,0,1,.613-.437s-.981-1.521-.1-2.163c.824.559,1.56.981,2.119,1.324-.039.358-.078.564-.078.564l.235-.491.868.491s4.327-8.619,4.233-9.889,2.943-6.622,2.943-6.622.368-2.811,2.026-3.988,1.285-9.708,1.285-9.708.461-4.444,1.565-6.259S400.214,326.148,400.214,326.148Zm-82.785-3.782.083,2.055-.844-1.359Z" transform="translate(-173.534 -139.906)" fill="url(#linear-gradient)"/>
    <path id="Path_121" data-name="Path 121" d="M474.941,500.326l-1.06,4.513s-8.486-4.332-10.017-9.835,2.561-7.594,2.561-7.594l7.908,3.35Z" transform="translate(-259.072 -277.077)" fill="#fff"/>
    <path id="Path_122" data-name="Path 122" d="M474.941,500.326l-1.06,4.513s-8.486-4.332-10.017-9.835,2.561-7.594,2.561-7.594l7.908,3.35Z" transform="translate(-259.072 -277.077)" opacity="0.1"/>
    <path id="Path_123" data-name="Path 123" d="M369.77,808.291s-7.849,2.884-13.245,3.247a5.039,5.039,0,0,1-5.146-3.257,9.859,9.859,0,0,1-.809-2.968l.7-7.775.373-4.14,11.464-2.978,1.624,4.964.152.378c.652,1.658,3.267,8.4,3.189,9.811a2.678,2.678,0,0,0,.8,1.938A4.665,4.665,0,0,0,369.77,808.291Z" transform="translate(-201.528 -431.447)" fill="#fff"/>
    <path id="Path_124" data-name="Path 124" d="M462.409,803.8a1.962,1.962,0,0,1-.069.7s-16.786,2.8-20.22,0a9.094,9.094,0,0,0-7.064-2.07s-6.495.177-7.579-1.962c-.451-.9-.334-2.639-.054-4.356a41.5,41.5,0,0,1,1.138-4.763l.26-.206,1.545-1.241,18.091-.535h.137c-.088,3.7,6.142,7.942,6.142,7.942C461.354,799.765,462.33,802.536,462.409,803.8Z" transform="translate(-240.555 -430.912)" fill="#fff"/>
    <path id="Path_125" data-name="Path 125" d="M462.411,810.807a2,2,0,0,1-.074.7s-16.782,2.8-20.215,0a9.1,9.1,0,0,0-7.059-2.07s-6.5.177-7.579-1.962c-.451-.9-.338-2.639-.059-4.356,2.5.25,6.451.873,8,2.359,2.345,2.261,6.318,4.518,8.756,4.695C446.091,810.3,457.506,810.66,462.411,810.807Z" transform="translate(-240.558 -437.917)" opacity="0.1"/>
    <path id="Path_126" data-name="Path 126" d="M370.616,826.065s-7.849,2.884-13.245,3.247a5.026,5.026,0,0,1-5.141-3.262c2,.672,4.768,1.378,6.225.731,1.727-.765,7.849-1.261,11.283-1.472A4.833,4.833,0,0,0,370.616,826.065Z" transform="translate(-202.374 -449.221)" opacity="0.1"/>
    <path id="Path_127" data-name="Path 127" d="M399.9,322.433c-6.475-2.516-14.8-10.831-12.725-14.716a8.692,8.692,0,0,0,.809-3.12,28.485,28.485,0,0,0,.059-4.415,60.471,60.471,0,0,0-.868-7.182s20.215.456,19.038,3.434a11.133,11.133,0,0,0-.3,4.086c.093,1.7.339,3.615.594,5.239.353,2.227.706,3.924.706,3.924s-1.236,1.732-1.962,1.825S409.188,326.019,399.9,322.433Z" transform="translate(-220.01 -178.034)" fill="#cf6f80"/>
    <path id="Path_128" data-name="Path 128" d="M365.583,795.762l-.152.167c-6.044-7.309-13.353,1.8-13.353,1.8l-.108-.191.373-4.14,11.464-2.978,1.624,4.964Z" transform="translate(-202.241 -431.447)" opacity="0.1"/>
    <path id="Path_129" data-name="Path 129" d="M450.048,789.865s-4.415-.093-6.77,1.987-13.735.451-13.245,0a1.614,1.614,0,0,0,.255-.746l1.545-1.241,18.091-.535C449.994,789.659,450.048,789.865,450.048,789.865Z" transform="translate(-242.004 -430.891)" opacity="0.1"/>
    <path id="Path_130" data-name="Path 130" d="M367.917,663.348a13.65,13.65,0,0,0-.746,2.516,28.8,28.8,0,0,0-.339,7.142c.182,3.434,0,26.445,0,26.445s-3.88,6.137-6.044,8.3S365.2,713.8,365.2,713.8c.981,5.592-4.964,11.911-4.964,11.911-6.044-7.309-13.353,1.805-13.353,1.805s-3.973-6.868-4.964-9.32,3.88-4.15,5.592-5.146-.083-6.868-.083-6.868-1.447-5.146-3.164-9.84,1.893-28.064,1.893-28.064a36.219,36.219,0,0,1,.633-5.6,9.359,9.359,0,0,0,.132-3.179c-.029-.358-.064-.657-.088-.859s-.044-.294-.044-.294l.069-.118,2.453-4.572S369.095,660.469,367.917,663.348Z" transform="translate(-197.056 -361.774)" fill="#6c63ff"/>
    <path id="Path_131" data-name="Path 131" d="M444.542,725.19s-4.415-.093-6.77,1.962-13.735.451-13.245,0,.451-3.792.451-3.792c-6.676-9.114-.981-12.813-.981-12.813s-2.983-14.348-3.522-19.671c-.378-3.718-.844-13.711-1.094-19.416-.108-2.453-.172-4.14-.172-4.14l5.455-1.1.7-.142,13.156-2.639s.363,2.453.608,4.459a20.84,20.84,0,0,1,.206,2.585c-.088.981,0,4.052,0,4.052l.446,9.208a10.458,10.458,0,0,0-.446,2.978c.088,1.172,1.8,17.959,1.8,17.959s2.978,10.017,1.962,10.738S444.542,725.19,444.542,725.19Z" transform="translate(-236.497 -366.756)" fill="#6c63ff"/>
    <path id="Path_132" data-name="Path 132" d="M406.548,296.434a11.133,11.133,0,0,0-.3,4.086,16.8,16.8,0,0,1-17.866-.334A60.464,60.464,0,0,0,387.51,293S407.725,293.446,406.548,296.434Z" transform="translate(-220.347 -178.034)" opacity="0.1"/>
    <path id="Path_133" data-name="Path 133" d="M407.393,260.466a16.613,16.613,0,0,1-.824,5.2,16.786,16.786,0,0,1-32.739-4.8v-.4a16.785,16.785,0,1,1,33.571,0Z" transform="translate(-213.378 -152.908)" fill="#cf6f80"/>
    <path id="Path_134" data-name="Path 134" d="M399.9,334.476c-6.475-2.516-14.8-10.831-12.725-14.716a8.692,8.692,0,0,0,.809-3.12l8.864,7.285,5.484,4.5,4.17-10.615c.353,2.227.706,3.924.706,3.924s-1.236,1.732-1.962,1.825S409.188,338.062,399.9,334.476Z" transform="translate(-220.01 -190.077)" opacity="0.1"/>
    <path id="Path_135" data-name="Path 135" d="M369.265,307.231l-7.4,124.353-9.654.633-25-72.105,4.1-85.605.863-18.086,11.116,9.129,5.489,4.5,4.292-10.924,7.981,6.956Z" transform="translate(-166.454 -130.637)" fill="#6c63ff"/>
    <path id="Path_136" data-name="Path 136" d="M373.118,663.389a13.649,13.649,0,0,0-.746,2.517,71.129,71.129,0,0,1-20.24-6.323l-.132-.069.044-.79.025-.412,2.453-4.572S374.3,660.51,373.118,663.389Z" transform="translate(-202.257 -361.814)" opacity="0.1"/>
    <path id="Path_137" data-name="Path 137" d="M424.747,673.781a49.668,49.668,0,0,1-5.425.618c-.108-2.453-.172-4.14-.172-4.14l5.455-1.1Z" transform="translate(-236.466 -369.67)" opacity="0.1"/>
    <path id="Path_138" data-name="Path 138" d="M445.465,667.949c-3.488.908-8.874,1.928-13.7,1.29l-.069-3.11,13.156-2.639S445.219,665.918,445.465,667.949Z" transform="translate(-242.86 -366.782)" opacity="0.1"/>
    <path id="Path_139" data-name="Path 139" d="M365.6,492.271c-20.112,3.434-38.532-6.411-38.532-6.411l.177-3.336s.456-37.816-.809-40.715-2.252-17.6-1.535-19.857-2.615-36.094-2.615-36.094l-.54-13.735-19.749-8,8.83-18.405a66.423,66.423,0,0,0,3.071-7.947c1.535-4.778,8.663-9.472,8.663-9.472s7.309-4.69,10.2-4.513,6.676-4.15,6.676-4.15c2.8-7.128,5.327-3.9,5.327-3.9a6.367,6.367,0,0,1-.137,1.055c-.981,7.824,15.864,32.548,16.1,32.984h0l1.6,39.077,1.624,49.452Z" transform="translate(-176.784 -189.244)" opacity="0.1"/>
    <path id="Path_140" data-name="Path 140" d="M364.489,492.24c-20.112,3.434-38.537-6.411-38.537-6.411l.181-3.336s.456-37.816-.814-40.715-2.252-17.6-1.53-19.857-2.615-36.094-2.615-36.094l-.544-13.735-19.759-8.03,8.83-18.405a67.448,67.448,0,0,0,3.071-7.947c1.531-4.778,8.663-9.472,8.663-9.472s7.309-4.69,10.194-4.513,6.676-4.15,6.676-4.15c2.8-7.128,5.887-3.9,5.887-3.9,0,.338-.294.491-.137,1.055,2.158,7.589,15.325,32.548,15.565,32.984h0l1.624,39.077,1.624,49.452Z" transform="translate(-176.208 -189.213)" fill="#fff"/>
    <path id="Path_141" data-name="Path 141" d="M400.268,352.005c-2.163-.9-13.622-13.985-13.622-13.985v-2.978c-.417-.981-2.894-.383-4.905.3l.863-18.086.981.814C385.733,325.658,400.018,351.569,400.268,352.005Z" transform="translate(-217.408 -190.393)" opacity="0.1"/>
    <path id="Path_142" data-name="Path 142" d="M401.373,349.8c-2.168-.9-13.627-13.985-13.627-13.985v-2.978c-.417-.981-2.894-.383-4.905.3l.868-18.086.981.814C386.843,323.448,401.132,349.364,401.373,349.8Z" transform="translate(-217.968 -189.267)" fill="#fff"/>
    <path id="Path_143" data-name="Path 143" d="M351.964,517.392c.27,0,13.985-1.442,13.985-1.442s8.3,16.33,7.76,20.3-1.531,7.491-4.871,6.868-17.979.491-17.979.491Z" transform="translate(-201.676 -291.617)" opacity="0.1"/>
    <path id="Path_144" data-name="Path 144" d="M350.854,515.182c.27,0,13.985-1.442,13.985-1.442s8.3,16.335,7.76,20.3-1.535,7.491-4.871,6.868-17.979.49-17.979.49Z" transform="translate(-201.11 -290.491)" fill="#fff"/>
    <path id="Path_145" data-name="Path 145" d="M365.28,501.05s12.587,6.765,12.857,8.83-6.407-.9-7.849-1.261a17.964,17.964,0,0,0-2.889-.451l-9.62.26Z" transform="translate(-205.201 -284.026)" fill="#cf6f80"/>
    <circle id="Ellipse_6" data-name="Ellipse 6" cx="1.324" cy="1.324" r="1.324" transform="translate(178.023 159.807)" opacity="0.1"/>
    <circle id="Ellipse_7" data-name="Ellipse 7" cx="1.324" cy="1.324" r="1.324" transform="translate(178.023 159.267)" fill="#3f3d56"/>
    <circle id="Ellipse_8" data-name="Ellipse 8" cx="1.324" cy="1.324" r="1.324" transform="translate(180.461 217.142)" opacity="0.1"/>
    <circle id="Ellipse_9" data-name="Ellipse 9" cx="1.324" cy="1.324" r="1.324" transform="translate(180.461 216.597)" fill="#3f3d56"/>
    <circle id="Ellipse_10" data-name="Ellipse 10" cx="1.324" cy="1.324" r="1.324" transform="translate(179.343 188.474)" opacity="0.1"/>
    <circle id="Ellipse_11" data-name="Ellipse 11" cx="1.324" cy="1.324" r="1.324" transform="translate(179.343 187.935)" fill="#3f3d56"/>
    <path id="Path_146" data-name="Path 146" d="M451.614,415.075s.9,1.354,0,1.987.088,2.163.088,2.163-2.252,1.32-1.261,2.507.363,6.549.363,6.549l-2.708,4.484s.162,2.889.172,6.794c0,6.093-.358,14.658-2.34,18.562l.275,32.038s-9.482,3.463-17.419,2.409l-1.177-51.409s1.717-29.153,2.35-34.745a58.219,58.219,0,0,0,.451-8.756s-.27-8.751-1.177-12.813c0,0-.981-17.6-1.079-22.467-.044-2.33.078-9.129.216-15.594.152-7.069.324-13.735.324-13.735l-1.79-14.167s1.79-.182,2.33.54a5.165,5.165,0,0,0,.785.6h0c3.09,2.09,14.01,8.516,14.01,8.516s6.044,2.4,7.491,5.847a50.953,50.953,0,0,0,3.154,6.868c.7.981,1.084,5.592,1.084,5.592s2.08,8.486,3.7,9.924,2.811,10.581,2.811,10.581L447.92,378.632s-1.261,18.768-1.531,19.494S451.614,415.075,451.614,415.075Z" transform="translate(-240.415 -191.208)" fill="#fff"/>
    <path id="Path_147" data-name="Path 147" d="M452.123,414.913s.9,1.354,0,1.987.083,2.163.083,2.163-2.237,1.334-1.256,2.521.363,6.549.363,6.549l-2.708,4.484s.162,2.889.177,6.794c0,6.093-.358,14.658-2.34,18.562l.27,32.038s-9.5,3.463-17.424,2.409l-1.172-51.409s1.717-29.153,2.35-34.745a57.672,57.672,0,0,0,.446-8.756s-.27-8.751-1.172-12.813c0,0-.981-17.6-1.084-22.467-.044-2.33.083-9.129.216-15.594.152-7.069.324-13.735.324-13.735L426.83,318.54s2.364,0,2.909.731a4.654,4.654,0,0,0,.785.6h0c3.09,2.09,14.015,8.516,14.015,8.516s6.039,2.4,7.486,5.847a50.14,50.14,0,0,0,3.159,6.868c.706.981,1.079,5.592,1.079,5.592s2.08,8.486,3.7,9.924,2.8,10.561,2.8,10.561l-14.348,11.283s-1.261,18.768-1.535,19.494S452.123,414.913,452.123,414.913Z" transform="translate(-240.379 -191.045)" fill="#fff"/>
    <path id="Path_148" data-name="Path 148" d="M435.5,338.179l1.3,3.777-6.819,6.868c.152-7.064.324-13.735.324-13.735L427.94,320.73s2.364,0,2.909.731a4.475,4.475,0,0,0,.785.6h0l5.8,16.728Z" transform="translate(-240.945 -192.161)" opacity="0.1"/>
    <path id="Path_149" data-name="Path 149" d="M434.394,335.969l1.3,3.777-6.819,6.868c.152-7.069.324-13.735.324-13.735L426.83,318.52s2.369,0,2.909.731a4.9,4.9,0,0,0,.785.6h0l5.8,16.723Z" transform="translate(-240.379 -191.035)" fill="#fff"/>
    <path id="Path_150" data-name="Path 150" d="M407.393,260.466a16.615,16.615,0,0,1-.824,5.2.7.7,0,0,1-.53-.132c-.128-4.415-2.3-8.56-4.974-12.087a12.7,12.7,0,0,0-2.7-2.8,5.278,5.278,0,0,0-3.659-1.035c-1.472.2-2.772,1.2-4.258,1.329-1.962.162-3.718-1.2-5.666-1.266a5.568,5.568,0,0,0-4.165,1.933,11.425,11.425,0,0,0-2.232,4.14,24.223,24.223,0,0,0-1.246,7.142c-.025,1.374-.157,3.1-1.432,3.6a7.329,7.329,0,0,0-1.849-5.6l-.029-.029v-.4a16.785,16.785,0,1,1,33.571,0Z" transform="translate(-213.378 -152.908)" opacity="0.1"/>
    <path id="Path_151" data-name="Path 151" d="M392.238,222.428a11.557,11.557,0,0,0-8.153-.638c-1.359.4-2.639,1.055-4.018,1.383-2.943.711-6.377-.059-8.9,1.663a10.649,10.649,0,0,0-3.032,4.037l-1.962,3.738a24.255,24.255,0,0,0-2.6,6.377,8.142,8.142,0,0,0,1.251,6.583c1.04,1.32,2.575,2.149,3.7,3.39a7.358,7.358,0,0,1,1.844,5.592c1.28-.491,1.4-2.217,1.432-3.591a24.225,24.225,0,0,1,1.246-7.142,11.385,11.385,0,0,1,2.232-4.14,5.578,5.578,0,0,1,4.165-1.933c1.962.069,3.723,1.423,5.666,1.261,1.472-.123,2.776-1.128,4.258-1.324a5.259,5.259,0,0,1,3.659,1.035,12.568,12.568,0,0,1,2.693,2.8c2.678,3.527,4.852,7.662,4.979,12.087.554.407,1.354-.123,1.629-.751a17.93,17.93,0,0,1,.633-1.962,7.236,7.236,0,0,1,1.776-1.58c1.531-1.32,1.913-3.542,1.854-5.558s-.451-4.062-.069-6.044c.231-1.217.751-2.355,1.035-3.556a4.65,4.65,0,0,0-.353-3.586c-.981-1.521-3.046-1.82-4.847-1.962-2.046-.177-3.875.049-5.18-1.673a18.786,18.786,0,0,0-2.06-2.521C394.862,224.155,392.238,222.536,392.238,222.428Z" transform="translate(-208.053 -141.521)" fill="#512e4e"/>
    <path id="Path_152" data-name="Path 152" d="M306.51,424.607l-5.126-9.477-1.624,14.623s.9,6.495.721,7.491,3.7,9.924,3.7,9.924S317,470,322.232,471.175l17.684-12.636-4.69-5.955s-1.624-.633-2.031,0c0,0-8.707-14.981-9.61-16.065a5.411,5.411,0,0,1-.726-3.247s-1.354-1.442-.9-2.8-2.615-6.048-2.615-6.048l2.8-2.615Z" transform="translate(-175.643 -240.254)" opacity="0.1"/>
    <path id="Path_153" data-name="Path 153" d="M300.528,412.93l-1.354,1.079-1.624,14.623s.9,6.495.721,7.491,3.7,9.924,3.7,9.924,12.813,22.83,18.047,24.007l17.689-12.636-4.695-5.955s-1.624-.633-2.031,0c0,0-8.707-14.981-9.61-16.065a5.394,5.394,0,0,1-.721-3.247s-1.354-1.442-.9-2.8-2.62-6.048-2.62-6.048l2.8-2.615Z" transform="translate(-174.517 -239.133)" fill="#fff"/>
    <path id="Path_154" data-name="Path 154" d="M464.261,520.637c.981,1.192.363,6.544.363,6.544l-2.708,4.484s.162,2.894.172,6.794l-4.552,1.423a2.7,2.7,0,0,1-3.507-2.664l.785-25.317,10.62,4.062c-.9.628.088,2.168.088,2.168S463.271,519.445,464.261,520.637Z" transform="translate(-254.235 -289.553)" opacity="0.1"/>
    <path id="Path_155" data-name="Path 155" d="M465.366,519.532c.981,1.192.363,6.549.363,6.549l-2.708,4.484s.162,2.889.177,6.794l-4.636,1.447a2.649,2.649,0,0,1-3.434-2.61l.79-25.4,10.625,4.062c-.908.628.083,2.163.083,2.163S464.385,518.345,465.366,519.532Z" transform="translate(-254.795 -288.993)" fill="#fff"/>
    <path id="Path_156" data-name="Path 156" d="M474.346,499.9s-.721,4.606-2.526,4.876-2.615,7.451-4.415,7.2-.608-6.676-.544-7.922-1.962-6.407-.446-7.579,6.313,0,6.313,0Z" transform="translate(-260.258 -281.426)" fill="#cf6f80"/>
    <path id="Path_157" data-name="Path 157" d="M476.264,424.558l3.4-6.868a44.587,44.587,0,0,1,1.354,8.03c0,2.8,1.894,3.071,1.894,3.071s2.075,2.453.981,4.238-1.535,6.23-1.535,6.23.358,8.482-1.266,9.654-1.962,3.973-1.962,3.973-2.983,5.322-2.889,6.588-4.15,9.835-4.15,9.835,2.075-10.65-10.017-15.251c0,0-.093-3.615.809-4.606s2.31-1.442,1.427-6.451-.255-10.993-.255-12.195,2.708-8.7,2.708-8.7Z" transform="translate(-258.335 -241.558)" opacity="0.1"/>
    <path id="Path_158" data-name="Path 158" d="M478.8,415.69l2.973.981a44.441,44.441,0,0,1,1.359,8.03c0,2.8,1.893,3.071,1.893,3.071s2.075,2.453.981,4.238-1.53,6.23-1.53,6.23.358,8.482-1.266,9.654-1.987,3.973-1.987,3.973-2.978,5.322-2.884,6.588-4.155,9.835-4.155,9.835,2.08-10.65-10.017-15.251c0,0-.088-3.615.814-4.606s2.31-1.442,1.427-6.451-.255-10.993-.255-12.195,2.708-8.7,2.708-8.7Z" transform="translate(-259.4 -240.539)" fill="#fff"/>
    <path id="Path_159" data-name="Path 159" d="M360.15,776.9s4.739-2.978,7.849-.814S360.15,776.9,360.15,776.9Z" transform="translate(-206.409 -423.74)" opacity="0.1"/>
    <path id="Path_160" data-name="Path 160" d="M435.21,759.762a9.593,9.593,0,0,1,7.716,3.252C446.448,766.807,435.21,759.762,435.21,759.762Z" transform="translate(-244.648 -415.814)" opacity="0.1"/>
    <g id="Group_4" data-name="Group 4" transform="translate(155.328 90.586)" opacity="0.1">
      <path id="Path_161" data-name="Path 161" d="M412.038,264.087a7.278,7.278,0,0,0-1.781,1.584,17.951,17.951,0,0,0-.628,1.962c-.275.638-1.074,1.158-1.629.755-.128-4.415-2.306-8.56-4.979-12.092a12.567,12.567,0,0,0-2.693-2.8,5.273,5.273,0,0,0-3.664-1.035c-1.472.2-2.767,1.2-4.253,1.324-1.962.167-3.723-1.192-5.671-1.261a5.553,5.553,0,0,0-4.16,1.938,11.361,11.361,0,0,0-2.232,4.135,24.252,24.252,0,0,0-1.246,7.142c-.029,1.369-.157,3.076-1.423,3.586a6.716,6.716,0,0,1,0,1.089c1.275-.491,1.4-2.217,1.432-3.591a24.222,24.222,0,0,1,1.246-7.142,11.386,11.386,0,0,1,2.232-4.14,5.568,5.568,0,0,1,4.16-1.933c1.962.069,3.728,1.423,5.671,1.261,1.472-.123,2.776-1.128,4.253-1.324a5.273,5.273,0,0,1,3.664,1.035,12.568,12.568,0,0,1,2.693,2.8c2.673,3.527,4.852,7.662,4.979,12.087.554.407,1.354-.123,1.629-.751a19.032,19.032,0,0,1,.628-1.962,7.259,7.259,0,0,1,1.781-1.58c1.531-1.32,1.913-3.542,1.854-5.558v-.186A6.44,6.44,0,0,1,412.038,264.087Z" transform="translate(-370.667 -247.958)"/>
      <path id="Path_162" data-name="Path 162" d="M368.543,267.782c-1.128-1.241-2.669-2.07-3.7-3.385a7.182,7.182,0,0,1-1.428-4.018,7.555,7.555,0,0,0,1.428,5.1c1.035,1.32,2.575,2.149,3.7,3.39a7.358,7.358,0,0,1,1.849,4.376A7.358,7.358,0,0,0,368.543,267.782Z" transform="translate(-363.385 -252.001)"/>
      <path id="Path_163" data-name="Path 163" d="M452.219,244.271c-.289,1.2-.8,2.345-1.04,3.556a11.33,11.33,0,0,0-.152,2.453,9.525,9.525,0,0,1,.152-1.393c.235-1.217.751-2.355,1.04-3.556a6.035,6.035,0,0,0,.162-2.031,6.819,6.819,0,0,1-.162.971Z" transform="translate(-408.028 -243.3)"/>
    </g>
    <ellipse id="Ellipse_12" data-name="Ellipse 12" cx="47.799" cy="7.677" rx="47.799" ry="7.677" transform="translate(17.556 357.747)" fill="#6c63ff" opacity="0.1"/>
    <rect id="Rectangle_28" data-name="Rectangle 28" width="3.076" height="69.25" transform="translate(63.819 218.358)" fill="#535461"/>
    <path id="Path_164" data-name="Path 164" d="M179.174,639.629l-.191,3.12-.275,4.415L178.595,649l-.27,4.415-.118,1.835-.275,4.415-3.1,50.07a8.487,8.487,0,0,1-8.467,7.957H150.246a8.482,8.482,0,0,1-8.462-7.957l-3.086-50.1-.275-4.415-.113-1.835-.275-4.415-.113-1.835-.275-4.415-.2-3.12a4.415,4.415,0,0,1,4.415-4.665h32.97a4.386,4.386,0,0,1,4.336,4.7Z" transform="translate(-92.951 -352.232)" fill="#3f3d56"/>
    <path id="Path_165" data-name="Path 165" d="M131.933,592.24l-.275,4.4h-40.8l-.275-4.4Z" transform="translate(-45.902 -301.722)" fill="#9d9cb5"/>
    <path id="Path_166" data-name="Path 166" d="M131.948,604.95l-.27,4.405H91.645l-.275-4.405Z" transform="translate(-46.304 -308.197)" fill="#9d9cb5"/>
    <path id="Path_167" data-name="Path 167" d="M131.963,617.68l-.27,4.4H92.435l-.275-4.4Z" transform="translate(-46.707 -314.683)" fill="#9d9cb5"/>
    <path id="Path_168" data-name="Path 168" d="M87.239,542.456c17.91,12.96,25.386,33.23,25.386,33.23s-21.584-.741-39.5-13.7S47.75,528.76,47.75,528.76,69.324,529.5,87.239,542.456Z" transform="translate(-47.255 -298.143)" fill="#6c63ff"/>
    <path id="Path_169" data-name="Path 169" d="M47.72,528.76S70.128,541.2,77.315,551.492s35.295,24.194,35.295,24.194" transform="translate(-47.24 -298.143)" fill="none" stroke="#535461" stroke-miterlimit="10" stroke-width="2"/>
    <path id="Path_170" data-name="Path 170" d="M129.5,495.716c9.747,7.049,13.824,18.082,13.824,18.082s-11.749-.4-21.5-7.451S108,488.26,108,488.26,119.744,488.662,129.5,495.716Z" transform="translate(-77.95 -277.51)" fill="#6c63ff"/>
    <path id="Path_171" data-name="Path 171" d="M108,488.26s12.195,6.77,16.1,12.372S143.319,513.8,143.319,513.8" transform="translate(-77.95 -277.51)" fill="none" stroke="#535461" stroke-miterlimit="10" stroke-width="2"/>
    <path id="Path_172" data-name="Path 172" d="M194.759,522.368c-11.2,12.308-13.569,28.393-13.569,28.393s15.791-3.875,26.98-16.188,13.568-28.393,13.568-28.393S205.958,510.06,194.759,522.368Z" transform="translate(-115.237 -286.639)" fill="#6c63ff"/>
    <path id="Path_173" data-name="Path 173" d="M221.748,506.19s-14.589,12.617-18.3,21.309-22.261,23.267-22.261,23.267" transform="translate(-115.237 -286.644)" fill="none" stroke="#535461" stroke-miterlimit="10" stroke-width="2"/>
    <path id="Path_174" data-name="Path 174" d="M932.568,394.5s-8.1-40.293-5-45.307c0,0,.113-4.66-.074-10.6v-.682a15.093,15.093,0,0,0,1.7.981,13.774,13.774,0,0,0,9.271,1.2l-2.453-2.732a4.529,4.529,0,0,1-1.329-2.222,4.656,4.656,0,0,1,.53-2.4c2.33-5.887,2.453-13.289-2.036-17.782-3.792-3.777-4.714-8.653-8.83-12.1-3.007-2.526-4.66-6.23-6.22-9.811a55.177,55.177,0,0,1-3.4-9.286c-.589-2.507-.824-5.1-1.634-7.55a9.609,9.609,0,0,0-4.695-5.921,17.721,17.721,0,0,1-2.551-1.123,11.015,11.015,0,0,1-2.35-2.762c-3.714-4.905-16.149-2.016-22.035-.025a12.4,12.4,0,0,0-4.356,2.414l.054-.088c.044-.074.1-.147.147-.221a7.741,7.741,0,0,0-1.648,1.84,44.113,44.113,0,0,0-1.933,4.415c-.863,1.741-5.666,6.6-3.6,8.56a1.74,1.74,0,0,0,.491.314,4.243,4.243,0,0,0,2.453.245l-.088.211a14.338,14.338,0,0,0-1.065,5.44,14.724,14.724,0,0,0,14.854,14.594,15,15,0,0,0,4.547-.7c.034.186.064.373.1.559a1.727,1.727,0,0,0,.034.221h0l-.26.363a.48.48,0,0,0-.044-.064l-7.7,10.763c-1.177.829-7.957,5.734-8.339,9.414-.4,4.027-.8,8.742-.8,8.742l-.054,1.01a3.032,3.032,0,0,1-2.453.662c-2.4-.392-2.4,8.83-2.4,8.83s-1.6,1.472-2.7.2-4,3.046-4,3.046l-18.2.785h0l-.417.025-.981-3.036a1.28,1.28,0,0,0-1.6-.819,1.473,1.473,0,0,0-.221.093l-.069.039-.128.088-.064.059a.987.987,0,0,0-.1.1l-.059.069-.029.029h0a1.236,1.236,0,0,0-.177,1.1l.844,2.6c-3.512.706-7.1,2.7-4.175,8.182l-14.844-2.742,4.8,4.032,24.792,5.116c-.329.589-.113,1.442.912,2.644,4.415,5.185,12.46,6.593,15.7,6.956a27.866,27.866,0,0,0,3.184,5.4l-.28,5.165s-8.2,39.371-9.7,41.368a23.335,23.335,0,0,0,2.075-2.732c-2.379,8.089-5.705,19.161-6.578,20.819-1.4,2.649-2.7,13.367-1.1,14.054a13.456,13.456,0,0,0,3.895-.044v.888l-.088,33.647s.4,20.637-.7,22.6-1.4,6.093-1.4,6.093-4.415,8.138-7.913,11.41a.532.532,0,0,1-.079.069l-.108-.765s-4.2,5.308-13.5,5.009c0,0-5.6,3.64,2.7,3.836s18.9-.294,18.9-.294,7.4-11.283,13.6-9.811v8.55h1.9v-8.688a7.785,7.785,0,0,0,3.38-5.116,6.22,6.22,0,0,0-2.217-5.754,3.678,3.678,0,0,1-1.212-2.688l-.069.059a5.178,5.178,0,0,0-.064-.53c-.544-4.415-1.226-13.524,1.182-20.264,3.3-9.242,4.3-22.114,1.9-29.776a68.455,68.455,0,0,1-1.908-7.461c-.059-.319-.113-.623-.162-.908a38.67,38.67,0,0,1,4.871.981c5.568,1.535,17.748,1.82,28.148,1.737.025.285.054.584.088.883a32.134,32.134,0,0,0,1.158,6.142c1.3,3.924,1.9,21.226,1.9,21.226s1.683,14.226.765,20.014c-.491,3.218-.981,6.451-1.261,9.7v.064s-2.757,7.849-4.773,12.112c-.049.108-.1.216-.152.319a6.376,6.376,0,0,0-1.575.348s-2.7,5.4-5.4,6.289-1.8,3.831,4.3,2.752,15.305-1.962,15.305-1.962l.4-5.5,1.874-2.345-.49,5.489,2-.392-.265-6.676,3.066-3.836s3.7-3.3-1.8-9.781v.142c-.059-.093-.113-.191-.177-.285v-.029c-.912-1.413-1.638-4.047-.309-8.722,2.4-8.447,3.8-16.114,3.8-16.114s5.367-20.539-1.084-30.257h.284a16.348,16.348,0,0,1-1.388-4.317q-.049-.265-.088-.544a35.4,35.4,0,0,0,13.279-3C936.772,451,934.471,402.26,932.568,394.5Zm-60.6-33.995v.1l-.981.049Zm-3.365.466a1.085,1.085,0,0,0-.442.211,4.356,4.356,0,0,0-.77,2.016l-1.531-.343s-1.074-.231-2.62-.491l-.731-.736C864.524,361.462,866.614,361.216,868.606,360.971Z" transform="translate(-441.939 -163.103)" fill="url(#linear-gradient-2)"/>
    <path id="Path_175" data-name="Path 175" d="M971.9,742.511l-.584,6.951,1.957-.392-.294-7.54Z" transform="translate(-494.598 -377.779)" fill="#1d2366"/>
    <path id="Path_176" data-name="Path 176" d="M901,691.663c-2.36,6.72-1.692,15.791-1.163,20.2.2,1.629.378,2.62.378,2.62s-3.527,8.035-3.821,8.339-10.38,6.46-10.38,6.46l-7.049,4.116s-7.152-3.135-3.723-4.214a5.206,5.206,0,0,0,1.849-1.261c3.434-3.262,7.746-11.371,7.746-11.371s.294-4.116,1.374-6.073.687-22.526.687-22.526l.083-33.529V650.05l13.416.1a30.354,30.354,0,0,0,.579,4.415A67.483,67.483,0,0,0,902.847,662C905.211,669.647,904.23,682.455,901,691.663Z" transform="translate(-468.351 -359.935)" fill="#ffb0b1"/>
    <path id="Path_177" data-name="Path 177" d="M900.217,778.68s-3.527,8.035-3.821,8.339-10.38,6.461-10.38,6.461l-7.049,4.116s-7.152-3.135-3.723-4.214a5.205,5.205,0,0,0,1.849-1.261l.3,2.144,2.35-.1,20.112-18.1C900.036,777.689,900.217,778.68,900.217,778.68Z" transform="translate(-468.351 -424.136)" opacity="0.1"/>
    <path id="Path_178" data-name="Path 178" d="M887.031,777l-20.225,18.219-2.35.1-.49-3.434s-4.111,5.288-13.245,4.994c0,0-5.484,3.625,2.644,3.821s18.508-.294,18.508-.294,7.25-11.283,13.318-9.811v8.521h1.864v-8.6a7.745,7.745,0,0,0,3.306-5.1,6.25,6.25,0,0,0-2.163-5.73A3.693,3.693,0,0,1,887.031,777Z" transform="translate(-455.41 -424.61)" fill="#1d2366"/>
    <path id="Path_179" data-name="Path 179" d="M1004.632,701.762c-1.3,4.66-.594,7.285.3,8.692v.029a16.067,16.067,0,0,1,2.345,5.725l.079.442-9.2,13.416-4.994,1.962s-8.03-2.742-6.563-3.527a7.516,7.516,0,0,0,1.6-2.62c1.962-4.243,4.67-12.072,4.67-12.072v-.064c.285-3.233.736-6.456,1.236-9.664.9-5.774-.751-19.946-.751-19.946s-.589-17.233-1.864-21.152a32.343,32.343,0,0,1-1.143-6.1c-.265-2.453-.324-4.474-.324-4.474s5.288-7.358,14.981.589a10.665,10.665,0,0,1,2.026,2.2c6.7,9.526,1.3,30.512,1.3,30.512S1006.981,693.339,1004.632,701.762Z" transform="translate(-525.462 -359.555)" fill="#ffb0b1"/>
    <path id="Path_180" data-name="Path 180" d="M1007.384,780.033l-9.2,13.416-4.994,1.962s-8.03-2.742-6.563-3.527a7.517,7.517,0,0,0,1.6-2.62c3.4-.029,5.161,3.208,5.161,3.208l4.307-.687s5.681-11.165,6.956-11.847.2-5.1.2-5.1V773.72c.034.039.064.083.1.123v.029a16.065,16.065,0,0,1,2.345,5.725Z" transform="translate(-525.477 -422.939)" opacity="0.1"/>
    <path id="Path_181" data-name="Path 181" d="M986.8,793.058s-2.453-4.5-7.152-2.84c0,0-2.644,5.4-5.288,6.269s-1.761,3.816,4.214,2.742,14.981-1.962,14.981-1.962l.392-5.489,6.073-7.736s3.62-3.282-1.766-9.742v1.123s1.079,4.415-.2,5.1-6.936,11.852-6.936,11.852Z" transform="translate(-518.602 -423.234)" fill="#1d2366"/>
    <path id="Path_182" data-name="Path 182" d="M913.571,650.128a30.379,30.379,0,0,0,.579,4.415,61.541,61.541,0,0,0-14.01-.142V650.03Z" transform="translate(-481.509 -359.924)" opacity="0.1"/>
    <path id="Path_183" data-name="Path 183" d="M1011.332,656.41s-7.849.383-17.208.461c-.265-2.453-.324-4.474-.324-4.474s5.288-7.358,14.981.589a10.663,10.663,0,0,1,2.026,2.2A11.981,11.981,0,0,0,1011.332,656.41Z" transform="translate(-529.224 -359.55)" opacity="0.1"/>
    <path id="Path_184" data-name="Path 184" d="M958.914,566.289s-34.378,1.663-44.856-1.275-20.863-.392-22.428-1.074-.294-11.361,1.079-14.005,8.908-29.384,8.908-29.384l7.25-37.8,7.638-2.1.54-.152,13.309-3.669,9.752-2.693s19.391,75.706,17.728,81.288a14.3,14.3,0,0,0-.284,6.568A16.4,16.4,0,0,0,958.914,566.289Z" transform="translate(-476.806 -270.311)" fill="#1d2366"/>
    <path id="Path_185" data-name="Path 185" d="M872.247,439s-6.868,7.358-1.668,11.459,8.619.392,8.619.392Z" transform="translate(-465.458 -252.414)" fill="#c7daf5"/>
    <path id="Path_186" data-name="Path 186" d="M872.247,439s-6.868,7.358-1.668,11.459,8.619.392,8.619.392Z" transform="translate(-465.458 -252.414)" opacity="0.1"/>
    <path id="Path_187" data-name="Path 187" d="M973.852,326.451s-.8.765-2.016,1.893c-1.727,1.614-4.282,3.973-6.549,5.95-3.139,2.732-5.73,4.739-4.8,3.027s.751-4.695.289-7.486c-.034-.186-.064-.373-.1-.554a51.41,51.41,0,0,0-1.516-6.063,104.9,104.9,0,0,1,7.878-9.139c1.045-.981,1.776-1.383,1.82-.7a22.788,22.788,0,0,0,1.589,5.092c.025.069.049.132.078.2.569,1.472,1.212,2.982,1.776,4.287C973.165,324.959,973.852,326.451,973.852,326.451Z" transform="translate(-511.577 -188.242)" fill="#ffb0b1"/>
    <path id="Path_188" data-name="Path 188" d="M970.526,318.677a14.56,14.56,0,0,1-9.752,11.165,51.044,51.044,0,0,0-1.614-6.617s9.551-12.337,9.7-9.84A23.336,23.336,0,0,0,970.526,318.677Z" transform="translate(-511.577 -188.248)" opacity="0.1"/>
    <path id="Path_189" data-name="Path 189" d="M941.436,352.191l1.236-1.741s.819,4.994,3.831,2.791,3.159,16.576,3.159,16.576L946.43,418.15l-23.36-1.4.662-23.355,2.644-11.773,6.539-17.115,3.89-5.656Z" transform="translate(-493.191 -207.302)" opacity="0.1"/>
    <path id="Path_190" data-name="Path 190" d="M949.678,370.4l-2.943,43.7-.309,4.631-13.024-.78-.491-.029-9.811-.589.662-23.36,2.644-11.773,6.539-17.115,3.89-5.656,4.631-6.686,1.236-1.737s.819,4.994,3.831,2.791l.064-.044h0C949.54,351.893,949.678,370.4,949.678,370.4Z" transform="translate(-493.206 -207.587)" fill="#1d2366"/>
    <path id="Path_191" data-name="Path 191" d="M899.072,406.26s-1.172,2.453-3.527,2.055-2.35,8.83-2.35,8.83-1.565,1.472-2.644.2-3.924,3.036-3.924,3.036l-17.826.785s7.932,3.625,6.377,14.594c0,0,26.931-1.668,27.814-4.214S899.072,406.26,899.072,406.26Z" transform="translate(-465.542 -235.735)" fill="#fff"/>
    <path id="Path_192" data-name="Path 192" d="M899.072,406.26s-1.172,2.453-3.527,2.055-2.35,8.83-2.35,8.83-1.565,1.472-2.644.2-3.924,3.036-3.924,3.036l-17.826.785s7.932,3.625,6.377,14.594c0,0,26.931-1.668,27.814-4.214S899.072,406.26,899.072,406.26Z" transform="translate(-465.542 -235.735)" opacity="0.03"/>
    <path id="Path_193" data-name="Path 193" d="M777.66,389.76l4.7,4.013,38.684,8.128-4.8-4.9Z" transform="translate(-395.937 -198.568)" fill="#fff"/>
    <path id="Path_194" data-name="Path 194" d="M931.575,352.387c-.643.981-2.482,6-4.018,10.39-1.28,3.655-2.35,6.868-2.35,6.868s-2.5,16.257-3.772,19.2-.584,14.4-.584,14.4l-4.753,28.3s-2.153,14.594-5.479,23.311c-3.282,8.58-6.936,12.6-7.049,12.73,1.472-1.992,9.492-41.206,9.492-41.206l2.649-49.457s.388-4.7.78-8.717,8.339-9.5,8.339-9.5l7.662-10.9C933.263,348.83,932.748,350.626,931.575,352.387Z" transform="translate(-483.256 -205.952)" fill="#fff"/>
    <path id="Path_195" data-name="Path 195" d="M901.469,475.453s-11.283-.491-16.747-7.054,12.632-2.62,12.632-2.62l4.7,1.079Z" transform="translate(-473.13 -265.459)" fill="#ffb0b1"/>
    <path id="Path_196" data-name="Path 196" d="M984.418,495.463a14.3,14.3,0,0,0-.284,6.568c-12.308.873-25.474-2.453-25.474-2.453-2.453,2.256-8.913,5.582-8.913,5.582L946.225,461.5c-2.252-5.887-3.135-36.727-3.135-36.727s.2-1.614.491-4.032a.464.464,0,0,1,.025-.181c.878-6.755,2.62-19.435,3.473-21.147,1.177-2.355-3.62-8.619-3.62-8.619l2.183-18.616.265-2.247c4.6-2.055,8.128-8.619,8.128-8.619l2.708-4.744h0c2.943-1.889,3.1,16.62,3.1,16.62l-2.943,43.7,9.752-2.693S986.081,489.88,984.418,495.463Z" transform="translate(-503.39 -210.351)" opacity="0.1"/>
    <path id="Path_197" data-name="Path 197" d="M997.661,486.337c-13.416,6.662-37.8.491-37.8.491-2.453,2.257-8.913,5.582-8.913,5.582l-3.527-43.659c-2.247-5.887-3.13-36.727-3.13-36.727s2.835-23.012,4.013-25.361a3.779,3.779,0,0,0-.23-2.806,35.5,35.5,0,0,1-2.149-16.428l.942-8,.26-2.242c4.606-2.06,8.133-8.624,8.133-8.624l2.453-4.3,4.513-7.917,2.139-3.748.363.329,2.772,2.512,2.943,2.453c3.841,3.238,10.478,8.938,13.9,12.426,3.012,3.071,3.964,15.016,4.238,24.007.182,5.921.074,10.561.074,10.561-3.036,5,4.905,45.13,4.905,45.13C995.41,437.773,997.661,486.337,997.661,486.337Z" transform="translate(-504.001 -198.208)" fill="#fff"/>
    <path id="Path_198" data-name="Path 198" d="M957.716,364.221s-9.208,17.527-8.138,24.189,4.111,14.2,2.644,15.962a5.42,5.42,0,0,1-4.312,2.154c-1.472.1-5.4,2.84-5.4,3.135s-3.625.294-6.868,1.668a42.763,42.763,0,0,1-8.03,2.154s-9.32-.294-10.189.589-1.761,6.166.1,10.38,3.924,7.358,5.484,7.932,11.459-2.742,19.489-3.527,16.747-7.147,16.747-7.147,9.6-3.434,11.283-9.208-2.055-37.507-2.055-37.507S965.648,360.2,957.716,364.221Z" transform="translate(-489.809 -213.966)" opacity="0.03"/>
    <path id="Path_199" data-name="Path 199" d="M955.331,361.223s-9.208,17.532-8.128,24.189,4.111,14.2,2.639,15.967a5.4,5.4,0,0,1-4.307,2.154c-1.472.1-5.4,2.84-5.4,3.135s-3.625.294-6.868,1.663a43.185,43.185,0,0,1-8.03,2.154s-9.32-.294-10.184.589-1.766,6.171.1,10.38,3.924,7.358,5.484,7.932,11.459-2.742,19.489-3.522,16.747-7.152,16.747-7.152,9.6-3.434,11.258-9.2S966.078,372,966.078,372,963.263,357.21,955.331,361.223Z" transform="translate(-488.601 -212.439)" opacity="0.03"/>
    <path id="Path_200" data-name="Path 200" d="M957.136,362.429s-9.208,17.532-8.128,24.189,4.111,14.2,2.644,15.962a5.4,5.4,0,0,1-4.312,2.158c-1.472.1-5.4,2.84-5.4,3.13s-3.62.294-6.868,1.668a42.857,42.857,0,0,1-8.03,2.154s-9.32-.294-10.189.589-1.761,6.171.1,10.38,3.924,7.358,5.484,7.932,11.459-2.742,19.489-3.527,16.747-7.147,16.747-7.147,9.6-3.434,11.283-9.208-2.031-37.507-2.031-37.507S965.063,358.435,957.136,362.429Z" transform="translate(-489.519 -213.056)" fill="#fff"/>
    <path id="Path_201" data-name="Path 201" d="M994.046,458.545s-7.358-1.472-4.8.981,2.546,4.6,5.68,4.5S994.046,458.545,994.046,458.545Z" transform="translate(-526.63 -262.149)" opacity="0.1"/>
    <path id="Path_202" data-name="Path 202" d="M1024.038,566.58s-3.326,2.252,3.036,7.442S1024.038,566.58,1024.038,566.58Z" transform="translate(-544.186 -317.41)" opacity="0.1"/>
    <path id="Path_203" data-name="Path 203" d="M1011.852,604.31c0,.294-1.177,10.792,3.228,13.416S1011.852,604.31,1011.852,604.31Z" transform="translate(-538.348 -336.632)" opacity="0.1"/>
    <path id="Path_204" data-name="Path 204" d="M860.737,436.59c-3.552.123-11.224,1.207-7.245,8.629,3.517,6.568,9.428,2.178,12.754-1.153a12.534,12.534,0,0,0-5.509-7.476Z" transform="translate(-457.175 -251.186)" fill="#ffb0b1"/>
    <path id="Path_205" data-name="Path 205" d="M881.39,451Z" transform="translate(-471.956 -258.528)" fill="#ffb0b1"/>
    <path id="Path_206" data-name="Path 206" d="M880.74,451.552l.147-.152Z" transform="translate(-471.625 -258.731)" fill="#ffb0b1"/>
    <path id="Path_207" data-name="Path 207" d="M973.116,338.493c-3.767,2.575-6.927,4.748-7.545,5.2-1.687,1.251-4.906,8.594-6.98,12.342-1.653,3.017-7.025,3.792-9.051,3.983l.26-2.242c4.606-2.06,8.133-8.624,8.133-8.624l9.1-15.962,3.135,2.85Z" transform="translate(-506.676 -198.509)" opacity="0.1"/>
    <path id="Path_208" data-name="Path 208" d="M973.116,337.893c-3.767,2.575-6.927,4.749-7.545,5.2-1.687,1.246-4.906,8.589-6.98,12.337-1.653,3.017-7.025,3.792-9.051,3.983l.26-2.242c4.606-2.06,8.133-8.624,8.133-8.624l9.1-15.962,3.135,2.84S971.35,336.4,973.116,337.893Z" transform="translate(-506.676 -198.203)" fill="#dce7ff"/>
    <path id="Path_209" data-name="Path 209" d="M952.6,302.811a14.55,14.55,0,1,1-12.369-14.383A14.525,14.525,0,0,1,952.6,302.811Z" transform="translate(-493.407 -175.621)" fill="#ffb0b1"/>
    <path id="Path_210" data-name="Path 210" d="M979.085,351.743a12.932,12.932,0,0,1-4.695-5.043c-.819-1.619-1.364-3.488-2.762-4.636-1.261-1.03-2.943-1.28-4.513-1.741-5.161-1.526-9.487-6.235-9.649-11.611-.078-2.531.711-5.058.353-7.564a8.378,8.378,0,0,0-1.638-3.9,13.438,13.438,0,0,0-1.418-1.526c-.687-.648-1.408-1.275-2.036-1.962a7.617,7.617,0,0,1-1.03-1.4,6.725,6.725,0,0,1-.564-1.3c-.981-3-.088-6.564-1.167-9.6l-.059-.167a3.123,3.123,0,0,0-2.389-2.242c-1.153-.083-2.139.873-3.238,1.3-2.3.893-4.783-.628-6.7-2.178s-4.081-3.321-6.519-2.978c-1.614.231-2.889,1.329-4.376,1.9a6.135,6.135,0,0,1-1.035.3,14.545,14.545,0,0,1,28.044,5.421,14.4,14.4,0,0,1-.319,3.036c.024.069.049.132.078.2.569,1.472,1.212,2.983,1.776,4.287L958,312.852l2.943,2.453c3.841,3.238,10.478,8.938,13.9,12.426C977.859,330.811,978.8,342.751,979.085,351.743Z" transform="translate(-494.505 -175.62)" opacity="0.1"/>
    <path id="Path_211" data-name="Path 211" d="M923.229,276.539c.7-1.427,1.05-3.027,1.889-4.381a10.438,10.438,0,0,1,5.587-3.978c5.764-1.987,17.944-4.871,21.584,0a10.617,10.617,0,0,0,2.3,2.747,17.08,17.08,0,0,0,2.5,1.123c2.32,1.089,3.8,3.463,4.591,5.887s1.025,5.023,1.6,7.52a55.3,55.3,0,0,0,3.336,9.257c1.526,3.561,3.144,7.255,6.088,9.772,4.018,3.434,4.906,8.3,8.634,12.063,4.415,4.474,4.273,11.857,2,17.719a4.865,4.865,0,0,0-.52,2.394,4.694,4.694,0,0,0,1.3,2.217l2.414,2.723a13.571,13.571,0,0,1-14.829-6.838c-.819-1.619-1.364-3.483-2.767-4.636-1.256-1.03-2.943-1.275-4.508-1.737-5.161-1.53-9.487-6.245-9.649-11.621-.078-2.526.711-5.053.353-7.554a8.339,8.339,0,0,0-1.643-3.924c-1.349-1.761-3.385-2.943-4.484-4.905-1.859-3.282-.446-7.545-1.786-11.067a3.13,3.13,0,0,0-2.389-2.242c-1.153-.083-2.139.873-3.242,1.3-2.3.893-4.778-.623-6.7-2.178s-4.081-3.321-6.524-2.973c-1.614.226-2.884,1.324-4.371,1.9-1.1.422-3.326.8-4.287-.128C917.676,283.127,922.38,278.285,923.229,276.539Z" transform="translate(-491.22 -164.025)" fill="#591d4b"/>
    <path id="Path_212" data-name="Path 212" d="M972.953,338.1c-.824-1.619-1.364-3.483-2.767-4.631-1.256-1.03-2.943-1.28-4.513-1.741-5.156-1.526-9.482-6.24-9.649-11.616-.078-2.526.711-5.057.358-7.559a8.388,8.388,0,0,0-1.643-3.9c-1.354-1.761-3.39-2.943-4.484-4.905-1.859-3.277-.446-7.54-1.79-11.067a3.14,3.14,0,0,0-2.384-2.242c-1.148-.088-2.144.878-3.242,1.3-2.3.893-4.783-.628-6.7-2.178s-4.086-3.321-6.524-2.978c-1.614.231-2.889,1.329-4.371,1.9-1.1.422-3.331.8-4.292-.123-2.021-1.962,2.683-6.794,3.527-8.531a46.963,46.963,0,0,1,1.893-4.381c.044-.074.093-.147.142-.221a7.788,7.788,0,0,0-1.614,1.835,47.7,47.7,0,0,0-1.889,4.381c-.849,1.737-5.553,6.583-3.527,8.531.981.932,3.189.549,4.287.128,1.472-.574,2.757-1.673,4.371-1.9,2.453-.348,4.611,1.423,6.524,2.973s4.415,3.071,6.7,2.178c1.1-.427,2.06-1.388,3.238-1.3A3.124,3.124,0,0,1,947,294.3c1.339,3.522-.074,7.785,1.786,11.067,1.1,1.928,3.135,3.135,4.484,4.905a8.339,8.339,0,0,1,1.643,3.924c.358,2.5-.432,5.028-.353,7.554.162,5.4,4.489,10.091,9.649,11.621,1.555.461,3.252.706,4.508,1.737,1.408,1.153,1.962,3.017,2.767,4.636a13.571,13.571,0,0,0,14.829,6.838l-1.138-1.285A13.718,13.718,0,0,1,972.953,338.1Z" transform="translate(-491.11 -168.981)" opacity="0.1"/>
    <path id="Path_213" data-name="Path 213" d="M953.04,352.936c-.643.981-2.482,6-4.018,10.39-1.437-.559-2.742-4.126-2.742-4.126l7.662-10.9C954.727,349.379,954.212,351.17,953.04,352.936Z" transform="translate(-505.015 -206.207)" opacity="0.1"/>
    <path id="Path_214" data-name="Path 214" d="M953.64,352.341c-.643.981-2.482,6-4.018,10.39-1.437-.554-2.742-4.125-2.742-4.125l7.662-10.9C955.327,348.784,954.812,350.58,953.64,352.341Z" transform="translate(-505.321 -205.906)" fill="#dce7ff"/>
    <path id="Path_215" data-name="Path 215" d="M865.366,443.7l-4.248-13.4a1.251,1.251,0,0,1,.814-1.575h0a1.256,1.256,0,0,1,1.57.814l4.248,13.382-.422,2.8Z" transform="translate(-461.598 -247.153)" fill="#be8b87"/>
    <path id="Path_216" data-name="Path 216" d="M861.73,429.148h0a1.256,1.256,0,0,1,1.575.814l4.248,13.382-.319,2.1.309.324.422-2.8-4.273-13.382a1.256,1.256,0,0,0-1.57-.814h0a1.256,1.256,0,0,0-.652.491,1.707,1.707,0,0,1,.26-.113Z" transform="translate(-461.808 -247.173)" fill="#fff" opacity="0.1"/>
    <path id="Path_217" data-name="Path 217" d="M822.6,399.9l2.384-.755-.348,2.3-.074.505-.7-.726Z" transform="translate(-418.832 -203.347)" fill="#efc8c4"/>
    <path id="Path_218" data-name="Path 218" d="M872.42,461.833a.49.49,0,0,1,.152-.128.216.216,0,0,1,.231,0,.608.608,0,0,1,.083.132.422.422,0,0,0,.3.2l-.074.491Z" transform="translate(-467.387 -263.965)" fill="#727a9c"/>
    <path id="Path_219" data-name="Path 219" d="M861.13,441.7s8.521-.049,6.514,3.576a7.664,7.664,0,0,1-5.141,4.062Z" transform="translate(-461.635 -253.79)" fill="#ffb0b1"/>
    <path id="Path_220" data-name="Path 220" d="M636.685,110.05h-.368a41.958,41.958,0,0,0-35.03,19.175,41.958,41.958,0,0,0-35.03-19.175h-.368a41.7,41.7,0,0,0-41.3,41.672c0,13.642,5.975,33,17.625,48.927,22.2,30.35,59.072,56.9,59.072,56.9s36.874-26.548,59.067-56.9c11.655-15.928,17.625-35.285,17.625-48.927A41.7,41.7,0,0,0,636.685,110.05Zm-5.264,92.934a8.266,8.266,0,0,1-7.687-5.308h-8.751a2.767,2.767,0,0,1-2.6-1.884l-2.688-8.1-8.506,29.722a2.752,2.752,0,0,1-2.639,1.987h-.172a2.718,2.718,0,0,1-2.551-2.276L587.056,164.4l-6.407,31.2A2.732,2.732,0,0,1,578,197.676H565.668a2.742,2.742,0,1,1,0-5.479h10.169l9.075-41.947a2.752,2.752,0,0,1,5.4.226l8.952,53.783,7.623-26.592a2.7,2.7,0,0,1,2.566-1.962h.054a2.737,2.737,0,0,1,2.6,1.884l4.861,14.623h6.662A8.222,8.222,0,1,1,631.436,203Z" transform="translate(-290.183 -84.829)" fill="#6c63ff"/>
  </g>
</svg>
