<svg width="406" height="306" viewBox="0 0 406 306" fill="none" xmlns="http://www.w3.org/2000/svg">
<g clip-path="url(#clip0)">
<path opacity="0.18" d="M64.7222 67.476C52.7242 70.0196 40.253 72.78 30.621 80.3761C22.4876 86.7843 9.81431 98.6147 5.97436 108.227C-10.2925 148.83 8.0989 198.237 43.7972 223.504C60.5865 235.389 81.5115 241.142 96.6002 255.131C106.143 263.979 112.828 275.691 122.982 283.825C137.819 295.699 157.852 298.327 176.81 299.599C189.982 300.491 203.665 300.875 215.885 295.867C224.719 292.249 232.201 286.043 239.546 279.926L288.204 239.293C296.022 232.772 303.332 222.385 313.511 222.454C405.128 223.11 411.304 115.291 270.695 67.5352C258.302 63.3255 249.804 51.6233 238.161 45.6243C214.111 33.227 186.432 37.2444 162.175 45.8215C131.377 56.7399 96.684 60.6785 64.7222 67.476Z" fill="#787EFF"/>
<path opacity="0.05" d="M384.03 241.413C387.865 241.477 392.804 242.433 393.396 246.219C393.716 248.19 392.587 250.108 391.365 251.7C383.719 261.692 371.051 266.744 358.55 268.1C346.049 269.456 333.45 267.558 320.969 266.02C302.931 263.792 284.824 262.313 266.648 261.583C253.723 261.061 240.128 260.736 228.997 254.15C226.932 252.932 224.901 251.409 223.91 249.221C221.938 244.868 225.054 239.569 229.332 237.454C233.611 235.34 238.639 235.547 243.411 235.803C290.269 238.327 337.093 241.413 384.03 241.413Z" fill="#000405"/>
<path d="M384.193 68.1662C384.193 68.1662 367.517 89.732 364.352 93.3453C358.58 99.9111 354.858 108.523 354.858 108.523L346.478 144.182L337.112 141.682L316.749 136.26C316.749 136.26 323.986 116.769 320.481 110.854C315.808 102.967 319.85 98.038 320.915 94.6515C322.886 88.3765 312.816 76.9059 312.816 76.9059L306.363 48.0052L316.104 46.7039L323.172 70.133L335.284 80.943L343.91 81.4015C343.91 81.4015 350.417 82.7422 355.149 80.5536C359.674 78.4537 375.66 60.4271 375.66 60.4271L382.181 66.3423L384.193 68.1662Z" fill="#787EFF"/>
<path d="M304.303 104.737V233.176C304.302 234.785 303.985 236.378 303.368 237.865C302.752 239.351 301.849 240.702 300.71 241.839C299.572 242.977 298.22 243.879 296.733 244.494C295.246 245.109 293.653 245.426 292.044 245.425H99.9522C96.7022 245.425 93.5852 244.134 91.2871 241.836C88.989 239.538 87.6979 236.421 87.6979 233.171V104.737C87.6966 101.488 88.985 98.3725 91.2801 96.0737C93.5752 93.7749 96.6891 92.4815 99.9374 92.4775H292.044C293.654 92.4769 295.248 92.7935 296.736 93.4094C298.223 94.0253 299.575 94.9282 300.714 96.0668C301.852 97.2053 302.755 98.557 303.371 100.045C303.987 101.532 304.304 103.127 304.303 104.737Z" fill="#787EFF"/>
<path d="M300.98 96.3965H90.6998L92.4054 95.0902C92.4842 95.0219 92.5664 94.9577 92.6519 94.898L192.678 18.2172L195.838 15.7969L297.614 93.8184L300.98 96.3965Z" fill="#787EFF"/>
<path d="M304.303 104.737L301.745 106.585L283.117 120.077L192.678 185.583L105.7 118.598L87.6979 104.737L87.9296 102.356C88.3676 100.124 89.423 98.0589 90.9759 96.3964C91.4117 95.922 91.8866 95.485 92.3955 95.0901C92.4743 95.0218 92.5566 94.9576 92.642 94.8979C94.7527 93.3215 97.3178 92.4722 99.9522 92.4776H292.044C295.089 92.4803 298.025 93.6156 300.28 95.6628C302.535 97.71 303.948 100.523 304.244 103.554C304.283 103.948 304.303 104.342 304.303 104.737Z" fill="#787EFF"/>
<path opacity="0.61" d="M92.3955 95.0803C91.8888 95.4779 91.4141 95.9146 90.9759 96.3866H90.6998L92.3955 95.0803Z" fill="url(#paint0_linear)"/>
<path d="M304.303 104.737L301.745 106.59L283.117 120.077L192.678 185.583L105.7 118.603L87.6979 104.737L87.9296 102.361C88.4994 99.478 90.0839 96.8949 92.3955 95.0803L92.642 94.893L192.678 18.2172L195.838 15.7969L297.614 93.8184C299.449 94.753 301.019 96.1357 302.178 97.8383C303.337 99.541 304.047 101.509 304.244 103.559C304.283 103.95 304.303 104.343 304.303 104.737Z" fill="url(#paint1_linear)"/>
<path d="M283.117 95.2479V120.082L249.74 144.236L242.085 149.796L192.678 185.583L146.209 149.796L139.007 144.255L105.69 118.623V95.2479C105.69 94.2918 105.878 93.3451 106.244 92.4617C106.61 91.5784 107.146 90.7758 107.822 90.0997C108.498 89.4237 109.301 88.8874 110.184 88.5215C111.068 88.1556 112.014 87.9673 112.971 87.9673H275.841C277.771 87.9699 279.62 88.7379 280.984 90.1029C282.348 91.4679 283.115 93.3182 283.117 95.2479Z" fill="white"/>
<path d="M258.657 117.021H127.044C126.68 117.021 126.32 116.949 125.984 116.81C125.648 116.671 125.342 116.467 125.085 116.209C124.828 115.952 124.624 115.647 124.484 115.311C124.345 114.975 124.274 114.614 124.274 114.251C124.274 113.887 124.345 113.526 124.484 113.19C124.624 112.854 124.828 112.549 125.085 112.292C125.342 112.034 125.648 111.83 125.984 111.691C126.32 111.552 126.68 111.48 127.044 111.48H258.657C259.021 111.48 259.381 111.552 259.717 111.691C260.053 111.83 260.359 112.034 260.616 112.292C260.873 112.549 261.077 112.854 261.217 113.19C261.356 113.526 261.427 113.887 261.427 114.251C261.427 114.985 261.136 115.69 260.616 116.209C260.097 116.729 259.392 117.021 258.657 117.021Z" fill="url(#paint2_linear)"/>
<path d="M258.657 133.411H127.044C126.68 133.411 126.32 133.339 125.984 133.2C125.648 133.061 125.342 132.857 125.085 132.599C124.828 132.342 124.624 132.037 124.484 131.701C124.345 131.364 124.274 131.004 124.274 130.64C124.274 130.277 124.345 129.916 124.484 129.58C124.624 129.244 124.828 128.939 125.085 128.682C125.342 128.424 125.648 128.22 125.984 128.081C126.32 127.942 126.68 127.87 127.044 127.87H258.657C259.392 127.87 260.097 128.162 260.616 128.682C261.136 129.201 261.427 129.906 261.427 130.64C261.427 131.375 261.136 132.08 260.616 132.599C260.097 133.119 259.392 133.411 258.657 133.411Z" fill="url(#paint3_linear)"/>
<path d="M249.74 144.255L242.085 149.796H146.209L139.012 144.255H249.74Z" fill="url(#paint4_linear)"/>
<path opacity="0.05" d="M192.678 185.583L112.399 245.435H274.613L192.678 185.583Z" fill="#000405"/>
<path d="M123.431 50.3219C119.389 41.6511 104.206 43.0757 104.206 43.0757C113.572 37.5499 111.778 23.5161 111.664 22.688C115.761 34.9226 129.903 32.2213 131.17 31.9551C121.779 34.2719 123.431 50.3219 123.431 50.3219Z" fill="#787EFF"/>
<path d="M97.1079 68.1118C94.5398 62.6008 84.8832 63.5078 84.8832 63.5078C90.9956 59.8749 89.6104 50.5239 89.6104 50.5239V50.5781C92.2328 58.3123 101.204 56.5969 102.003 56.4293C96.058 57.9081 97.1079 68.1118 97.1079 68.1118Z" fill="#787EFF"/>
<path d="M355.681 51.5542C356.872 50.5983 358.377 50.1235 359.901 50.2233C361.016 50.1779 362.107 50.5546 362.957 51.2781C363.612 52.0128 364.028 52.9291 364.15 53.9055C364.39 55.1155 364.481 56.3505 364.421 57.5828C364.313 59.8453 363.726 62.241 364.702 64.2867C364.934 64.7734 365.247 65.2169 365.629 65.5979C366.07 66.0915 366.684 66.3968 367.344 66.4506C367.672 66.4653 367.995 66.362 368.253 66.1594C368.512 65.9569 368.689 65.6685 368.754 65.3465C368.472 65.9754 368.068 66.5423 367.566 67.0148C367.064 67.4872 366.473 67.8559 365.828 68.0995C365.184 68.3432 364.497 68.4571 363.808 68.4347C363.119 68.4122 362.441 68.254 361.813 67.9689C361.405 67.782 361.02 67.5452 360.67 67.264L361.527 69.004C360.817 68.8218 360.129 68.5606 359.477 68.2252C357.382 67.0865 356.209 64.7747 355.652 62.4382C355.159 60.2939 355.06 58.0806 354.597 55.9265C354.257 54.285 354.345 52.7471 355.681 51.5542Z" fill="#3F3D56"/>
<path d="M355.05 53.9203C355.476 53.9053 355.901 53.9705 356.302 54.1125C356.636 54.2509 356.924 54.4781 357.137 54.7693C357.35 55.0604 357.479 55.4044 357.51 55.7638C357.529 56.1251 357.442 56.4841 357.26 56.7967C357.078 57.1093 356.808 57.3619 356.485 57.5236C356.063 57.6957 355.609 57.7748 355.154 57.7553C354.74 57.7553 354.321 57.7553 353.907 57.7158C353.778 57.7275 353.648 57.692 353.543 57.6159C353.438 57.5398 353.364 57.4282 353.335 57.3018C353.065 56.765 352.861 56.1972 352.729 55.611C352.389 53.797 353.611 53.9055 355.05 53.9203Z" fill="#787EFF"/>
<path d="M347.025 71.2273C347.025 71.2273 346.946 72.6519 346.848 74.5053C346.764 76.0679 346.661 77.9558 346.577 79.5234C346.434 82.1752 345.295 84.6752 343.387 86.523C342.273 87.6617 339.617 89.7863 337.591 89.0321C336.605 88.6673 336.57 87.4251 336.777 86.6808C337.234 85.324 337.488 83.9071 337.531 82.476C337.564 81.3177 337.46 80.1595 337.221 79.0255C335.954 75.8559 347.025 71.2273 347.025 71.2273Z" fill="url(#paint5_linear)"/>
<path d="M347.025 71.2273C347.025 71.2273 346.947 72.6519 346.848 74.5053C346.069 76.2404 345.34 77.6552 344.94 78.36C344.137 79.7846 340.834 82.0275 337.546 82.476C337.579 81.3177 337.474 80.1595 337.236 79.0255C335.954 75.8559 347.025 71.2273 347.025 71.2273Z" fill="url(#paint6_linear)"/>
<path d="M337.384 52.3528C334.579 52.5228 331.958 53.7998 330.095 55.9029C328.232 58.006 327.281 60.7628 327.451 63.567C327.451 63.8184 327.49 64.06 327.525 64.3163C327.854 68.6231 328.96 72.8348 330.788 76.7481C334.239 82.6633 342.983 77.798 344.369 75.3629C345.754 72.9279 351.068 61.9453 348.835 58.8349C347.297 56.735 343.033 52.126 337.384 52.3528Z" fill="url(#paint7_linear)"/>
<path d="M334.278 46.3439C337.988 45.2608 341.946 45.3764 345.586 46.6742C349.17 48.0347 352.26 50.8345 353.626 54.4182C354.799 57.7395 354.686 61.3794 353.31 64.6219C351.923 67.8376 349.713 70.6309 346.902 72.7208C346.178 70.5026 348.411 68.5308 349.278 66.3669C349.48 65.9672 349.524 65.506 349.401 65.0754C349.086 64.2719 347.883 64.1832 347.198 64.7057C346.513 65.2282 346.212 66.1105 345.961 66.9337C346.626 63.4093 347.119 59.2686 344.625 56.6856C343.146 55.1576 340.913 54.5857 338.784 54.566C336.828 54.5603 334.892 54.9558 333.095 55.7282C331.299 56.5006 329.68 57.6335 328.338 59.0567C327.555 59.8996 326.44 60.9347 325.445 60.3531C325.135 60.1412 324.892 59.8454 324.745 59.5003C321.802 53.6738 329.531 47.6452 334.278 46.3439Z" fill="#3F3D56"/>
<path d="M339.04 52.8555C336.575 51.7711 333.987 50.8838 331.311 50.8838C328.634 50.8838 325.859 51.7908 324.089 53.802C323.165 54.9226 322.493 56.2288 322.117 57.6321C321.821 58.5102 321.704 59.4387 321.772 60.3629C321.88 61.0331 322.044 61.6928 322.265 62.3346C322.729 63.9317 322.926 65.7852 321.915 67.126C321.728 67.393 321.482 67.6142 321.197 67.773C320.912 67.9318 320.595 68.024 320.269 68.0428C319.943 68.0486 319.625 67.9351 319.377 67.7237C319.128 67.5122 318.965 67.2173 318.918 66.8943C318.484 68.1217 319.194 69.5611 320.323 70.2068C320.905 70.5022 321.542 70.6712 322.194 70.7026C322.846 70.734 323.497 70.6272 324.104 70.3892C324.615 70.2289 325.089 69.9693 325.499 69.6251C325.905 69.2348 326.239 68.7759 326.485 68.2696C327.515 66.4013 328.033 64.3261 328.802 62.31C329.571 60.2939 330.685 58.3665 332.504 57.2328C333.945 56.4455 335.564 56.0431 337.206 56.0645C338.838 56.0103 340.479 56.1434 342.106 55.9955C343.733 55.8476 342.554 54.8815 341.855 54.3738C340.971 53.7729 340.027 53.2642 339.04 52.8555Z" fill="#3F3D56"/>
<path d="M405.246 35.1839C405.665 35.5092 401.741 38.5654 401.741 38.5654C401.741 38.5654 399.907 41.7251 398.044 42.6025C396.181 43.4799 382.181 66.3373 382.181 66.3373L376.656 61.3291L388.575 45.2939C388.575 45.2939 392.518 37.7373 392.08 34.4494C392.08 34.4494 392.316 30.5651 393.504 32.3692C394.342 33.6558 393.805 35.6817 394.796 35.8986C394.905 35.9082 395.015 35.8841 395.111 35.8296C395.933 35.3311 396.687 34.728 397.354 34.0353C399.326 32.1572 401.682 29.5447 401.682 29.5447C401.682 29.5447 402.973 28.9975 402.811 29.5447C402.648 30.0919 400.277 33.7839 400.144 33.9811C400.366 33.779 404.004 30.5306 404.58 30.782C405.157 31.0334 401.761 34.7747 401.564 34.9916C401.776 34.8437 405.655 32.1425 405.946 32.384C406.493 32.8424 402.988 35.8838 402.697 36.1155C402.919 35.9972 404.847 34.8684 405.246 35.1839Z" fill="url(#paint8_linear)"/>
<path d="M401.085 37.5254C400.791 37.6212 400.479 37.6466 400.174 37.5994C399.18 37.5238 398.182 37.5073 397.186 37.5501C396.516 37.5796 395.131 38.043 395.096 37.0029C395.096 36.7269 395.165 36.4558 395.151 36.1797C395.144 36.0603 395.127 35.9416 395.101 35.8248C395.923 35.3263 396.677 34.7232 397.344 34.0305C397.646 34.1314 397.932 34.2759 398.192 34.4594L400.134 35.7164C400.479 35.9431 400.824 36.1699 401.154 36.4163C401.301 36.5078 401.417 36.6396 401.49 36.7959C401.52 36.9457 401.497 37.1016 401.422 37.2354C401.348 37.3692 401.229 37.4721 401.085 37.5254Z" fill="url(#paint9_linear)"/>
<path d="M304.83 9.51681C304.298 9.57596 306.023 14.2391 306.023 14.2391C306.023 14.2391 305.915 17.8918 307.009 19.617C308.103 21.3423 307.995 47.7882 307.995 47.7882L315.33 46.8023L313.664 26.8829C313.664 26.8829 314.3 18.3847 316.404 15.8264C316.404 15.8264 318.248 12.4005 316.291 13.3075C314.901 13.9581 314.285 15.9595 313.333 15.6243C313.233 15.577 313.151 15.497 313.102 15.3975C312.654 14.5435 312.322 13.6334 312.116 12.6913C311.421 10.0541 310.81 6.59371 310.81 6.59371C310.81 6.59371 310.021 5.45996 309.893 6.00712C309.765 6.55428 309.809 10.9365 309.814 11.1879C309.73 10.9069 308.335 6.21415 307.719 6.13035C307.103 6.04655 308.01 11.0104 308.069 11.2963C307.96 11.0597 306.097 6.72187 305.713 6.77117C305.008 6.87468 306.408 11.3209 306.511 11.6512C306.373 11.4343 305.333 9.46751 304.83 9.51681Z" fill="url(#paint10_linear)"/>
<path d="M307.098 13.7017C307.303 13.9382 307.562 14.1224 307.852 14.239C308.735 14.702 309.591 15.2155 310.415 15.777C310.972 16.1566 311.894 17.2903 312.481 16.4129C312.638 16.1861 312.712 15.9199 312.87 15.6883C312.942 15.5903 313.019 15.4965 313.102 15.4073C312.654 14.5533 312.322 13.6431 312.116 12.7011C311.806 12.6282 311.487 12.6016 311.169 12.6222L308.858 12.6666C308.443 12.6576 308.028 12.6757 307.615 12.7208C307.44 12.7197 307.268 12.7712 307.122 12.8687C307.019 12.9813 306.959 13.1276 306.955 13.2806C306.95 13.4337 307.001 13.5832 307.098 13.7017Z" fill="url(#paint11_linear)"/>
<path d="M278.838 242.078C276.866 246.105 275.432 249.235 275.432 249.235L250.622 250.418C250.622 250.418 254.733 239.539 261.423 242.349C263.685 243.296 271.883 241.516 271.883 241.516L272.139 240.693L278.838 242.078Z" fill="url(#paint12_linear)"/>
<path d="M366.767 243.296L362.967 245.425L330.433 211.225L326.845 165.57L297.18 192.479C297.18 192.479 297.974 211.009 287.602 225.506C285.744 228.104 281.963 235.65 279.104 241.546C279.015 241.728 278.927 241.916 278.843 242.098L278.286 241.985L276.349 241.58L272.144 240.713L285.778 185.603L316.759 136.28L337.122 141.702L346.488 144.201C346.488 144.201 352.807 156.865 346.488 189.64L342.298 208.401C342.298 208.401 359.186 217.407 364.391 235.221L366.743 243.286L366.767 243.296Z" fill="#3F3D56"/>
<path d="M366.767 243.296L370.627 247.333L360.828 257.546H348.011C348.011 257.546 350.742 253.036 356.204 252.321C361.665 251.607 362.972 245.42 362.972 245.42L366.767 243.296Z" fill="url(#paint13_linear)"/>
<path opacity="0.22" d="M106.38 42.3659L104.216 43.0757C113.582 37.5499 111.788 23.5161 111.674 22.688C111.822 23.3534 114.001 32.6157 112.813 35.6571C111.329 39.4576 106.38 42.3659 106.38 42.3659Z" fill="white"/>
<path opacity="0.22" d="M90.902 59.313C89.7584 60.8953 85.2135 63.3354 84.903 63.498C91.0153 59.8651 89.6302 50.5142 89.6302 50.5142V50.5684C89.8717 51.2092 92.016 57.7652 90.902 59.313Z" fill="white"/>
<path opacity="0.22" d="M88.0626 111.48L188.458 188.728L192.678 185.583L87.6979 104.737L88.0626 111.48Z" fill="white"/>
<path opacity="0.22" d="M196 188.23L304.303 110.278V104.959L192.678 185.8L196 188.23Z" fill="white"/>
<path opacity="0.22" d="M304.244 103.776L303.948 104.604L301.745 106.807C303.292 104.135 298.92 97.9343 298.92 97.9343L297.175 96.628L291.935 92.6845L192.678 18.4389L195.838 16.0186L297.614 94.0352C299.448 94.9709 301.017 96.3538 302.176 98.0562C303.335 99.7587 304.046 101.726 304.244 103.776Z" fill="white"/>
<path d="M384.193 68.1662C384.193 68.1662 367.517 89.732 364.352 93.3452C358.58 99.9111 354.858 108.523 354.858 108.523L346.478 144.182L337.113 141.682C337.113 141.682 345.857 108.986 349.372 102.046C352.886 95.105 382.172 66.3374 382.172 66.3374L384.193 68.1662Z" fill="url(#paint14_linear)"/>
<path d="M366.743 243.286C366.57 242.793 361.005 227.334 352.65 220.852C344.166 214.267 339.237 205.177 339.237 205.177C337.265 187.727 337.103 141.682 337.103 141.682L346.468 144.181C346.468 144.181 352.788 156.845 346.468 189.62L342.278 208.381C342.278 208.381 359.166 217.407 364.372 235.221L366.743 243.286Z" fill="#25233A"/>
<path d="M297.18 192.469C297.18 192.469 297.974 210.999 287.602 225.496C285.744 228.094 281.963 235.64 279.104 241.536L278.286 241.975L276.349 241.57L292.428 190.852C292.428 190.852 311.904 167.778 315.478 165.57C319.051 163.362 326.855 165.57 326.855 165.57L297.18 192.469Z" fill="#25233A"/>
</g>
<defs>
<linearGradient id="paint0_linear" x1="90.7639" y1="97.8506" x2="92.6518" y2="92.7192" gradientUnits="userSpaceOnUse">
<stop offset="0.36" stop-color="#00272E"/>
<stop offset="0.75" stop-color="#3F80A1" stop-opacity="0.25"/>
<stop offset="1" stop-color="#69B9EB" stop-opacity="0"/>
</linearGradient>
<linearGradient id="paint1_linear" x1="219.203" y1="21.441" x2="159.558" y2="233.402" gradientUnits="userSpaceOnUse">
<stop stop-opacity="0"/>
<stop offset="0.91" stop-opacity="0.8"/>
<stop offset="1"/>
</linearGradient>
<linearGradient id="paint2_linear" x1="55786.8" y1="941.624" x2="55769.8" y2="2965.04" gradientUnits="userSpaceOnUse">
<stop stop-opacity="0"/>
<stop offset="0.91" stop-opacity="0.8"/>
<stop offset="1"/>
</linearGradient>
<linearGradient id="paint3_linear" x1="56698.9" y1="965.661" x2="56681.8" y2="2989.08" gradientUnits="userSpaceOnUse">
<stop stop-opacity="0"/>
<stop offset="0.91" stop-opacity="0.8"/>
<stop offset="1"/>
</linearGradient>
<linearGradient id="paint4_linear" x1="46752.1" y1="991.907" x2="46730.9" y2="3015.25" gradientUnits="userSpaceOnUse">
<stop stop-opacity="0"/>
<stop offset="0.91" stop-opacity="0.8"/>
<stop offset="1"/>
</linearGradient>
<linearGradient id="paint5_linear" x1="336.679" y1="80.2085" x2="347.03" y2="80.2085" gradientUnits="userSpaceOnUse">
<stop stop-color="#ECC4D7"/>
<stop offset="0.42" stop-color="#EFD4D1"/>
<stop offset="1" stop-color="#F2EAC9"/>
</linearGradient>
<linearGradient id="paint6_linear" x1="7207.67" y1="5232.71" x2="7152.41" y2="4687.85" gradientUnits="userSpaceOnUse">
<stop stop-color="#ECC4D7"/>
<stop offset="0.42" stop-color="#EFD4D1"/>
<stop offset="1" stop-color="#F2EAC9"/>
</linearGradient>
<linearGradient id="paint7_linear" x1="14910.8" y1="13011" x2="15887.8" y2="13011" gradientUnits="userSpaceOnUse">
<stop stop-color="#ECC4D7"/>
<stop offset="0.42" stop-color="#EFD4D1"/>
<stop offset="1" stop-color="#F2EAC9"/>
</linearGradient>
<linearGradient id="paint8_linear" x1="22811.5" y1="19024.2" x2="24558.8" y2="19024.2" gradientUnits="userSpaceOnUse">
<stop stop-color="#ECC4D7"/>
<stop offset="0.42" stop-color="#EFD4D1"/>
<stop offset="1" stop-color="#F2EAC9"/>
</linearGradient>
<linearGradient id="paint9_linear" x1="5586.11" y1="1930.59" x2="5573.47" y2="2102.99" gradientUnits="userSpaceOnUse">
<stop stop-color="#ECC4D7"/>
<stop offset="0.42" stop-color="#EFD4D1"/>
<stop offset="1" stop-color="#F2EAC9"/>
</linearGradient>
<linearGradient id="paint10_linear" x1="6689.29" y1="-24770.1" x2="6059.59" y2="-25162.7" gradientUnits="userSpaceOnUse">
<stop stop-color="#ECC4D7"/>
<stop offset="0.42" stop-color="#EFD4D1"/>
<stop offset="1" stop-color="#F2EAC9"/>
</linearGradient>
<linearGradient id="paint11_linear" x1="-2000.01" y1="-3975.48" x2="-1882.89" y2="-4131.6" gradientUnits="userSpaceOnUse">
<stop stop-color="#ECC4D7"/>
<stop offset="0.42" stop-color="#EFD4D1"/>
<stop offset="1" stop-color="#F2EAC9"/>
</linearGradient>
<linearGradient id="paint12_linear" x1="262.655" y1="237.592" x2="266.455" y2="253.425" gradientUnits="userSpaceOnUse">
<stop stop-color="#68E1FD"/>
<stop offset="0.01" stop-color="#67DDF9"/>
<stop offset="0.12" stop-color="#5CB3CE"/>
<stop offset="0.24" stop-color="#538EA9"/>
<stop offset="0.37" stop-color="#4C718B"/>
<stop offset="0.5" stop-color="#465A73"/>
<stop offset="0.63" stop-color="#424A63"/>
<stop offset="0.79" stop-color="#404059"/>
<stop offset="0.99" stop-color="#3F3D56"/>
</linearGradient>
<linearGradient id="paint13_linear" x1="16704.2" y1="1757.43" x2="16849.1" y2="1435.6" gradientUnits="userSpaceOnUse">
<stop stop-color="#68E1FD"/>
<stop offset="0.01" stop-color="#67DDF9"/>
<stop offset="0.12" stop-color="#5CB3CE"/>
<stop offset="0.24" stop-color="#538EA9"/>
<stop offset="0.37" stop-color="#4C718B"/>
<stop offset="0.5" stop-color="#465A73"/>
<stop offset="0.63" stop-color="#424A63"/>
<stop offset="0.79" stop-color="#404059"/>
<stop offset="0.99" stop-color="#3F3D56"/>
</linearGradient>
<linearGradient id="paint14_linear" x1="32883.1" y1="8759.19" x2="47109.1" y2="27796.8" gradientUnits="userSpaceOnUse">
<stop stop-opacity="0"/>
<stop offset="0.91" stop-opacity="0.8"/>
<stop offset="1"/>
</linearGradient>
<clipPath id="clip0">
<rect width="406" height="306" fill="white"/>
</clipPath>
</defs>
</svg>
