<svg width="510" height="390" viewBox="0 0 586 442" fill="none" xmlns="http://www.w3.org/2000/svg">
<path d="M285.822 422.884L22.5317 267.153C14.1519 262.447 6.95876 254.706 15.1335 249.648L279.375 97.1723C283.346 94.7092 289.367 93.0965 293.396 95.4423L569.782 256.025C578.162 260.893 579.671 274.498 571.247 279.381L320.542 422.634C315.276 425.694 309.304 427.326 303.215 427.369C297.126 427.413 291.131 425.867 285.822 422.884Z" fill="#24285B"/>
<path d="M513.907 182.324C514.845 182.896 513.907 219.109 513.907 219.109L366.455 135.218V98.3158" stroke="#6F4F64" stroke-width="1.015" stroke-miterlimit="10"/>
<path d="M84.384 179.509C83.4464 180.081 84.384 203.245 84.384 203.245L231.836 119.34V98.3452" stroke="#6F4F64" stroke-width="1.015" stroke-miterlimit="10"/>
<path d="M142.969 219.123L299.461 318.438L457.285 227.7" stroke="#F2F2F2" stroke-width="3.045" stroke-miterlimit="10"/>
<path d="M249.314 215.077L297.512 243.725L349.476 213.2L299.402 185.154L249.314 215.077Z" fill="#444CF7"/>
<path d="M349.476 213.2V323.789L299.402 352.642L297.512 243.725L349.476 213.2Z" fill="#444CF7"/>
<path opacity="0.11" d="M249.314 215.077L297.512 243.725L349.476 213.2L299.402 185.154L249.314 215.077Z" fill="#606060"/>
<path opacity="0.52" d="M349.476 213.2V323.789L299.402 352.642L297.512 243.725L349.476 213.2Z" fill="#606060"/>
<path d="M249.314 215.077V325.167L299.402 352.642L297.512 243.725L249.314 215.077Z" fill="#444CF7"/>
<path d="M479.568 171.856V114.091L549.683 155.421V213.904L479.568 171.856Z" fill="#444CF7"/>
<path d="M403.021 208.553V150.788L473.136 192.118V250.615L403.021 208.553Z" fill="#FF9F9F"/>
<path d="M339.323 92.6127V34.8479L409.438 76.1776V134.661L339.323 92.6127Z" fill="#E99A53"/>
<path d="M519.508 176.15C524.189 174.323 525.736 167.075 522.964 159.961C520.191 152.848 514.148 148.562 509.467 150.39C504.786 152.217 503.239 159.465 506.012 166.579C508.785 173.692 514.827 177.977 519.508 176.15Z" fill="white"/>
<path d="M363.323 87.6017C368.004 85.7744 369.551 78.5264 366.778 71.4128C364.006 64.2993 357.963 60.0141 353.282 61.8414C348.601 63.6688 347.054 70.9168 349.827 78.0303C352.6 85.1438 358.642 89.4291 363.323 87.6017Z" fill="white"/>
<path d="M390.499 106.098C393.318 104.997 394.249 100.632 392.579 96.3469C390.909 92.0622 387.27 89.4809 384.451 90.5815C381.632 91.682 380.7 96.0476 382.37 100.332C384.04 104.617 387.68 107.198 390.499 106.098Z" fill="white"/>
<path d="M415.943 169.496L454.765 226.322" stroke="white" stroke-width="1.015" stroke-miterlimit="10"/>
<path d="M423.23 209.063C426.916 207.624 428.135 201.92 425.953 196.323C423.771 190.726 419.015 187.355 415.329 188.794C411.643 190.233 410.423 195.937 412.605 201.534C414.787 207.131 419.544 210.502 423.23 209.063Z" fill="white"/>
<path d="M458.715 215.154C462.401 213.715 463.62 208.011 461.439 202.414C459.257 196.817 454.5 193.446 450.814 194.884C447.128 196.323 445.909 202.027 448.091 207.625C450.272 213.222 455.029 216.593 458.715 215.154Z" fill="white"/>
<path d="M285.104 204.389C282.701 204.389 277.779 198.29 276.109 196.487C273.346 193.423 271.055 189.964 269.311 186.224C259.598 165.288 272.607 136.992 296.809 135.32C298.522 135.222 300.239 135.222 301.951 135.32C317.905 135.966 329.962 151.858 331.412 166.754C332.03 174.292 330.708 181.863 327.574 188.746C326.062 192.019 324.028 195.024 321.553 197.645C319.824 199.463 314.667 205.063 312.001 204.975L285.104 204.389Z" fill="#FBB03B"/>
<path d="M292.78 205.958L289.704 163.924C289.704 163.924 284.063 153.662 280.108 160.904C276.152 168.147 284.356 172.985 301.087 172.266C317.817 171.548 320.85 163.646 317.202 160.538C313.554 157.429 307.474 161.696 307.167 163.851C306.859 166.006 303.401 205.884 303.401 205.884" stroke="#F2F2F2" stroke-width="0.5075" stroke-miterlimit="10"/>
<path d="M319.048 199.683C313.349 202.894 307.167 203.744 300.281 203.744C293.396 203.744 285.514 203.744 279.332 200.284C279.115 200.611 278.993 200.991 278.98 201.383V206.705C278.98 207.281 279.208 207.833 279.615 208.24C280.022 208.647 280.573 208.875 281.148 208.875H317.773C318.348 208.875 318.9 208.647 319.306 208.24C319.713 207.833 319.941 207.281 319.941 206.705V201.383C319.935 201.05 319.851 200.722 319.696 200.427C319.541 200.132 319.319 199.877 319.048 199.683Z" fill="#CCCCCC"/>
<path d="M318.183 208.89H280.723C279.761 208.89 278.98 209.671 278.98 210.635V216.807C278.98 217.77 279.761 218.552 280.723 218.552H318.183C319.146 218.552 319.927 217.77 319.927 216.807V210.635C319.927 209.671 319.146 208.89 318.183 208.89Z" fill="#CCCCCC"/>
<path d="M281.148 218.552C281.148 218.552 283.023 225.545 299.446 225.281C315.869 225.017 319.956 216.382 319.956 216.382" fill="#CCCCCC"/>
<path d="M318.169 205.401C312.459 208.618 306.087 210.481 299.545 210.847C293.002 211.213 286.463 210.072 280.43 207.512C279.361 207.057 278.423 208.626 279.507 209.095C285.82 211.805 292.672 213.023 299.531 212.657C306.39 212.291 313.073 210.35 319.062 206.984C320.117 206.339 319.209 204.873 318.169 205.401Z" fill="#AFA7A1"/>
<path d="M316.543 214.989C311.179 217.893 305.225 219.534 299.132 219.788C293.039 220.042 286.969 218.902 281.383 216.455C280.313 215.986 279.39 217.569 280.46 218.038C286.33 220.639 292.718 221.858 299.133 221.604C305.547 221.35 311.819 219.629 317.465 216.572C318.491 216.015 317.568 214.432 316.543 214.989Z" fill="#AFA7A1"/>
<path d="M110.314 166.593V108.842L40.1996 150.158V208.655L110.314 166.593Z" fill="#E99A53"/>
<path d="M186.861 192.792V135.027L116.731 176.357V234.84L186.861 192.792Z" fill="#FF9F9F"/>
<path d="M250.559 87.364V29.5992L180.444 70.9142V129.412L250.559 87.364Z" fill="#444CF7"/>
<path d="M180.444 105.28C182.017 98.9757 185.296 93.2279 189.923 88.6688C193.219 85.5607 197.35 82.8044 202.082 83.6987C207.503 84.681 208.631 90.2669 213.377 91.8209C221.83 94.5919 225.097 80.5612 226.269 75.034C227.588 68.8323 230.972 57.0155 237.989 54.5084C249.709 50.198 250.574 66.8531 250.574 66.8531" stroke="#F2F2F2" stroke-width="0.5075" stroke-miterlimit="10"/>
<path d="M180.444 118.665C182.017 112.361 185.296 106.613 189.923 102.054C193.219 98.9463 197.35 96.19 202.082 97.0843C207.503 98.0666 208.631 103.652 213.377 105.207C221.83 107.977 225.097 93.9468 226.269 88.4196C227.588 82.2179 230.972 70.4011 237.989 67.894C249.739 63.5397 250.515 80.2533 250.515 80.2533" stroke="#F2F2F2" stroke-width="0.5075" stroke-miterlimit="10"/>
<path d="M180.444 91.3811C182.017 85.077 185.296 79.3291 189.923 74.7701C193.219 71.6619 197.35 68.9056 202.082 69.8C207.503 70.7823 208.631 76.3681 213.377 77.9222C221.83 80.6932 225.097 66.6625 226.269 61.1352C227.588 54.9336 230.972 43.1167 237.989 40.6097C249.709 36.2993 250.574 52.9544 250.574 52.9544" stroke="#F2F2F2" stroke-width="0.5075" stroke-miterlimit="10"/>
<path d="M116.731 187.235L186.861 145.906" stroke="#F2F2F2" stroke-width="0.5075" stroke-miterlimit="10"/>
<path d="M116.731 199.521L186.861 158.192" stroke="#F2F2F2" stroke-width="3.045" stroke-miterlimit="10"/>
<path d="M116.731 211.69L186.861 170.361" stroke="#F2F2F2" stroke-width="0.5075" stroke-miterlimit="10"/>
<path d="M116.731 223.976L186.861 182.647" stroke="#F2F2F2" stroke-width="3.045" stroke-miterlimit="10"/>
<path d="M40.1996 194.815L80.4138 145.539L110.314 156.418" stroke="#F2F2F2" stroke-width="3.045" stroke-miterlimit="10"/>
<path d="M40.1996 208.025L80.4138 158.749L110.314 169.613" stroke="#F2F2F2" stroke-width="0.5075" stroke-miterlimit="10"/>
<path d="M38.1193 183.38L78.3335 134.104L112.395 146.492" stroke="#F2F2F2" stroke-width="0.5075" stroke-miterlimit="10"/>
<path style="mix-blend-mode:multiply" opacity="0.63" d="M249.314 325.094L183.814 362.465L238.019 394.544L299.358 352.554C294.758 349.651 253.987 328.026 249.314 325.094Z" fill="url(#paint0_linear)"/>
<defs>
<linearGradient id="paint0_linear" x1="220.204" y1="392.168" x2="254.493" y2="336.817" gradientUnits="userSpaceOnUse">
<stop stop-color="white" stop-opacity="0"/>
<stop offset="0.99" stop-color="#754C24"/>
</linearGradient>
</defs>
</svg>
